<?xml version="1.0" encoding="UTF-8" standalone="no"?>
<!-- Created with Inkscape (http://www.inkscape.org/) -->

<svg
   xmlns:dc="http://purl.org/dc/elements/1.1/"
   xmlns:cc="http://creativecommons.org/ns#"
   xmlns:rdf="http://www.w3.org/1999/02/22-rdf-syntax-ns#"
   xmlns:svg="http://www.w3.org/2000/svg"
   xmlns="http://www.w3.org/2000/svg"
   xmlns:sodipodi="http://sodipodi.sourceforge.net/DTD/sodipodi-0.dtd"
   xmlns:inkscape="http://www.inkscape.org/namespaces/inkscape"
   width="4.590013mm"
   height="20.947895mm"
   viewBox="0 0 4.590013 20.947895"
   version="1.1"
   id="svg8"
   inkscape:version="0.92.5 (2060ec1f9f, 2020-04-08)"
   sodipodi:docname="answer-uncover.svg"
   inkscape:export-filename="/home/eduda/Projects/MusicQuiz/assets/images/answer-uncover.png"
   inkscape:export-xdpi="200"
   inkscape:export-ydpi="200">
  <defs
     id="defs2" />
  <sodipodi:namedview
     id="base"
     pagecolor="#ffffff"
     bordercolor="#666666"
     borderopacity="1.0"
     inkscape:pageopacity="0.0"
     inkscape:pageshadow="2"
     inkscape:zoom="2.8"
     inkscape:cx="13.999131"
     inkscape:cy="24.63608"
     inkscape:document-units="mm"
     inkscape:current-layer="layer1"
     showgrid="false"
     inkscape:window-width="1848"
     inkscape:window-height="1016"
     inkscape:window-x="72"
     inkscape:window-y="27"
     inkscape:window-maximized="1"
     fit-margin-top="0"
     fit-margin-left="0"
     fit-margin-right="0"
     fit-margin-bottom="0" />
  <metadata
     id="metadata5">
    <rdf:RDF>
      <cc:Work
         rdf:about="">
        <dc:format>image/svg+xml</dc:format>
        <dc:type
           rdf:resource="http://purl.org/dc/dcmitype/StillImage" />
        <dc:title></dc:title>
      </cc:Work>
    </rdf:RDF>
  </metadata>
  <g
     inkscape:label="Vrstva 1"
     inkscape:groupmode="layer"
     id="layer1"
     transform="translate(-8.9542354,-239.41325)">
    <path
       style="fill:#0177ff;fill-opacity:1;stroke:#000000;stroke-width:0.26499999;stroke-linecap:butt;stroke-linejoin:miter;stroke-miterlimit:4;stroke-dasharray:none;stroke-opacity:1"
       d="m 9.6156561,240.28097 c -0.7657373,0.34339 -0.491328,18.29336 -0.435185,19.94278 1.7048239,0.107 2.9353759,-1.57134 3.9878629,-2.10205 0,0 -1.758078,0.37956 -1.951289,0.28248 -0.595099,-0.299 1.905925,-2.5209 1.905925,-2.5209 0,0 -1.966266,0.81134 -1.902568,0.19104 0.06723,-0.6547 1.799967,-2.83678 1.799967,-2.83678 0,0 -1.788835,0.73487 -1.807378,0.19107 -0.0183,-0.53657 1.786129,-2.1527 1.786129,-2.1527 0,0 -2.237304,0.23904 -2.171516,-0.35462 0.04497,-0.40578 2.275795,-2.57695 2.275795,-2.57695 0,0 -2.255168,0.55127 -2.250492,0.046 0.0039,-0.42367 2.103019,-2.7514 2.103019,-2.7514 0,0 -2.291807,0.51098 -2.299418,-0.0468 -0.0073,-0.53754 2.366236,-2.87762 2.366236,-2.87762 0,0 -1.926741,0.0872 -1.960092,-0.38211 -0.03538,-0.49784 2.05991,-2.67696 2.05991,-2.67696 -1.397201,0.3538 -3.101209,0.46523 -3.5069059,0.62552 z"
       id="path816"
       inkscape:connector-curvature="0"
       sodipodi:nodetypes="cccscscscscscscscc" />
  </g>
</svg>
