<?xml version="1.0" encoding="UTF-8" standalone="no"?>
<!-- Created with Inkscape (http://www.inkscape.org/) -->

<svg
   xmlns:dc="http://purl.org/dc/elements/1.1/"
   xmlns:cc="http://creativecommons.org/ns#"
   xmlns:rdf="http://www.w3.org/1999/02/22-rdf-syntax-ns#"
   xmlns:svg="http://www.w3.org/2000/svg"
   xmlns="http://www.w3.org/2000/svg"
   xmlns:sodipodi="http://sodipodi.sourceforge.net/DTD/sodipodi-0.dtd"
   xmlns:inkscape="http://www.inkscape.org/namespaces/inkscape"
   width="61.405708mm"
   height="20.343618mm"
   viewBox="0 0 61.405708 20.343618"
   version="1.1"
   id="svg8"
   inkscape:version="0.92.5 (2060ec1f9f, 2020-04-08)"
   sodipodi:docname="answer-cover.svg"
   inkscape:export-filename="/home/eduda/Projects/MusicQuiz/assets/images/answer-cover.png"
   inkscape:export-xdpi="200"
   inkscape:export-ydpi="200">
  <defs
     id="defs2" />
  <sodipodi:namedview
     id="base"
     pagecolor="#ffffff"
     bordercolor="#666666"
     borderopacity="1.0"
     inkscape:pageopacity="0.0"
     inkscape:pageshadow="2"
     inkscape:zoom="2.8"
     inkscape:cx="18.114856"
     inkscape:cy="-4.423076"
     inkscape:document-units="mm"
     inkscape:current-layer="layer1"
     showgrid="false"
     inkscape:window-width="1848"
     inkscape:window-height="1016"
     inkscape:window-x="72"
     inkscape:window-y="27"
     inkscape:window-maximized="1"
     fit-margin-top="0"
     fit-margin-left="0"
     fit-margin-right="0"
     fit-margin-bottom="0" />
  <metadata
     id="metadata5">
    <rdf:RDF>
      <cc:Work
         rdf:about="">
        <dc:format>image/svg+xml</dc:format>
        <dc:type
           rdf:resource="http://purl.org/dc/dcmitype/StillImage" />
        <dc:title></dc:title>
      </cc:Work>
    </rdf:RDF>
  </metadata>
  <g
     inkscape:label="Vrstva 1"
     inkscape:groupmode="layer"
     id="layer1"
     transform="translate(-4.3442092,-240.67408)">
    <path
       style="fill:#6cb2ff;fill-opacity:1;stroke:#000000;stroke-width:0.26499999;stroke-linecap:butt;stroke-linejoin:miter;stroke-miterlimit:4;stroke-dasharray:none;stroke-opacity:1"
       d="m 5.4122078,241.14067 59.9017832,-0.33409 c 0,0 -2.289967,1.05585 -2.250797,1.57384 0.0409,0.54086 2.109615,1.16362 2.109615,1.16362 0,0 -2.116392,0.50285 -2.156863,1.03336 -0.03599,0.47171 2.156863,0.99827 2.156863,0.99827 0,0 -2.099142,0.95138 -2.156863,1.4822 -0.06248,0.57455 2.322228,1.28175 2.322228,1.28175 0,0 -2.293448,0.88019 -2.369476,1.30503 -0.08095,0.45232 2.085993,1.22268 2.085993,1.22268 0,0 -1.847139,0.79939 -1.885193,1.19872 -0.03637,0.38168 2.077675,1.16856 2.077675,1.16856 0,0 -2.055068,0.89821 -2.184013,1.16931 -0.215438,0.45295 2.250831,1.26953 2.250831,1.26953 0,0 -1.823638,0.68531 -2.299409,1.22686 -0.385648,0.43897 2.666904,1.37901 2.666904,1.37901 0,0 -2.817585,0.17403 -2.919004,1.00227 -0.118249,0.96568 2.618324,1.60361 2.618324,1.60361 L 5.0781208,260.8518 c 0,0 2.6938688,-1.1949 2.6426444,-1.80979 -0.055289,-0.66369 -2.6770365,-1.29247 -2.6770365,-1.29247 0,0 2.7111906,-0.36984 2.7748883,-0.9901 0.067235,-0.6547 -2.8538652,-1.82097 -2.8538652,-1.82097 0,0 2.8413739,-0.87153 2.8228307,-1.41533 -0.018297,-0.53657 -2.9149503,-1.20775 -2.9149503,-1.20775 0,0 2.4637752,-0.70591 2.5295633,-1.29957 0.044967,-0.40578 -2.2126725,-1.27765 -2.2126725,-1.27765 0,0 2.2332989,-0.74803 2.2379749,-1.25331 0.00392,-0.42367 -2.1492128,-1.47572 -2.1492128,-1.47572 0,0 1.9604254,-0.7647 1.9528139,-1.3225 -0.00734,-0.53754 -2.0986082,-1.43658 -2.0986082,-1.43658 0,0 2.3543555,-0.96965 2.3210049,-1.43895 -0.035379,-0.49784 -2.5137581,-1.69406 -2.5137581,-1.69406 z"
       id="path816"
       inkscape:connector-curvature="0"
       sodipodi:nodetypes="ccscscscscscscscsccscscscscscscscc" />
  </g>
</svg>
