<?xml version="1.0" encoding="UTF-8" standalone="no"?>
<svg
   xmlns:dc="http://purl.org/dc/elements/1.1/"
   xmlns:cc="http://creativecommons.org/ns#"
   xmlns:rdf="http://www.w3.org/1999/02/22-rdf-syntax-ns#"
   xmlns:svg="http://www.w3.org/2000/svg"
   xmlns="http://www.w3.org/2000/svg"
   xmlns:xlink="http://www.w3.org/1999/xlink"
   xmlns:sodipodi="http://sodipodi.sourceforge.net/DTD/sodipodi-0.dtd"
   xmlns:inkscape="http://www.inkscape.org/namespaces/inkscape"
   width="1180"
   height="570"
   viewBox="0 0 312.20833 150.8125"
   version="1.1"
   id="svg8"
   inkscape:version="0.92.5 (2060ec1f9f, 2020-04-08)"
   sodipodi:docname="board.svg"
   inkscape:export-filename="/home/eduda/Projects/MusicQuiz/assets/images/board.png"
   inkscape:export-xdpi="96.055885"
   inkscape:export-ydpi="96.055885">
  <defs
     id="defs2">
    <linearGradient
       inkscape:collect="always"
       id="linearGradient1221">
      <stop
         style="stop-color:#ecbd8f;stop-opacity:1"
         offset="0"
         id="stop1217" />
      <stop
         style="stop-color:#d7ab7c;stop-opacity:1"
         offset="1"
         id="stop1219" />
    </linearGradient>
    <linearGradient
       inkscape:collect="always"
       id="linearGradient1203">
      <stop
         style="stop-color:#ecbd8f;stop-opacity:1"
         offset="0"
         id="stop1199" />
      <stop
         style="stop-color:#d7ab7c;stop-opacity:1"
         offset="1"
         id="stop1201" />
    </linearGradient>
    <linearGradient
       inkscape:collect="always"
       id="linearGradient1193">
      <stop
         style="stop-color:#ecbd8f;stop-opacity:1"
         offset="0"
         id="stop1189" />
      <stop
         style="stop-color:#d7ab7c;stop-opacity:1"
         offset="1"
         id="stop1191" />
    </linearGradient>
    <linearGradient
       inkscape:collect="always"
       xlink:href="#linearGradient1193"
       id="linearGradient1195"
       x1="157.86626"
       y1="22.784702"
       x2="157.93217"
       y2="39.365303"
       gradientUnits="userSpaceOnUse" />
    <linearGradient
       inkscape:collect="always"
       xlink:href="#linearGradient1203"
       id="linearGradient1205"
       x1="143.19644"
       y1="35.998623"
       x2="143.19644"
       y2="57.826172"
       gradientUnits="userSpaceOnUse"
       gradientTransform="translate(-0.74166801,-0.53957706)" />
    <linearGradient
       inkscape:collect="always"
       xlink:href="#linearGradient1221"
       id="linearGradient1215"
       x1="146.22241"
       y1="36.758591"
       x2="146.22241"
       y2="58.58614"
       gradientUnits="userSpaceOnUse"
       gradientTransform="translate(-3.7676341,-1.2995432)" />
    <linearGradient
       inkscape:collect="always"
       xlink:href="#linearGradient1203"
       id="linearGradient1258"
       gradientUnits="userSpaceOnUse"
       gradientTransform="translate(-1.8286747,15.367073)"
       x1="143.19644"
       y1="35.998623"
       x2="143.19644"
       y2="57.826172" />
    <linearGradient
       inkscape:collect="always"
       xlink:href="#linearGradient1221"
       id="linearGradient1260"
       gradientUnits="userSpaceOnUse"
       gradientTransform="translate(-4.8546407,14.607107)"
       x1="146.22241"
       y1="36.758591"
       x2="146.22241"
       y2="58.58614" />
    <linearGradient
       inkscape:collect="always"
       xlink:href="#linearGradient1203"
       id="linearGradient1298"
       gradientUnits="userSpaceOnUse"
       gradientTransform="translate(-0.64258277,30.545387)"
       x1="143.19644"
       y1="35.998623"
       x2="143.19644"
       y2="57.826172" />
    <linearGradient
       inkscape:collect="always"
       xlink:href="#linearGradient1221"
       id="linearGradient1300"
       gradientUnits="userSpaceOnUse"
       gradientTransform="translate(-3.6685488,29.785421)"
       x1="146.22241"
       y1="36.758591"
       x2="146.22241"
       y2="58.58614" />
    <linearGradient
       inkscape:collect="always"
       xlink:href="#linearGradient1193"
       id="linearGradient1330"
       gradientUnits="userSpaceOnUse"
       x1="157.86626"
       y1="22.784702"
       x2="157.93217"
       y2="39.365303"
       gradientTransform="translate(1.2643287,62.438573)" />
    <linearGradient
       inkscape:collect="always"
       xlink:href="#linearGradient1203"
       id="linearGradient1368"
       gradientUnits="userSpaceOnUse"
       gradientTransform="translate(-2.1662384,61.079532)"
       x1="143.19644"
       y1="35.998623"
       x2="143.19644"
       y2="57.826172" />
    <linearGradient
       inkscape:collect="always"
       xlink:href="#linearGradient1221"
       id="linearGradient1370"
       gradientUnits="userSpaceOnUse"
       gradientTransform="translate(-5.1922044,60.319566)"
       x1="146.22241"
       y1="36.758591"
       x2="146.22241"
       y2="58.58614" />
    <linearGradient
       inkscape:collect="always"
       xlink:href="#linearGradient1203"
       id="linearGradient1408"
       gradientUnits="userSpaceOnUse"
       gradientTransform="translate(-1.9338693,73.308103)"
       x1="143.19644"
       y1="35.998623"
       x2="143.19644"
       y2="57.826172" />
    <linearGradient
       inkscape:collect="always"
       xlink:href="#linearGradient1221"
       id="linearGradient1410"
       gradientUnits="userSpaceOnUse"
       gradientTransform="translate(-4.9598353,72.548137)"
       x1="146.22241"
       y1="36.758591"
       x2="146.22241"
       y2="58.58614" />
  </defs>
  <sodipodi:namedview
     id="base"
     pagecolor="#ffffff"
     bordercolor="#666666"
     borderopacity="1.0"
     inkscape:pageopacity="0.0"
     inkscape:pageshadow="2"
     inkscape:zoom="0.7"
     inkscape:cx="263.70622"
     inkscape:cy="357.19692"
     inkscape:document-units="mm"
     inkscape:current-layer="layer2"
     inkscape:document-rotation="0"
     showgrid="false"
     inkscape:snap-grids="false"
     inkscape:snap-to-guides="true"
     inkscape:snap-others="false"
     inkscape:snap-nodes="false"
     inkscape:snap-global="false"
     inkscape:window-width="1848"
     inkscape:window-height="1016"
     inkscape:window-x="72"
     inkscape:window-y="27"
     inkscape:window-maximized="1"
     units="px" />
  <metadata
     id="metadata5">
    <rdf:RDF>
      <cc:Work
         rdf:about="">
        <dc:format>image/svg+xml</dc:format>
        <dc:type
           rdf:resource="http://purl.org/dc/dcmitype/StillImage" />
        <dc:title />
      </cc:Work>
    </rdf:RDF>
  </metadata>
  <g
     inkscape:groupmode="layer"
     id="layer2"
     inkscape:label="Image"
     style="display:inline;opacity:1;mix-blend-mode:normal"
     sodipodi:insensitive="true">
    <path
       style="fill:#5a2000;fill-opacity:1;stroke:none;stroke-width:0.264583px;stroke-linecap:butt;stroke-linejoin:miter;stroke-opacity:1"
       d="m 18.110773,20.197943 1.023704,111.612177 279.747633,1.01742 -1.4723,-116.778881 z"
       id="path1413" />
    <path
       style="display:inline;opacity:1;mix-blend-mode:normal;fill:url(#linearGradient1195);fill-opacity:1;stroke:none;stroke-width:0.264583px;stroke-linecap:butt;stroke-linejoin:miter;stroke-opacity:1"
       d="m 26.706483,28.038504 42.52087,-5.458816 60.726557,-1.862304 83.6513,0.12302 76.46257,1.769133 -0.22804,8.547685 -6.53989,1.302504 0.80425,0.641061 6.2185,0.03907 -0.57105,7.094368 -21.67014,-0.20144 -51.81778,0.397359 -58.10443,1.385432 -55.92928,-0.441822 -59.842827,0.695373 -17.992233,-0.223251 0.10117,-5.171376 3.832682,-1.55113 4.926216,-0.504016 -1.47099,-0.674542 -3.091273,0.26211 -3.754764,0.0988 0.14072,-5.590214 z"
       id="path1187" />
    <path
       style="display:inline;opacity:1;mix-blend-mode:normal;fill:url(#linearGradient1205);fill-opacity:1;stroke:url(#linearGradient1215);stroke-width:0.264583px;stroke-linecap:butt;stroke-linejoin:miter;stroke-opacity:1"
       d="m 24.540379,47.176928 14.751752,-3.054832 17.381596,-4.037571 21.481325,-1.337746 31.563358,0.130209 8.02157,1.377945 23.55582,-2.865371 14.16571,-0.451197 c 0,0 22.31534,0.317836 22.95536,0.478621 0.64002,0.160782 7.09664,1.218726 7.67997,1.274408 0.58333,0.05568 27.19075,0.09645 27.19075,0.09645 l 21.29929,-1.418749 21.08024,1.483982 14.27904,1.398467 8.3772,1.275147 7.42429,0.391784 6.63866,4.032812 -7.23252,1.363784 0.20696,1.400747 5.58313,1.525603 1.0931,3.205832 -1.7872,2.302137 -64.64745,0.837806 -62.75511,-0.502002 -122.507545,0.631676 -17.845959,0.160356 0.621644,-2.516743 7.141028,-0.962332 -0.0177,-1.160862 -6.693004,-1.168516 z"
       id="path1197"
       sodipodi:nodetypes="ccccccccssccccccccccccccccccccc" />
    <path
       style="display:inline;mix-blend-mode:normal;fill:url(#linearGradient1258);fill-opacity:1;stroke:url(#linearGradient1260);stroke-width:0.264583px;stroke-linecap:butt;stroke-linejoin:miter;stroke-opacity:1"
       d="m 23.40956,59.201622 14.485777,-2.262292 18.178945,-2.960449 20.375838,0.410569 17.832632,1.459374 22.370218,0.312759 21.41518,-0.780091 14.16571,-0.451197 c 0,0 22.31534,0.317836 22.95536,0.478621 0.64002,0.160782 15.08335,-1.44364 15.66668,-1.387958 0.58333,0.05568 11.68813,-1.455155 11.68813,-1.455155 l 30.94802,1.385412 26.45757,-0.245445 12.61152,-0.740574 14.5612,0.622342 4.65393,2.213171 2.26563,5.270916 -9.25305,1.206292 -3.4e-4,1.45097 7.81096,1.632872 -1.6495,3.992144 -1.7872,2.302137 -64.64745,0.837806 -62.75511,-0.502002 -122.507541,0.631676 -17.845959,0.160356 2.404071,-4.768803 7.141028,-0.962332 -0.0177,-1.160862 -6.693004,-1.168515 z"
       id="path1197-3"
       sodipodi:nodetypes="ccccccccssccccccccccccccccccccc" />
    <path
       style="display:inline;mix-blend-mode:normal;fill:url(#linearGradient1298);fill-opacity:1;stroke:url(#linearGradient1300);stroke-width:0.264583px;stroke-linecap:butt;stroke-linejoin:miter;stroke-opacity:1"
       d="m 24.639464,78.261892 14.751752,-3.054831 17.381596,-4.037571 21.481325,-1.337747 31.563363,0.130209 8.02157,1.377945 23.55582,-2.865371 14.16571,-0.451197 c 0,0 22.31534,0.317836 22.95536,0.478621 0.64002,0.160782 7.09664,1.218726 7.67997,1.274408 0.58333,0.05568 27.19075,0.09645 27.19075,0.09645 l 24.27535,-3.542374 22.8831,0.215159 13.20211,1.597917 13.28716,0.835649 5.92797,1.999864 -0.47697,6.057228 -7.23252,1.363784 0.20696,1.400747 5.58313,1.525603 1.0931,3.205832 -1.7872,2.302137 -64.64745,0.837806 -62.75511,-0.502002 -122.50755,0.631676 -17.845959,0.160356 0.621644,-2.516743 7.141028,-0.962331 -0.0177,-1.160863 -6.693004,-1.168516 z"
       id="path1197-1" />
    <path
       style="display:inline;mix-blend-mode:normal;fill:url(#linearGradient1330);fill-opacity:1;stroke:none;stroke-width:0.264583px;stroke-linecap:butt;stroke-linejoin:miter;stroke-opacity:1"
       d="m 27.970811,90.477077 42.52087,-5.458816 60.726559,-1.862304 96.42053,-0.147099 63.32813,5.921034 0.13717,4.665903 -6.53989,1.302504 0.80425,0.641061 6.2185,0.03907 -0.57105,7.09437 -21.67014,-0.20144 -51.81778,0.39736 -58.10443,1.38543 -55.92928,-0.44183 -59.842829,0.69538 -17.992233,-0.22325 0.10117,-5.171377 3.832682,-1.55113 4.926216,-0.504016 -1.47099,-0.674542 -3.091273,0.26211 -3.754764,0.0988 0.14072,-5.590214 z"
       id="path1187-0"
       sodipodi:nodetypes="cccccccccccccccccccccccc" />
    <path
       style="display:inline;mix-blend-mode:normal;fill:url(#linearGradient1368);fill-opacity:1;stroke:url(#linearGradient1370);stroke-width:0.264583px;stroke-linecap:butt;stroke-linejoin:miter;stroke-opacity:1"
       d="m 23.071997,104.91408 14.485777,-2.26229 18.178945,-2.96045 20.375837,0.41057 17.83263,1.45937 22.370214,0.31276 21.41518,-0.78009 14.16571,-0.4512 c 0,0 22.31534,0.31784 22.95536,0.47862 0.64002,0.16079 15.08335,-1.443635 15.66668,-1.387953 0.58333,0.05568 11.68813,-1.455155 11.68813,-1.455155 l 30.94802,1.385412 23.15677,1.005536 13.13263,1.10689 12.201,1.50822 9.19612,1.28523 2.86333,2.21453 -7.23252,1.36379 0.20696,1.40074 5.58313,1.52561 -1.6495,3.99214 -1.7872,2.30214 -64.64745,0.8378 -62.75511,-0.502 -122.507534,0.63168 -17.845959,0.16035 2.404071,-4.7688 7.141028,-0.96233 -0.0177,-1.16086 -6.693004,-1.16852 z"
       id="path1197-3-6"
       sodipodi:nodetypes="ccccccccssccccccccccccccccccccc" />
    <path
       style="display:inline;mix-blend-mode:normal;fill:url(#linearGradient1408);fill-opacity:1;stroke:url(#linearGradient1410);stroke-width:0.264583px;stroke-linecap:butt;stroke-linejoin:miter;stroke-opacity:1"
       d="m 23.348178,121.02461 14.751752,-3.05483 17.381596,-4.03757 21.481325,-1.33775 31.563359,0.13021 8.02157,1.37794 23.55582,-2.86537 14.16571,-0.4512 c 0,0 22.31534,0.31784 22.95536,0.47863 0.64002,0.16078 7.09664,1.21872 7.67997,1.2744 0.58333,0.0557 27.19075,0.0965 27.19075,0.0965 l 24.27535,-3.54237 22.8831,0.21516 13.20211,1.59792 12.38631,1.26212 6.82882,1.57339 -0.47697,6.05723 -7.23252,1.36378 0.20696,1.40075 5.58313,1.5256 1.0931,3.20583 -1.7872,2.30214 -64.64745,0.83781 -62.75511,-0.50201 -122.507546,0.63168 -17.845959,0.16036 0.621644,-2.51675 7.141028,-0.96233 -0.0177,-1.16086 -6.693004,-1.16852 z"
       id="path1197-1-7"
       sodipodi:nodetypes="ccccccccssccccccccccccccccccccc" />
    <path
       style="fill:#c58047;fill-opacity:1;stroke:#5a2000;stroke-width:0.863635;stroke-linecap:butt;stroke-linejoin:miter;stroke-miterlimit:4;stroke-dasharray:none;stroke-opacity:1"
       d="M 26.081554,6.6356995 C 25.491029,5.3714886 24.22134,4.3534621 22.89443,3.9218864 20.536888,3.1550997 17.8705,3.8372841 15.478835,4.4898938 13.621173,4.9967931 12.001523,6.1469241 10.293177,7.0354088 10.151174,7.1092637 9.9086007,7.1109006 9.8724352,7.26682 9.005144,11.005982 10.892734,37.150333 10.892734,37.150333 c 0,0 0.393742,11.519693 -0.175719,16.784671 -0.171812,1.588491 -2.7595805,1.555132 -3.7848559,2.723251 -0.5174142,0.589502 -1.1173332,1.287813 -1.1149714,2.072176 0.00542,1.785562 1.8644053,3.060106 2.5665346,4.701836 0.7399903,1.730258 1.4101738,3.521804 1.7147687,5.378844 2.573403,15.689406 0.267196,31.800139 0.788649,47.690639 0.06631,2.0208 0.246052,4.03713 0.297535,6.05836 0.192127,7.54295 -1.098451,15.17745 0.04208,22.63615 0.09991,0.65336 0.181828,1.37274 0.589039,1.89336 0.750191,0.95912 2.001012,1.42265 3.124013,1.89336 1.082748,0.45383 2.248293,0.72398 3.413469,0.86777 1.265887,0.15622 2.564866,0.17494 3.826448,-0.0129 1.162824,-0.17314 2.354518,-0.43658 3.377384,-1.01613 0.974897,-0.55238 1.957178,-1.27524 2.485221,-2.26353 0.747718,-1.39944 0.708365,-4.70698 0.708365,-4.70698 L 27.204463,71.015791 26.307502,33.07864 C 26.182226,24.357172 29.812037,14.622019 26.081554,6.6356995 Z"
       id="path1003"
       sodipodi:nodetypes="aaaascsaaaaaaaaaaaaaccca" />
    <path
       style="fill:#eaad71;fill-opacity:1;stroke:#5a2000;stroke-width:0.863635;stroke-linecap:butt;stroke-linejoin:miter;stroke-miterlimit:4;stroke-dasharray:none;stroke-opacity:1"
       d="m 6.15234,59.146307 c 0.7525237,0.691062 2.0933046,0.05779 3.0503856,-0.299781 0.6101381,-0.227948 1.2083594,-0.605547 1.5935654,-1.130758 0.368214,-0.502043 0.553184,-1.155374 0.57326,-1.777651 0.01106,-0.343376 0.04223,-0.822655 -0.252444,-0.999273 -0.480311,-0.287874 -1.098962,0.228426 -1.6303789,0.404967 -0.794099,0.263807 -1.6409023,0.475977 -2.3140868,0.972977 -0.4175024,0.308234 -0.8189379,0.707249 -0.9992636,1.193869 -0.1894657,0.511286 -0.4226481,1.266841 -0.021043,1.63565 z"
       id="path1005"
       sodipodi:nodetypes="aaaaaaaaa" />
    <path
       style="fill:#5a2000;fill-opacity:1;stroke:none;stroke-width:0.298697px;stroke-linecap:butt;stroke-linejoin:miter;stroke-opacity:1"
       d="m 11.553934,57.378928 2.266656,3.635234 0.07437,-1.106377 -0.611755,-1.214222 -0.559691,-0.706592 -0.06693,-0.539241 0.820012,0.189663 0.888812,0.44255 0.647085,0.619197 0.148755,0.972494 0.349573,1.385295 0.03347,1.673508 0.105985,0.979933 0.254742,0.33098 0.217555,-0.976211 -0.176647,-1.33509 -0.145036,-1.296038 -0.07995,-0.991089 0.541097,0.117147 0.265899,0.784689 c 0,0 0.206397,0.727047 0.178507,0.840473 -0.0279,0.113425 0.08554,1.206785 0.08554,1.206785 l 0.07437,0.338421 c 0,0 0.16363,-1.76648 0.145037,-1.853876 -0.01859,-0.08739 -0.275197,-1.156579 -0.275197,-1.156579 l -0.39792,-0.676842 -0.648944,-0.06136 -0.448125,-1.180753 -0.864639,-0.41466 -1.260699,-0.386765 -0.767948,-0.293796 -0.364451,0.01673 -0.342137,-0.399783 -0.265899,0.645231 z"
       id="path1007" />
    <path
       style="fill:#5a2000;fill-opacity:1;stroke:none;stroke-width:0.298697px;stroke-linecap:butt;stroke-linejoin:miter;stroke-opacity:1"
       d="m 10.993442,113.2534 0.763911,1.65801 0.155148,0.23272 0.07889,-1.18203 -0.33528,-1.25961 -0.650835,-1.09394 -0.452299,-0.11571 0.180129,1.51074 z"
       id="path1009" />
    <path
       style="fill:#e7ab74;fill-opacity:1;stroke:#5a2000;stroke-width:0.750741;stroke-linecap:butt;stroke-linejoin:miter;stroke-miterlimit:4;stroke-dasharray:none;stroke-opacity:1"
       d="m 11.244393,144.9417 c 0.654578,-1.34202 2.645235,-1.44527 4.087047,-1.83342 1.449068,-0.39011 2.976871,-0.47106 4.477529,-0.46859 1.374008,0.002 2.761094,0.12626 4.098203,0.44255 1.266908,0.29969 2.687296,0.49886 3.659375,1.36484 0.382499,0.34076 0.756495,0.85951 0.699148,1.36856 -0.128466,1.14032 -1.262075,1.99224 -2.209012,2.64043 -1.116659,0.76437 -2.511813,1.07151 -3.84532,1.30161 -0.954161,0.16465 -1.939174,0.12068 -2.904442,0.0446 -1.273261,-0.10037 -2.562216,-0.25671 -3.774662,-0.65825 -0.948866,-0.31425 -1.879666,-0.74796 -2.677592,-1.34997 -0.486014,-0.36668 -0.950095,-0.80628 -1.238386,-1.34253 -0.245436,-0.45653 -0.599113,-1.04397 -0.371888,-1.50983 z"
       id="path1011"
       sodipodi:nodetypes="aaaaaaaaaaaaa" />
    <path
       style="fill:#5a2000;fill-opacity:1;stroke:none;stroke-width:0.298697px;stroke-linecap:butt;stroke-linejoin:miter;stroke-opacity:1"
       d="m 15.03534,144.46012 -1.058431,0.32739 -0.127538,1.32535 0.971653,0.735 c 0,0 0.723152,0.45493 0.762597,0.45624 0.03945,0.001 1.118914,0.25114 1.118914,0.25114 0,0 1.655361,0.0605 1.656675,0.12359 0.0014,0.0631 1.468655,0.10127 1.468655,0.10127 l 0.990062,-0.24193 -2.494218,-0.18671 c 0,0 -1.475229,-0.11176 -1.539656,-0.11701 -0.06443,-0.006 -1.184655,-0.41812 -1.184655,-0.41812 l -0.834911,-0.53383 -0.262965,-0.62849 0.06574,-0.60351 0.604819,-0.35369 0.01315,-0.23798 z"
       id="path1019" />
    <path
       style="fill:#5a2000;fill-opacity:1;stroke:none;stroke-width:0.298697px;stroke-linecap:butt;stroke-linejoin:miter;stroke-opacity:1"
       d="m 16.33044,145.39365 c 0.05786,0.005 1.296413,1.15837 1.296413,1.15837 l 1.26223,0.24456 1.304304,0.14858 1.65536,0.0973 1.529138,-0.22088 1.17019,-0.1946 0.071,-0.63244 -0.574577,-0.48912 -0.727096,-0.11833 0.05785,0.28794 0.529874,0.37342 0.128852,0.30373 -1.713214,0.0131 -1.680341,0.071 c 0,0 -1.711898,-0.0578 -1.763176,-0.0526 -0.05128,0.006 -0.940098,-0.24325 -0.940098,-0.24325 l -0.727096,-0.71921 -0.470706,-0.25902 -0.391817,-0.004 z"
       id="path1021" />
    <path
       style="fill:#5a2000;fill-opacity:1;stroke:none;stroke-width:0.298697px;stroke-linecap:butt;stroke-linejoin:miter;stroke-opacity:1"
       d="m 19.599087,145.66187 0.782319,0.21827 0.558799,-0.18539 0.628484,-0.05 -0.579836,-0.30899 -0.341854,0.0947 -0.460187,0.14726 -0.51278,-0.05 z"
       id="path1023" />
    <path
       style="fill:#5a2000;fill-opacity:1;stroke:none;stroke-width:0.298697px;stroke-linecap:butt;stroke-linejoin:miter;stroke-opacity:1"
       d="m 15.444567,142.85421 -0.02046,-0.93159 -0.0075,0.0205 0.287197,-1.18071 0.261854,0.81385 -0.05445,1.25754 z"
       id="path1037"
       sodipodi:nodetypes="ccccccc" />
    <path
       style="fill:#5a2000;fill-opacity:1;stroke:none;stroke-width:0.298697px;stroke-linecap:butt;stroke-linejoin:miter;stroke-opacity:1"
       d="m 17.674035,142.57715 0.01559,-1.16549 0.391017,0.10723 c 0,0 0.03036,1.03223 0.0173,1.08801 -0.01302,0.0558 -0.353294,-0.0781 -0.353294,-0.0781 l -0.0018,0.0205 z"
       id="path1039"
       sodipodi:nodetypes="ccccccc" />
    <path
       style="fill:#5a2000;fill-opacity:1;stroke:none;stroke-width:0.298697px;stroke-linecap:butt;stroke-linejoin:miter;stroke-opacity:1"
       d="m 23.239335,142.66268 0.07348,-1.34182 0.329308,-0.0676 -0.06623,1.26069 -0.01118,0.30123 -0.317965,-0.25102 z"
       id="path1041"
       sodipodi:nodetypes="ccccccc" />
    <path
       style="fill:#c58047;fill-opacity:1;stroke:#5a2000;stroke-width:0.750741;stroke-linecap:butt;stroke-linejoin:miter;stroke-miterlimit:4;stroke-dasharray:none;stroke-opacity:1"
       d="m 288.09937,3.8025503 c -1.01617,5.1490311 0.28003,15.8621967 0.80582,22.9692997 0.20058,2.711156 0.20561,8.176181 0.20561,8.176181 l 0.49095,5.301856 c 0,0 -2.04324,-0.139008 -2.65046,0.526277 -0.33411,0.36606 -0.16416,0.983139 -0.15557,1.478677 0.008,0.431589 0.1164,0.855446 0.18004,1.282384 0.0771,0.517434 0.0369,1.070102 0.24451,1.550286 0.35876,0.829717 1.66226,2.142695 1.66226,2.142695 l 0.80352,2.893868 0.16645,3.796444 0.0202,2.955677 -0.63645,10.695439 -0.72339,55.506036 -1.20667,2.63075 -0.41671,14.33036 c 0,0 -0.85707,4.39161 0.21384,6.13541 0.77496,1.2619 2.49287,1.65477 3.88986,2.14607 2.32644,0.81816 4.82594,1.39149 7.28894,1.26761 1.90216,-0.0957 4.0344,-0.32568 5.50256,-1.53889 0.69033,-0.57046 0.98607,-1.53455 1.19821,-2.40458 0.38414,-1.57547 0.078,-4.86425 0.078,-4.86425 l 0.0885,-25.1859 0.4196,-67.818599 -0.46955,-21.619721 c 0,0 0.49408,-17.1756518 -0.17731,-21.6270695 -0.26174,-1.7353281 -3.00618,-1.9192325 -4.70335,-2.3658765 -1.93433,-0.5090582 -3.9954,-0.3831073 -5.9935,-0.2915717 -1.57278,0.072051 -3.28693,-0.037666 -4.67696,0.6598897 -1.28098,0.5948187 -1.32431,0.639679 -1.44895,1.2712483 z"
       id="path932"
       sodipodi:nodetypes="ssccaaaaccccccccaaaaaccccsaacs" />
    <path
       style="fill:#5a2000;fill-opacity:1;stroke:none;stroke-width:0.298697px;stroke-linecap:butt;stroke-linejoin:miter;stroke-opacity:1"
       d="m 294.17717,119.83936 -0.52503,3.43006 0.59049,0.0784 z"
       id="path948" />
    <path
       style="fill:#5a2000;fill-opacity:1;stroke:none;stroke-width:0.298697px;stroke-linecap:butt;stroke-linejoin:miter;stroke-opacity:1"
       d="m 291.13885,24.356101 0.15669,0.530917 0.0233,2.339691 0.33233,-0.22293 0.2009,-2.163466 0.2518,-1.305 -0.9541,-0.01617 z"
       id="path962" />
    <path
       style="fill:#5a2000;fill-opacity:1;stroke:none;stroke-width:0.298697px;stroke-linecap:butt;stroke-linejoin:miter;stroke-opacity:1"
       d="m 293.53426,28.443488 0.47769,-1.134424 0.15208,-4.320212 -0.77962,-0.01838 z"
       id="path960" />
    <path
       style="fill:#5a2000;fill-opacity:1;stroke:none;stroke-width:0.298697px;stroke-linecap:butt;stroke-linejoin:miter;stroke-opacity:1"
       d="m 296.62649,38.27385 0.46459,-3.18438 0.22756,-12.4187 -0.55034,0.01325 -0.0895,6.937957 -0.15243,5.35388 z"
       id="path956" />
    <path
       style="fill:#5a2000;fill-opacity:1;stroke:none;stroke-width:0.298697px;stroke-linecap:butt;stroke-linejoin:miter;stroke-opacity:1"
       d="m 298.91305,28.698408 c 0,0 0.30349,-1.235922 0.3199,-1.327783 0.0165,-0.09186 0.40526,-2.492139 0.40526,-2.492139 l -0.0394,-2.238386 -0.75134,0.01947 z"
       id="path958" />
    <path
       style="fill:#5a2000;fill-opacity:1;stroke:none;stroke-width:0.298697px;stroke-linecap:butt;stroke-linejoin:miter;stroke-opacity:1"
       d="m 300.23447,38.032371 0.25667,0.17248 0.20187,0.05246 0.0336,-0.623469 0.74261,-0.903658 0.29017,-13.133742 -0.81721,-0.0043 0.0239,4.516104 -0.0214,4.186773 0.0176,3.763613 -0.16375,0.36411 -0.22019,0.481974 -0.37064,0.484155 z"
       id="path954" />
    <path
       style="fill:#5a2000;fill-opacity:1;stroke:none;stroke-width:0.298697px;stroke-linecap:butt;stroke-linejoin:miter;stroke-opacity:1"
       d="m 302.52006,23.642507 0.24063,5.139563 0.57793,-1.01476 0.002,-4.149014 z"
       id="path972" />
    <path
       style="fill:#c58047;fill-opacity:1;stroke:#5a2000;stroke-width:0.976528;stroke-linecap:butt;stroke-linejoin:miter;stroke-miterlimit:4;stroke-dasharray:none;stroke-opacity:1"
       d="M 4.8405495,12.256402 C 4.9994022,12.210364 27.89017,10.07287 32.993488,10.583643 37.016467,10.986289 45.072524,9.6765275 52.811165,8.9357842 59.844633,8.2625398 72.31589,8.6559587 72.31589,8.6559587 c 0,0 6.964657,-0.9726433 10.207766,-2.2454748 2.619743,-1.0281778 4.530307,-3.0798903 7.278265,-4.2788699 1.117878,-0.4877491 3.641331,-0.3587115 3.641331,-0.3587115 0,0 2.434526,-1.38003435 3.699795,-1.13080434 1.446759,0.28497932 2.455275,1.68917104 3.424103,2.80078944 0.2749,0.3154185 0.26878,0.9089895 0.65452,1.0710469 0.12198,0.051242 0.28145,-0.1693424 0.38677,-0.089254 0.54804,0.4167483 0.0902,2.0635053 0.0902,2.0635053 l 15.34953,0.6531911 6.93298,-0.1283361 11.63596,0.4532569 11.21281,0.4392818 19.21918,0.5057681 12.19793,0.3756258 101.12275,-0.2700939 7.18582,-0.6261758 17.85061,0.3570164 c 0,0 3.80518,-0.2102488 5.1172,0.9222873 1.15421,0.9963136 1.26655,2.8225166 1.46016,4.3349176 0.27053,2.113189 0.0858,4.313233 -0.44863,6.375538 -0.29921,1.154547 -0.6458,2.424204 -1.51401,3.24196 -1.19659,1.127059 -4.97293,1.109861 -4.00941,1.043399 0,0 -21.64731,-0.988486 -23.42159,-1.095427 -1.36639,-0.08236 -110.36414,-0.318934 -110.36414,-0.318934 l -46.66822,-1.102855 -23.6395,0.16711 c 0,0 -14.693833,0.882383 -22.218597,1.09316 -7.450632,0.208702 -16.889615,0.302904 -25.313319,0.869698 -7.28065,0.489882 -21.781918,2.186024 -21.781918,2.186024 L 19.334645,26.617803 2.5053493,27.440174 c 0,0 -2.06845989,-4.572961 -1.81503925,-6.955738 C 1.0151825,17.429837 2.6151344,11.419443 4.8405495,12.256402 Z"
       id="path79"
       sodipodi:nodetypes="csscascaaaaccccccccccaaascscccsacccac" />
    <path
       style="fill:#eaad71;fill-opacity:1;stroke:#5a2401;stroke-width:0.637848;stroke-linecap:butt;stroke-linejoin:miter;stroke-miterlimit:4;stroke-dasharray:none;stroke-opacity:1"
       d="m 95.948527,1.1293511 c 0.143519,1.900797 1.490731,3.5878796 2.923035,5.3217575 0.422861,0.5118949 1.354428,0.7230959 1.971578,0.4516177 0.34643,-0.1523937 0.51141,-0.611932 0.56098,-0.9871411 0.0865,-0.6551758 -0.20403,-1.3272325 -0.49833,-1.9189554 C 100.49734,3.1753776 99.86487,2.4691447 99.199247,1.8380867 98.640763,1.308604 98.080661,0.57652131 97.314433,0.50475023 c -0.498465,-0.0466905 -1.4036,0.1253749 -1.365906,0.62460087 z"
       id="path913"
       sodipodi:nodetypes="ssaaaaas" />
    <path
       style="fill:#5a2000;fill-opacity:1;stroke:none;stroke-width:0.298697px;stroke-linecap:butt;stroke-linejoin:miter;stroke-opacity:1"
       d="m 98.741404,6.6630863 c 0,0 -1.21167,0.6222279 -3.049483,1.8817672 -1.793294,1.2290277 -3.083223,1.3645415 -4.641159,2.0082085 -0.562731,0.232495 -1.547051,0.669405 -1.699524,0.669405 -0.152476,0 1.305324,0.03719 1.305324,0.03719 l 1.048726,-0.159912 2.47737,-1.001213 1.236561,-0.77634 1.116889,-0.7661794 c 0,0 0.364123,-0.065625 0.282307,0.094289 -0.08181,0.1599124 0.08958,1.2631158 0.08958,1.2631158 l -0.784683,1.0933586 -1.004098,0.829317 0.06695,0.156194 0.561551,-0.100407 2.42471,-2.2127502 3.886225,0.2491681 2.98997,-0.1785082 5.08742,-0.6433716 -3.50317,-0.2714793 -2.29827,0.3532965 -3.36559,0.048341 -2.372635,-0.040901 -0.687993,-0.018594 -0.472297,-1.1565806 2.447023,-0.7884081 -1.011535,-0.6879973 h -0.0186 -0.0186 z"
       id="path919"
       sodipodi:nodetypes="csascccccscccccccccccccccccccc" />
    <path
       style="fill:#5a2000;fill-opacity:1;stroke:none;stroke-width:0.298697px;stroke-linecap:butt;stroke-linejoin:miter;stroke-opacity:1"
       d="m 112.50359,9.4729852 -0.23667,1.1333858 -1.42526,0.268225 1.15967,0.09993 0.60745,-0.273486 0.43388,-0.8073073 10.65828,0.2305873 6.24962,-0.2092865 2.42404,-0.2071617 z"
       id="path921" />
    <path
       style="fill:#5a2000;fill-opacity:1;stroke:none;stroke-width:0.298697px;stroke-linecap:butt;stroke-linejoin:miter;stroke-opacity:1"
       d="m 44.161467,12.847276 1.336935,1.035717 1.400157,-0.0037 0.07438,-0.252886 1.310904,0.156194 0.23057,-0.23615 1.199338,-0.0018 c 0,0 0.838607,-0.08925 0.849764,-0.143177 0.01118,-0.05393 0.95575,-0.200821 0.95575,-0.200821 l 0.622912,0.02231 1.177025,-0.303091 -1.242105,-0.03161 -0.979924,0.16921 c 0,0 -1.483831,0.132021 -1.608416,0.146897 -0.12458,0.01488 -1.874312,0.0037 -1.874312,0.0037 0,0 -1.396439,0.176648 -1.452223,0.139459 -0.05578,-0.03719 -0.457423,-0.09856 -0.457423,-0.09856 l -0.608034,-0.468582 -0.293792,-0.269621 -0.487172,-0.0409 -0.163633,0.0279 z"
       id="path923" />
    <path
       style="fill:#5a2000;fill-opacity:1;stroke:none;stroke-width:0.298697px;stroke-linecap:butt;stroke-linejoin:miter;stroke-opacity:1"
       d="m 42.188602,15.854013 -0.185945,0.639652 c 0,0 0.256604,0.383048 0.316105,0.388627 0.05951,0.0055 1.152851,-0.0093 1.152851,-0.0093 l 0.738198,0.0093 0.725182,-0.1376 0.32912,-0.542961 0.105985,-0.706592 2.471194,-0.193384 2.381939,-0.08368 h 2.142073 l 1.918941,0.0093 6.490789,-0.112487 5.524457,-0.273144 2.528061,-0.394472 -7.204404,-0.168981 -0.241416,0.243836 -2.805845,-0.08084 -0.15278,0.21837 -12.69313,0.06575 -0.343366,0.35162 -0.711933,-0.05324 -0.07784,0.712501 0.224124,0.236485 -0.240081,0.449925 -1.958564,0.06342 -0.06407,-0.670307 z"
       id="path925" />
    <path
       style="fill:#5a2000;fill-opacity:1;stroke:none;stroke-width:0.298697px;stroke-linecap:butt;stroke-linejoin:miter;stroke-opacity:1"
       d="m 129.4752,19.866456 3.39162,-0.291934 3.03088,0.02231 2.65343,-0.0018 1.55076,0.03161 1.07662,-0.107847 1.77576,-1.545207 0.73448,-0.0502 0.14689,0.561555 -0.65824,0.358875 -1.13425,1.005964 -1.22537,0.304951 -4.30088,0.05578 -3.22985,-0.03347 -3.32096,0.04091 -0.6006,-0.0055 0.18037,-0.319826 z"
       id="path927" />
    <path
       style="fill:#5a2000;fill-opacity:1;stroke:none;stroke-width:0.298697px;stroke-linecap:butt;stroke-linejoin:miter;stroke-opacity:1"
       d="m 143.72841,19.284655 2.08071,-0.14318 2.64784,0.09483 3.82115,-0.01118 2.2648,-0.0037 0.49274,-0.06136 1.88733,0.0018 0.25475,0.390485 -0.2157,0.570853 -0.36817,0.100407 -0.20639,-0.64895 -3.80255,0.288216 -2.41356,-0.06508 -2.32243,0.03534 -2.07699,0.02046 -0.98179,-0.124584 -0.74192,-0.119004 -0.43356,-0.03003 z"
       id="path929" />
    <path
       style="fill:#5a2000;fill-opacity:1;stroke:none;stroke-width:0.298697px;stroke-linecap:butt;stroke-linejoin:miter;stroke-opacity:1"
       d="m 158.01771,21.123489 0.49461,-0.09112 0.35888,-0.931586 2.14021,-0.02417 1.7739,-0.03532 2.38008,-0.197103 1.26628,-0.09483 0.22871,-0.297513 -3.81929,-0.03161 -3.22612,0.0093 -0.82374,-0.191523 -0.22313,0.552257 c 0,0 -0.51507,0.661967 -0.53366,0.71589 -0.0186,0.05393 -0.11342,0.40908 -0.11342,0.40908 z"
       id="path931" />
    <path
       style="fill:#5a2000;fill-opacity:1;stroke:none;stroke-width:0.298697px;stroke-linecap:butt;stroke-linejoin:miter;stroke-opacity:1"
       d="m 165.29052,20.654408 3.59057,0.104133 2.39311,0.384907 1.31275,0.104133 1.05244,-0.0093 0.28079,0.316107 -2.21273,0.05578 -1.64562,-0.0502 -1.9208,-0.226849 -1.53961,-0.06508 -1.04128,-0.02417 -0.30867,-0.297513 z"
       id="path933" />
    <path
       style="fill:#5a2000;fill-opacity:1;stroke:none;stroke-width:0.298697px;stroke-linecap:butt;stroke-linejoin:miter;stroke-opacity:1"
       d="m 177.93422,21.290909 3.05506,-0.433252 4.05358,-0.04834 2.75383,0.30495 1.82596,0.04834 1.42434,0.284498 1.45966,0.04276 -0.6787,0.617339 h -1.63444 l -1.64189,-0.297515 -1.99704,-0.178507 -2.90258,-0.152476 -3.00485,0.02232 -2.19414,0.02231 z"
       id="path935" />
    <path
       style="fill:#e7ab74;fill-opacity:1;stroke:#5a2000;stroke-width:0.750741;stroke-linecap:butt;stroke-linejoin:miter;stroke-miterlimit:4;stroke-dasharray:none;stroke-opacity:1"
       d="m 305.92132,23.6737 c -0.34502,-0.200796 -0.46886,-0.66913 -0.56275,-1.057125 -0.44536,-1.840437 0.0815,-5.680076 0.0815,-5.680076 0,0 0.14605,-3.251327 0.73105,-4.738657 0.51924,-1.320167 0.97231,-3.480665 2.39034,-3.5211203 1.23375,-0.0352 1.79482,1.7931043 2.25098,2.9399643 0.52276,1.314319 0.48624,2.806929 0.43915,4.220611 -0.0496,1.488949 -0.31407,2.98239 -0.75735,4.404689 -0.3027,0.971236 -0.54271,2.071531 -1.28325,2.769038 -0.40855,0.384811 -1.0173,0.503398 -1.56727,0.615341 -0.56281,0.114557 -1.226,0.336235 -1.7224,0.04734 z"
       id="path939"
       sodipodi:nodetypes="aacaaaaaaaa" />
    <path
       style="fill:#5a2000;fill-opacity:1;stroke:none;stroke-width:0.298697px;stroke-linecap:butt;stroke-linejoin:miter;stroke-opacity:1"
       d="m 96.334927,19.544021 c -0.01673,0.05578 3.33955,0.198963 3.33955,0.198963 l -0.849764,0.427674 -1.119382,0.03533 -1.06174,-0.01674 z"
       id="path941" />
    <path
       style="fill:#5a2000;fill-opacity:1;stroke:none;stroke-width:0.298697px;stroke-linecap:butt;stroke-linejoin:miter;stroke-opacity:1"
       d="m 79.379425,18.735418 c 0,0 0.379324,1.902221 0.370026,1.974739 -0.0093,0.07252 3.038323,0.23801 3.038323,0.23801 h 4.1763 l 3.18522,-0.358873 2.545572,-0.249167 -4.258117,0.06508 c 0,0 -2.670151,0.139458 -2.738951,0.117145 -0.0688,-0.02231 -4.252539,-0.09856 -4.252539,-0.09856 l -0.937156,-0.17293 -0.820014,-1.667929 -0.226851,0.122723 z"
       id="path943" />
    <path
       style="fill:#5a2000;fill-opacity:1;stroke:none;stroke-width:0.298697px;stroke-linecap:butt;stroke-linejoin:miter;stroke-opacity:1"
       d="m 77.771386,19.998563 -5.552284,0.159914 -0.15991,0.840473 -0.812577,0.652667 0.262182,0.338421 0.392342,-0.290074 0.401639,-0.433253 0.329121,-0.559695 z"
       id="path945" />
    <path
       style="fill:#5a2000;fill-opacity:1;stroke:none;stroke-width:0.298697px;stroke-linecap:butt;stroke-linejoin:miter;stroke-opacity:1"
       d="m 70.71555,20.497624 -1.162302,-0.489117 -1.872306,0.475969 -1.04923,0.289263 -2.676975,-0.110444 -3.642058,0.191967 -2.966236,0.15252 c 0,0 -5.799027,0.20163 -5.908777,0.209961 -0.109744,0.0084 -2.500985,-0.200588 -2.500985,-0.200588 l -1.702819,0.484609 7.048303,0.0636 4.803298,-0.158817 4.466198,-0.05831 2.706551,-0.257649 3.152151,-0.255558 0.706822,0.2593 0.43045,-0.193414 z"
       id="path947" />
    <path
       style="fill:#5a2000;fill-opacity:1;stroke:none;stroke-width:0.298697px;stroke-linecap:butt;stroke-linejoin:miter;stroke-opacity:1"
       d="m 35.074642,21.986586 0.228779,-1.375314 5.443364,-0.544341 2.595457,-0.331338 c 0,0 -0.894079,0.449672 -0.978227,0.441784 -0.08415,-0.0079 -2.182605,0.368152 -2.274642,0.39445 -0.09204,0.02629 -2.072157,0.142002 -2.072157,0.142002 l -1.141268,0.197224 c 0,0 -0.844113,1.015052 -0.930893,1.057126 -0.08678,0.04208 -0.870413,0.0184 -0.870413,0.0184 z"
       id="path949" />
    <path
       style="fill:#5a2000;fill-opacity:1;stroke:none;stroke-width:0.298697px;stroke-linecap:butt;stroke-linejoin:miter;stroke-opacity:1"
       d="m 36.818096,22.993747 2.853164,-0.617972 4.696543,-0.262963 c 0,0 -1.83023,0.489116 -1.924899,0.462819 -0.09466,-0.02628 -2.371939,0.155149 -2.371939,0.155149 l -1.425267,0.407599 -1.727676,0.04734 z"
       id="path951" />
    <path
       style="fill:#5a2000;fill-opacity:1;stroke:none;stroke-width:0.298697px;stroke-linecap:butt;stroke-linejoin:miter;stroke-opacity:1"
       d="m 33.407449,21.56584 0.738929,-0.02628 -0.165666,-1.046606 -2.577052,-0.191966 -1.422638,0.391821 1.611974,0.181447 1.767119,-0.220893 z"
       id="path953" />
    <path
       style="fill:#5a2000;fill-opacity:1;stroke:none;stroke-width:0.298697px;stroke-linecap:butt;stroke-linejoin:miter;stroke-opacity:1"
       d="m 2.4808051,15.138093 -0.160282,2.633031 1.4804888,-0.04208 -0.2392966,0.652156 c 0,0 -0.9361522,0.02629 -1.0229314,0.01315 -0.086779,-0.01315 -0.4470397,0.491747 -0.4470397,0.491747 l -0.081519,1.41213 0.3313349,0.260337 4.8227656,-0.252448 -5.2855822,1.312203 0.6153364,2.947855 c 0,0 2.6427926,-0.610083 2.6375322,-0.373413 -0.00526,0.23667 -2.0563817,0.941418 -2.0563817,0.941418 L 3.3224171,26.548948 2.8148954,26.932878 1.2265915,23.338127 0.91366379,19.832785 1.6184084,16.737669 2.239004,15.430725 Z"
       id="path955"
       sodipodi:nodetypes="cccccccccccscccccccc" />
    <path
       style="fill:#fcb20e;fill-opacity:1;stroke:#5a2000;stroke-width:0.637848;stroke-linecap:butt;stroke-linejoin:miter;stroke-miterlimit:4;stroke-dasharray:none;stroke-opacity:1"
       d="m 10.183379,12.290647 c 0.659881,1.171099 2.428974,1.167769 3.560536,1.893359 0.907625,0.581995 1.777076,1.233084 2.571792,1.96173 1.864206,1.709219 3.394974,3.749859 5.106766,5.611703 1.457506,1.585269 2.42275,3.872784 4.396766,4.733397 0.282835,0.123307 0.694901,0.204848 0.925633,0 0.28782,-0.255533 0.232341,-0.773708 0.136744,-1.146534 -0.753143,-2.937235 -3.262282,-5.146098 -5.290844,-7.399875 -1.615039,-1.794343 -3.468254,-3.382196 -5.417067,-4.807028 -0.962863,-0.703976 -1.98013,-1.356652 -3.074961,-1.829972 -0.40994,-0.177228 -0.841335,-0.364016 -1.287913,-0.369357 -0.54251,-0.0064 -1.231343,-0.0088 -1.574859,0.411157 -0.198997,0.243274 -0.206882,0.6676 -0.0526,0.94142 z"
       id="path957"
       sodipodi:nodetypes="aaaaaaaaaaaaaa" />
    <path
       style="fill:#fcb20e;fill-opacity:1;stroke:#682d09;stroke-width:0.637848;stroke-linecap:butt;stroke-linejoin:miter;stroke-miterlimit:4;stroke-dasharray:none;stroke-opacity:1"
       d="m 9.7258217,26.490836 c 0.3231113,-2.16769 2.0526813,-3.881241 3.2660153,-5.706372 0.809288,-1.217354 1.6703,-2.411834 2.666459,-3.481676 1.396399,-1.499686 3.001877,-2.795751 4.601877,-4.07598 1.228616,-0.983071 2.343544,-2.241471 3.828758,-2.761149 0.684203,-0.239403 1.54311,-0.465509 2.172087,-0.105183 0.334759,0.191776 0.606212,0.64613 0.536449,1.02557 -0.346508,1.884631 -2.923202,2.482395 -4.302097,3.813014 -1.743549,1.682505 -3.397119,3.458318 -5.012101,5.264589 -0.892434,0.998138 -1.690569,2.077951 -2.58231,3.076708 -0.954729,1.069302 -1.886126,2.170309 -2.960979,3.118784 -0.32811,0.289532 -0.62303,0.723104 -1.057115,0.778378 -0.369115,0.047 -0.79448,-0.132496 -1.0360803,-0.415488 C 9.7288743,26.88392 9.699049,26.67045 9.7258217,26.490836 Z"
       id="path959"
       sodipodi:nodetypes="aaaaaaaaaaaaaa" />
    <path
       style="display:inline;mix-blend-mode:normal;fill:#fcb20e;fill-opacity:1;stroke:#5a2000;stroke-width:0.637848;stroke-linecap:butt;stroke-linejoin:miter;stroke-miterlimit:4;stroke-dasharray:none;stroke-opacity:1"
       d="m 288.06271,8.6109737 c 0.57608,1.2145121 2.34106,1.3353161 3.41892,2.1385103 0.86455,0.644242 1.68617,1.35473 2.42782,2.137339 1.73967,1.835805 3.12349,3.978819 4.70044,5.95618 1.34268,1.683625 2.14505,4.033227 4.05382,5.030221 0.27347,0.142847 0.67882,0.253099 0.92334,0.06495 0.30505,-0.234709 0.28606,-0.755499 0.21686,-1.134114 -0.5452,-2.982839 -2.89318,-5.362307 -4.75861,-7.75286 -1.48515,-1.903236 -3.2224,-3.617204 -5.06645,-5.1752572 -0.91108,-0.7697986 -1.88006,-1.4922408 -2.93897,-2.0412109 -0.3965,-0.205553 -0.81373,-0.4221503 -1.25882,-0.4588102 -0.54073,-0.04448 -1.22771,-0.09518 -1.59984,0.2996463 -0.21557,0.2287118 -0.2532,0.6514401 -0.11852,0.9354088 z"
       id="path957-3"
       sodipodi:nodetypes="aaaaaaaaaaaaaa" />
    <path
       style="display:inline;mix-blend-mode:normal;fill:#fcb20e;fill-opacity:1;stroke:#682d09;stroke-width:0.637848;stroke-linecap:butt;stroke-linejoin:miter;stroke-miterlimit:4;stroke-dasharray:none;stroke-opacity:1"
       d="m 286.60995,22.744063 c 0.4744,-2.139678 2.31994,-3.727655 3.65835,-5.463156 0.8927,-1.157572 1.83541,-2.288696 2.90417,-3.286009 1.49818,-1.398014 3.19062,-2.57824 4.87652,-3.743055 1.29456,-0.8944422 2.49503,-2.0715148 4.01304,-2.4857049 0.69932,-0.1908068 1.57198,-0.3560929 2.17413,0.047472 0.32047,0.2147898 0.55937,0.6870704 0.46316,1.0606798 -0.47788,1.8556731 -3.09017,2.2711751 -4.55903,3.5017691 -1.8573,1.556025 -3.63139,3.211442 -5.36913,4.89995 -0.96027,0.933063 -1.83219,1.954215 -2.79181,2.887944 -1.02739,0.99968 -2.03376,2.032623 -3.1725,2.903346 -0.34762,0.265798 -0.67224,0.677608 -1.10913,0.702289 -0.37151,0.02099 -0.78323,-0.187911 -1.00438,-0.487158 -0.10792,-0.146043 -0.1227,-0.36108 -0.0834,-0.538373 z"
       id="path959-6"
       sodipodi:nodetypes="aaaaaaaaaaaaaa" />
    <path
       style="fill:#5a2000;fill-opacity:1;stroke:none;stroke-width:0.298697px;stroke-linecap:butt;stroke-linejoin:miter;stroke-opacity:1"
       d="m 308.21545,10.443928 c 0,0 -0.59956,1.283277 -0.6653,1.475242 -0.0657,0.191966 -0.27874,2.763779 -0.27874,2.763779 l -0.0815,1.859172 -0.25244,1.454205 -0.17093,1.751357 0.002,1.412131 0.34185,0.615339 0.48386,0.0079 0.53908,-0.415488 -0.6916,-0.13148 -0.24456,-0.857272 0.14463,-2.108991 0.2393,-3.134561 0.19722,-2.35092 0.68634,-1.88021 0.26559,-0.481229 z"
       id="path1013" />
    <path
       style="fill:#5a2000;fill-opacity:1;stroke:none;stroke-width:0.298697px;stroke-linecap:butt;stroke-linejoin:miter;stroke-opacity:1"
       d="m 308.41004,16.121374 -0.22615,1.827618 0.092,0.531192 c 0,0 0.3287,-0.47597 0.3103,-0.636379 -0.0184,-0.160409 0.10781,-0.589045 0.10781,-0.589045 l 0.15778,-0.678453 -0.0894,-0.47334 z"
       id="path1015" />
    <path
       style="fill:#5a2000;fill-opacity:1;stroke:none;stroke-width:0.298697px;stroke-linecap:butt;stroke-linejoin:miter;stroke-opacity:1"
       d="m 308.59412,12.516104 -0.26297,0.688973 0.18407,0.489117 0.38131,-0.431265 0.0263,-0.673195 z"
       id="path1017" />
    <path
       style="fill:#5a2000;fill-opacity:1;stroke:none;stroke-width:0.298697px;stroke-linecap:butt;stroke-linejoin:miter;stroke-opacity:1"
       d="m 15.026548,5.0771363 0.168297,1.2333128 -0.0053,0.5246178 0.315558,0.6442677 0.260334,-0.6442677 -0.08809,-2.0682312 z"
       id="path880" />
    <path
       style="fill:#5a2000;fill-opacity:1;stroke:none;stroke-width:0.298697px;stroke-linecap:butt;stroke-linejoin:miter;stroke-opacity:1"
       d="m 18.764587,3.9476953 c 0,0 0.276111,1.245146 0.269537,1.2832762 -0.0065,0.03813 0.202484,1.2648686 0.202484,1.2648686 L 19.591609,5.1915266 19.848,4.2106616 19.808555,3.7609888 18.846106,3.934547 Z"
       id="path882"
       sodipodi:nodetypes="cccccccc" />
    <path
       style="fill:#5a2000;fill-opacity:1;stroke:none;stroke-width:0.298697px;stroke-linecap:butt;stroke-linejoin:miter;stroke-opacity:1"
       d="m 22.55709,4.0524739 0.07495,1.2859059 0.07232,1.0281989 0.02498,0.8585858 0.286631,0.207743 0.185389,-1.1465335 c 0,0 0.05786,-0.8993454 0.04602,-0.9493091 -0.01183,-0.049963 0.123594,-0.7086945 0.123594,-0.7086945 l 0.151204,-0.4260055 z"
       id="path884" />
    <path
       style="fill:#5a2000;fill-opacity:1;stroke:none;stroke-width:0.298697px;stroke-linecap:butt;stroke-linejoin:miter;stroke-opacity:1"
       d="m 13.436216,26.937209 0.05951,1.501509 0.125512,0.419307 -0.08368,1.557292 0.07066,0.689859 0.108072,0.553528 -0.01401,2.699633 -0.171081,2.091314 0.04629,0.927552 0.755277,0.951746 0.104336,-0.829629 -0.349481,-0.710543 0.06888,-2.893961 -0.01039,-3.351462 0.06171,-2.589953 -0.03189,-1.139542 z"
       id="path886" />
    <path
       style="fill:#5a2000;fill-opacity:1;stroke:none;stroke-width:0.298697px;stroke-linecap:butt;stroke-linejoin:miter;stroke-opacity:1"
       d="m 16.28699,26.811298 0.03901,2.357435 0.19386,1.15906 0.132918,1.401589 0.08905,2.307435 -0.131466,0.596814 -0.674765,0.814475 -0.09077,0.435558 0.262139,0.206319 1.083861,-1.38651 0.008,-1.323115 -0.171835,-3.63387 -0.0045,-3.006326 z"
       id="path888" />
    <path
       style="fill:#5a2000;fill-opacity:1;stroke:none;stroke-width:0.298697px;stroke-linecap:butt;stroke-linejoin:miter;stroke-opacity:1"
       d="m 19.273973,26.723394 0.48362,2.854229 0.227001,-0.200443 0.208191,-0.476922 -0.202615,-2.202151 z"
       id="path890" />
    <path
       style="fill:#5a2000;fill-opacity:1;stroke:none;stroke-width:0.298697px;stroke-linecap:butt;stroke-linejoin:miter;stroke-opacity:1"
       d="m 22.931582,26.754229 0.05857,2.540014 c 0,0 0.19524,1.860385 0.155262,2.003563 -0.03998,0.143177 -0.100215,2.543615 -0.100215,2.543615 L 23.441065,33.357 23.578215,29.417515 23.474816,27.954811 23.6452,26.700453 Z"
       id="path892" />
    <path
       style="fill:#5a2000;fill-opacity:1;stroke:none;stroke-width:0.298697px;stroke-linecap:butt;stroke-linejoin:miter;stroke-opacity:1"
       d="m 24.661537,26.629956 c 0,0 0.04091,2.978845 0.03626,3.057871 -0.0046,0.07903 0.326332,-0.348647 0.326332,-0.348647 l 0.0437,-0.761447 0.288214,-1.762762 -0.187804,-0.191523 z"
       id="path894" />
    <path
       style="fill:#5a2000;fill-opacity:1;stroke:none;stroke-width:0.298697px;stroke-linecap:butt;stroke-linejoin:miter;stroke-opacity:1"
       d="m 18.660405,35.689861 -1.191227,1.118922 0.284001,1.153109 0.03682,5.239607 0.586411,-0.473342 0.0065,-5.477589 0.532502,-0.99007 -0.219574,-0.600878 z"
       id="path896" />
    <path
       style="fill:#5a2000;fill-opacity:1;stroke:none;stroke-width:0.298697px;stroke-linecap:butt;stroke-linejoin:miter;stroke-opacity:1"
       d="m 15.117476,38.373804 -0.06574,0.629806 -0.535133,0.312929 0.142001,5.436833 -0.0029,2.252173 0.343167,0.378673 0.209058,-3.897164 -0.169135,-3.326411 0.260334,-0.557489 0.189335,-1.08605 c 0,0 -0.372094,-0.110444 -0.331335,-0.128856 0.04077,-0.0184 -0.03963,-0.01445 -0.03963,-0.01445 z"
       id="path898" />
    <path
       style="fill:#5a2000;fill-opacity:1;stroke:none;stroke-width:0.298697px;stroke-linecap:butt;stroke-linejoin:miter;stroke-opacity:1"
       d="m 14.776874,123.68935 c -0.03155,0.10387 0.206428,-5.15283 0.206428,-5.15283 l 0.642947,5.3895 -0.779689,-0.23667 z"
       id="path900" />
    <path
       style="fill:#5a2000;fill-opacity:1;stroke:none;stroke-width:0.298697px;stroke-linecap:butt;stroke-linejoin:miter;stroke-opacity:1"
       d="m 16.507852,123.90875 c -0.0237,0.0197 -0.0842,-1.57254 -0.0842,-1.57254 l 0.52724,0.025 0.26823,1.38058 -0.18802,0.26691 c 0,0 -0.50884,-0.23667 -0.51015,-0.19065 -0.001,0.046 -0.0131,0.0907 -0.0131,0.0907 z"
       id="path902" />
    <path
       style="fill:#5a2000;fill-opacity:1;stroke:none;stroke-width:0.298697px;stroke-linecap:butt;stroke-linejoin:miter;stroke-opacity:1"
       d="m 19.183902,123.85686 1.025481,0.0102 -0.638717,-3.77934 -0.233097,-2.42387 -0.04569,-1.43213 1.353162,0.0819 0.259436,-0.1426 0.204777,-0.25264 -0.132599,-0.65807 -0.318631,-0.65527 -0.795211,-0.0829 3.28e-4,0.36033 0.563442,0.594 -0.0054,0.28881 -0.116979,0.11482 -1.251188,-0.46526 -0.418144,-0.009 0.263521,4.37271 z"
       id="path904" />
    <path
       style="fill:#5a2000;fill-opacity:1;stroke:none;stroke-width:0.298697px;stroke-linecap:butt;stroke-linejoin:miter;stroke-opacity:1"
       d="m 22.753796,123.8466 0.830431,0.003 -0.452577,-3.78504 z"
       id="path906" />
    <path
       style="fill:#5a2000;fill-opacity:1;stroke:none;stroke-width:0.298697px;stroke-linecap:butt;stroke-linejoin:miter;stroke-opacity:1"
       d="m 25.771948,123.48515 0.342001,-3.40391 0.504141,3.1109 z"
       id="path908" />
    <path
       style="fill:#5a2000;fill-opacity:1;stroke:none;stroke-width:0.298697px;stroke-linecap:butt;stroke-linejoin:miter;stroke-opacity:1"
       d="m 19.337316,114.30335 -1.009783,-0.45887 0.07495,-0.71396 0.222205,-0.38393 0.33528,-0.32213 0.439151,-0.22615 0.415484,-0.18934 0.04734,-2.67174 0.365521,0.48255 0.209057,1.10446 0.01183,0.69291 0.0026,0.8152 -0.117018,0.4523 -0.690282,-0.39839 -0.456243,0.17092 -0.191964,0.2301 c 0,0 -0.08678,0.24982 -0.09992,0.28795 -0.01315,0.0381 0.08415,0.42864 0.08415,0.42864 l 0.163038,0.23666 z"
       id="path910" />
    <path
       style="fill:#5a2000;fill-opacity:1;stroke:none;stroke-width:0.298697px;stroke-linecap:butt;stroke-linejoin:miter;stroke-opacity:1"
       d="m 298.84012,111.00069 -0.47121,2.53741 0.0858,0.71593 0.70173,0.50937 0.21134,0.46345 -0.15309,0.36058 -1.76658,0.0429 -0.3807,1.24282 -0.11723,7.61823 0.74995,0.0226 0.007,-8.25727 1.54095,-0.0237 0.55053,-0.31284 0.17024,-0.64735 -0.005,-0.4887 -0.42041,-0.36034 -0.52828,-0.24821 -0.0571,-3.51345 z"
       id="path946" />
    <path
       style="fill:#5a2000;fill-opacity:1;stroke:none;stroke-width:0.298697px;stroke-linecap:butt;stroke-linejoin:miter;stroke-opacity:1"
       d="m 291.83074,114.36761 -1.04402,11.09716 1.05168,0.0513 z"
       id="path950" />
    <path
       style="fill:#5a2000;fill-opacity:1;stroke:none;stroke-width:0.298697px;stroke-linecap:butt;stroke-linejoin:miter;stroke-opacity:1"
       d="m 302.32389,105.3547 -0.52564,3.20547 -0.0791,5.08587 0.0225,5.02657 -0.30002,4.08689 -0.0857,0.54988 -0.10138,1.68304 0.71576,0.0461 0.13574,-2.5921 0.18105,-5.89579 0.0102,-7.49742 z"
       id="path944" />
    <path
       style="fill:#c58047;fill-opacity:1;stroke:#5a2000;stroke-width:1.20231;stroke-linecap:butt;stroke-linejoin:miter;stroke-miterlimit:4;stroke-dasharray:none;stroke-opacity:1"
       d="m 4.4767499,138.44413 c 0,0 -1.4713344,-0.50593 -1.982161,-1.05244 -0.6073949,-0.64983 -0.8793379,-1.57161 -1.089631,-2.43589 -0.2377711,-0.97721 -0.2188932,-2.00773 -0.171069,-3.01232 0.045977,-0.96579 0.1978184,-1.9309 0.438828,-2.86727 0.2554418,-0.99244 0.6154485,-1.96248 1.05988,-2.88588 0.2648778,-0.55034 0.950176,-1.56667 0.950176,-1.56667 l 3.683545,-0.1775 22.0492271,-0.57271 114.343945,-0.90876 20.21188,0.31081 23.44034,0.0767 20.53931,-0.11826 17.71489,0.13076 21.96894,0.34006 24.40366,0.247 12.521,-0.0594 3.35327,-0.46809 c 0,0 13.76485,-0.22145 20.43735,0.12789 0.8879,0.0465 1.69893,0.76226 2.21478,1.48645 0.69105,0.97016 0.75804,2.27385 0.91234,3.45494 0.1553,1.18868 0.18048,2.41033 0.006,3.59633 -0.1605,1.0904 -0.54932,2.14104 -0.95794,3.16464 -0.26789,0.67107 -0.50043,1.3906 -0.97341,1.93685 -0.47662,0.55046 -1.11069,0.99151 -1.79139,1.25001 -0.82252,0.31235 -1.74193,0.32622 -2.62157,0.30713 -1.51761,-0.0329 -4.49574,-0.72557 -4.49574,-0.72557 l -21.04307,-0.36553 -24.21665,0.20035 -28.48831,-0.23076 -27.16117,-0.0606 -26.99774,0.24953 -26.64101,-0.23651 -115.585315,0.18982 z"
       id="path912"
       sodipodi:nodetypes="caaaaaccccccccccccsaaaaaaaccccccccc" />
    <path
       style="display:inline;opacity:1;mix-blend-mode:normal;fill:#fcb20e;fill-opacity:1;stroke:#5a2000;stroke-width:0.637848;stroke-linecap:butt;stroke-linejoin:miter;stroke-miterlimit:4;stroke-dasharray:none;stroke-opacity:1"
       d="m 11.370613,124.86182 c 0.659881,1.1711 2.428979,1.16777 3.560539,1.89336 0.90763,0.58199 1.77708,1.23308 2.57179,1.96173 1.86421,1.70922 3.39498,3.74986 5.10677,5.6117 1.45751,1.58527 2.42275,3.87278 4.39677,4.7334 0.28283,0.1233 0.6949,0.20484 0.92563,0 0.28782,-0.25554 0.23234,-0.77371 0.13674,-1.14654 -0.75314,-2.93723 -3.26228,-5.1461 -5.29084,-7.39987 -1.61504,-1.79435 -3.46826,-3.3822 -5.41707,-4.80703 -0.96286,-0.70398 -1.98013,-1.35665 -3.07496,-1.82997 -0.40994,-0.17723 -0.841339,-0.36402 -1.287917,-0.36936 -0.54251,-0.006 -1.231343,-0.009 -1.574858,0.41116 -0.198997,0.24327 -0.206883,0.6676 -0.0526,0.94142 z"
       id="path957-6"
       sodipodi:nodetypes="aaaaaaaaaaaaaa" />
    <path
       style="display:inline;opacity:1;mix-blend-mode:normal;fill:#fcb20e;fill-opacity:1;stroke:#682d09;stroke-width:0.637848;stroke-linecap:butt;stroke-linejoin:miter;stroke-miterlimit:4;stroke-dasharray:none;stroke-opacity:1"
       d="m 10.913056,139.06201 c 0.323111,-2.16769 2.052681,-3.88124 3.266016,-5.70638 0.80929,-1.21735 1.6703,-2.41183 2.66646,-3.48167 1.3964,-1.49969 3.00188,-2.79575 4.60188,-4.07598 1.22862,-0.98307 2.34354,-2.24147 3.82876,-2.76115 0.6842,-0.2394 1.54311,-0.46551 2.17209,-0.10518 0.33475,0.19177 0.60621,0.64613 0.53644,1.02557 -0.3465,1.88463 -2.9232,2.48239 -4.30209,3.81301 -1.74355,1.68251 -3.39712,3.45832 -5.0121,5.26459 -0.89244,0.99814 -1.69057,2.07795 -2.58231,3.07671 -0.95473,1.0693 -1.88613,2.17031 -2.960988,3.11878 -0.32811,0.28953 -0.62303,0.72311 -1.057114,0.77838 -0.369116,0.047 -0.794481,-0.1325 -1.036081,-0.41549 -0.11791,-0.13811 -0.147736,-0.35158 -0.120963,-0.53119 z"
       id="path959-7"
       sodipodi:nodetypes="aaaaaaaaaaaaaa" />
    <path
       style="display:inline;mix-blend-mode:normal;fill:#fcb20e;fill-opacity:1;stroke:#5a2000;stroke-width:0.637848;stroke-linecap:butt;stroke-linejoin:miter;stroke-miterlimit:4;stroke-dasharray:none;stroke-opacity:1"
       d="m 287.5568,123.74079 c 0.65988,1.1711 2.42897,1.16777 3.56053,1.89336 0.90763,0.582 1.77708,1.23309 2.57179,1.96173 1.86421,1.70922 3.39498,3.74986 5.10677,5.61171 1.45751,1.58526 2.42275,3.87278 4.39677,4.73339 0.28283,0.12331 0.6949,0.20485 0.92563,0 0.28783,-0.25553 0.23234,-0.7737 0.13674,-1.14653 -0.75313,-2.93724 -3.26228,-5.1461 -5.29084,-7.39988 -1.61504,-1.79434 -3.46825,-3.38219 -5.41707,-4.80702 -0.96286,-0.70398 -1.98012,-1.35666 -3.07495,-1.82998 -0.40995,-0.17722 -0.84134,-0.36401 -1.28792,-0.36935 -0.54251,-0.006 -1.23134,-0.009 -1.57486,0.41115 -0.19899,0.24328 -0.20688,0.6676 -0.0526,0.94142 z"
       id="path957-6-5"
       sodipodi:nodetypes="aaaaaaaaaaaaaa" />
    <path
       style="display:inline;mix-blend-mode:normal;fill:#fcb20e;fill-opacity:1;stroke:#682d09;stroke-width:0.637848;stroke-linecap:butt;stroke-linejoin:miter;stroke-miterlimit:4;stroke-dasharray:none;stroke-opacity:1"
       d="m 287.09924,137.94098 c 0.32311,-2.16769 2.05268,-3.88124 3.26602,-5.70637 0.80929,-1.21735 1.6703,-2.41183 2.66645,-3.48167 1.3964,-1.49969 3.00188,-2.79576 4.60188,-4.07599 1.22861,-0.98307 2.34355,-2.24147 3.82876,-2.76114 0.6842,-0.23941 1.54311,-0.46551 2.17208,-0.10519 0.33477,0.19178 0.60622,0.64613 0.53645,1.02557 -0.3465,1.88463 -2.92319,2.4824 -4.30209,3.81302 -1.74354,1.6825 -3.39712,3.45832 -5.0121,5.26459 -0.89244,0.99813 -1.69057,2.07795 -2.58231,3.0767 -0.95473,1.06931 -1.88613,2.17031 -2.96098,3.11879 -0.32811,0.28953 -0.62303,0.7231 -1.05712,0.77838 -0.36911,0.047 -0.79447,-0.1325 -1.03607,-0.41549 -0.11792,-0.13811 -0.14774,-0.35158 -0.12097,-0.5312 z"
       id="path959-7-3"
       sodipodi:nodetypes="aaaaaaaaaaaaaa" />
    <path
       style="fill:#e7ab74;fill-opacity:1;stroke:#5a2000;stroke-width:0.863635;stroke-linecap:butt;stroke-linejoin:miter;stroke-miterlimit:4;stroke-dasharray:none;stroke-opacity:1"
       d="m 308.63777,123.71315 c -0.69505,0.26408 -1.14387,0.98617 -1.53475,1.61867 -0.40354,0.65295 -0.55337,1.43297 -0.78599,2.16445 -0.23687,0.74488 -0.46629,1.4951 -0.61969,2.26152 -0.15569,0.77794 -0.24576,1.56945 -0.3029,2.36076 -0.0539,0.74566 -0.0635,1.49536 -0.0371,2.2425 0.0226,0.64281 0.0703,1.28653 0.16755,1.92236 0.0802,0.52456 0.0974,1.08385 0.34194,1.55482 0.20368,0.39231 0.46785,0.86596 0.89542,0.97814 0.70164,0.1841 1.48312,-0.24818 2.06818,-0.67701 0.50986,-0.3737 0.80161,-0.98663 1.10522,-1.5411 0.39973,-0.73004 0.69572,-1.5191 0.92563,-2.31903 0.28887,-1.0051 0.49767,-2.04286 0.56156,-3.08669 0.059,-0.96548 -0.0429,-1.93778 -0.16735,-2.89703 -0.11693,-0.90175 -0.18105,-1.83902 -0.54248,-2.6734 -0.28866,-0.66636 -0.64488,-1.39231 -1.26116,-1.77645 -0.2333,-0.14543 -0.63594,0.0769 -0.81403,-0.13251 0,0 0,0 0,0 z"
       id="path982"
       sodipodi:nodetypes="aaaaaaaaaaaaaaaaaa" />
    <path
       style="fill:#5a2000;fill-opacity:1;stroke:none;stroke-width:0.298697px;stroke-linecap:butt;stroke-linejoin:miter;stroke-opacity:1"
       d="m 308.68762,126.21894 -0.5411,0.0502 -0.30681,0.43511 -0.44441,0.83861 -0.33842,1.0134 -0.0986,0.81816 -0.0837,0.72147 -0.0558,0.67684 -0.065,0.90928 -0.10409,1.06918 -0.0186,1.03758 -0.0186,0.66568 -0.054,0.64337 0.30867,0.43697 0.57271,0.0279 -0.013,-0.39792 -0.31239,-0.37747 0.003,-1.9766 0.21198,-1.72929 -0.0577,-1.13241 0.17107,-1.23653 0.35887,-0.96506 0.4035,-0.67312 0.51506,-0.43511 -0.0279,-0.47788 z"
       id="path984" />
    <path
       style="fill:#5a2000;fill-opacity:1;stroke:none;stroke-width:0.298697px;stroke-linecap:butt;stroke-linejoin:miter;stroke-opacity:1"
       d="m 308.79074,127.8122 -0.16362,0.29008 -0.3096,0.37096 -0.16736,0.31889 -0.11527,0.44999 -0.081,0.42303 -0.14224,0.58387 0.006,0.36073 0.0233,0.36073 c 0,0 0.3942,-0.39141 0.38305,-0.43232 -0.0113,-0.0409 0.0957,-0.44534 0.0957,-0.44534 0,0 0.0158,-0.46765 0.002,-0.52157 -0.014,-0.0539 0.16456,-0.5504 0.16456,-0.5504 l 0.16363,-0.43791 0.2724,-0.35236 0.15062,-0.29844 -0.15526,-0.17386 z"
       id="path986" />
    <path
       style="fill:#5a2000;fill-opacity:1;stroke:none;stroke-width:0.298697px;stroke-linecap:butt;stroke-linejoin:miter;stroke-opacity:1"
       d="m 307.81122,132.53052 -0.0529,0.50205 -0.13202,0.30867 -0.0102,0.37654 0.0149,0.47602 0.0307,0.34865 c 0,0 0.21663,0.20175 0.21663,0.23057 0,0.0288 0.0669,-0.42581 0.0669,-0.42581 l 0.0335,-0.47788 0.18036,-0.34493 c 0,0 0.0567,-0.39699 0.0511,-0.42675 -0.006,-0.0298 -0.21105,-0.24637 -0.21105,-0.24637 l -0.0549,-0.47602 z"
       id="path988" />
    <path
       style="fill:#5a2000;fill-opacity:1;stroke:none;stroke-width:0.298697px;stroke-linecap:butt;stroke-linejoin:miter;stroke-opacity:1"
       d="m 8.8568918,127.75446 0.360731,0.21662 2.2527102,-0.0121 1.696738,0.005 c 0,0 1.989601,0.16364 2.019351,0.16364 0.0298,0 0.85256,-0.0112 0.85256,-0.0112 l 0.24079,-0.14969 -0.68055,-0.6694 -0.58944,0.17014 -0.76888,0.0604 -0.970633,0.08 -0.89346,0.0149 -1.134257,0.0112 -0.780964,8.9e-4 -0.8757962,0.0381 z"
       id="path990" />
    <path
       style="fill:#5a2000;fill-opacity:1;stroke:none;stroke-width:0.298697px;stroke-linecap:butt;stroke-linejoin:miter;stroke-opacity:1"
       d="m 14.947322,132.10998 -1.495723,0.49853 -1.357391,0.34214 -1.328568,0.093 1.593538,0.10134 0.669398,0.15713 0.915776,0.17571 c 0.23972,-0.47455 0.96398,-1.02514 1.00297,-1.36782 z"
       id="path992"
       sodipodi:nodetypes="cccccccc" />
    <path
       style="fill:#5a2000;fill-opacity:1;stroke:none;stroke-width:0.298697px;stroke-linecap:butt;stroke-linejoin:miter;stroke-opacity:1"
       d="m 7.9766518,135.24351 4.8401202,-0.32075 -0.359801,0.67312 z"
       id="path994" />
    <path
       style="fill:#5a2000;fill-opacity:1;stroke:none;stroke-width:0.298697px;stroke-linecap:butt;stroke-linejoin:miter;stroke-opacity:1"
       d="m 21.530272,133.34394 -1.33128,0.25974 0.29935,0.32791 1.63324,0.15518 z"
       id="path996" />
    <path
       style="fill:#5a2000;fill-opacity:1;stroke:none;stroke-width:0.298697px;stroke-linecap:butt;stroke-linejoin:miter;stroke-opacity:1"
       d="m 23.443952,135.66709 -1.53641,0.1076 0.67013,0.24798 1.12545,0.0972 z"
       id="path998" />
    <path
       style="fill:#5a2000;fill-opacity:1;stroke:none;stroke-width:0.298697px;stroke-linecap:butt;stroke-linejoin:miter;stroke-opacity:1"
       d="m 27.906672,136.95531 0.74307,-0.65422 2.01984,-0.0224 0.2677,-0.32336 -0.79087,-0.22087 -2.9446,0.0369 z"
       id="path1000" />
    <path
       style="fill:#5a2000;fill-opacity:1;stroke:none;stroke-width:0.298697px;stroke-linecap:butt;stroke-linejoin:miter;stroke-opacity:1"
       d="m 27.360522,135.74785 0.16983,-1.28235 11.65019,-0.0378 1.44739,-0.15892 0.88746,-0.2476 0.47185,0.067 -0.0157,0.21859 -0.0982,0.12688 -0.27648,0.0505 -0.21493,0.0314 -0.0559,0.18521 0.33417,0.0606 0.4808,-0.0556 0.31547,-0.12759 0.0707,-0.48019 -0.20429,-0.29858 -0.5097,-0.26115 -0.49656,-0.0394 -0.64503,0.0113 -0.47998,0.0553 c 0,0 -0.41582,0.17718 -0.45713,0.18504 -0.0413,0.008 -0.71904,0.11903 -0.71904,0.11903 l -4.21346,0.16743 -4.98324,0.0355 -2.79994,-0.36135 -1.28053,-0.1001 z"
       id="path1002" />
    <path
       style="fill:#5a2000;fill-opacity:1;stroke:none;stroke-width:0.298697px;stroke-linecap:butt;stroke-linejoin:miter;stroke-opacity:1"
       d="m 24.964652,132.65516 c 0.0278,-0.0555 0.46644,-1.25559 0.46644,-1.25559 l 10.10597,0.0643 0.69655,-0.16805 -0.96364,-0.27574 -1.76728,-8.9e-4 -0.65299,-0.21614 -4.15862,-0.0694 -1.16908,0.13444 c 0,0 -1.23345,0.11795 -1.31638,0.11795 -0.0829,0 -1.5642,-0.21988 -1.5642,-0.21988 l -0.52028,-0.1745 -0.21884,-0.52794 3.1468,-0.33561 -0.4072,-0.34295 -2.62366,0.009 1.92742,-1.82586 5.60251,-0.0198 5.50945,-0.25152 5.37457,-0.22449 3.83324,0.14685 3.89565,0.31887 1.66874,0.0348 0.13238,0.15227 0.0197,0.22813 -0.3121,0.15116 0.0767,0.27681 0.26424,0.0786 0.38078,-0.20328 0.30479,-0.16163 -0.13699,-0.57515 -1.71621,-0.7797 -4.82027,0.0215 -0.95723,0.16356 -2.5283,-0.40672 -2.94583,0.15291 -0.62823,0.20337 -4.51066,0.19241 -4.68994,-0.35369 -2.55148,0.0176 -1.13101,-0.36139 -2.22219,1.32312 -1.87784,1.83412 z"
       id="path1004" />
    <path
       style="fill:#5a2000;fill-opacity:1;stroke:none;stroke-width:0.298697px;stroke-linecap:butt;stroke-linejoin:miter;stroke-opacity:1"
       d="m 43.853902,135.21242 -0.96807,-0.0432 -0.11984,0.39201 0.38252,0.17182 1.13908,-0.39902 0.2137,-0.31719 0.0745,-0.46795 c 0,0 4.66767,-0.57447 4.71311,-0.5784 0.0454,-0.004 6.03467,-0.18664 6.03467,-0.18664 l 2.12254,-0.23221 2.01956,0.008 1.48616,-0.28482 -3.45085,-0.0576 -5.27335,0.0416 c 0,0 -4.37936,0.10971 -4.42073,0.11757 -0.0414,0.008 -2.1862,0.29925 -2.25429,0.31217 -0.0681,0.0129 -2.01754,0.39083 -2.01754,0.39083 l 0.38835,0.72043 z"
       id="path1006" />
    <path
       style="fill:#5a2000;fill-opacity:1;stroke:none;stroke-width:0.298697px;stroke-linecap:butt;stroke-linejoin:miter;stroke-opacity:1"
       d="m 47.713162,135.88878 1.03345,-0.25113 c 0,0 0.14726,-0.20774 0.18539,-0.20774 0.0381,0 2.56128,-0.23667 2.56128,-0.23667 0,0 1.69481,0.0881 1.74346,0.0631 0.0486,-0.025 2.48501,0.0618 2.48501,0.0618 l 0.213,0.21037 -1.5436,0.17487 -1.03214,0.18802 -1.22147,0.0947 -1.97749,-0.0763 -1.61986,0.0408 z"
       id="path1008" />
    <path
       style="fill:#5a2000;fill-opacity:1;stroke:none;stroke-width:0.298697px;stroke-linecap:butt;stroke-linejoin:miter;stroke-opacity:1"
       d="m 59.897372,135.7081 3.95236,-0.0473 1.66062,-0.22089 3.31466,-0.0197 -2.01167,0.4878 -1.98407,0.25377 c 0,0 -1.70927,-0.0158 -1.75792,-0.0145 -0.0486,0.001 -2.65462,0.17092 -2.65462,0.17092 l -0.52992,-0.38161 z"
       id="path1010"
       sodipodi:nodetypes="cccccccccc" />
    <path
       style="fill:#5a2000;fill-opacity:1;stroke:none;stroke-width:0.298697px;stroke-linecap:butt;stroke-linejoin:miter;stroke-opacity:1"
       d="m 156.71985,134.50653 5.09599,0.26411 0.97967,-0.62063 6.52867,0.0425 2.56543,0.18332 5.72822,0.0804 1.9178,-0.25485 0.78432,-0.12804 0.33172,-0.0937 0.17446,0.14379 -0.14682,0.3176 -0.0983,0.28848 0.22571,0.12935 0.50027,-0.2488 0.003,-0.70763 -0.68629,-0.65093 -0.51121,-0.0287 -0.29952,0.10215 -0.19102,0.31286 -2.89763,0.30887 c 0,0 -6.0285,0.0143 -6.06969,0.0217 -0.0412,0.007 -3.12549,-0.0184 -3.12549,-0.0184 l -2.69383,-0.1095 -1.5782,-0.24126 -0.43893,-0.21397 -0.43041,0.24218 -0.65791,0.51478 -4.42045,0.0976 z"
       id="path1012" />
    <path
       style="fill:#5a2000;fill-opacity:1;stroke:none;stroke-width:0.298697px;stroke-linecap:butt;stroke-linejoin:miter;stroke-opacity:1"
       d="m 166.59451,135.804 2.44154,-0.17993 5.77948,-0.0325 0.20378,0.042 -1.11134,0.36092 -2.19496,0.23289 c 0,0 -3.45566,-0.0364 -3.51799,-0.0364 -0.0623,0 -1.60208,0.0279 -1.60208,0.0279 l -0.13959,-0.26158 z"
       id="path1014" />
    <path
       style="fill:#5a2000;fill-opacity:1;stroke:none;stroke-width:0.298697px;stroke-linecap:butt;stroke-linejoin:miter;stroke-opacity:1"
       d="m 182.15784,133.95399 0.3098,0.36348 -0.45126,0.53744 0.15317,0.33547 0.36594,0.1065 0.22595,-0.0393 0.36146,-0.46038 0.23859,-0.53005 2.86583,-0.13624 1.42248,-0.17077 1.03211,-0.11606 3.66371,-0.11004 0.93752,-0.14975 0.87222,-0.0442 0.752,-0.28548 -5.9423,0.0575 -3.30811,0.0973 -0.22025,0.19925 -3.21341,0.0989 z"
       id="path1016" />
    <path
       style="fill:#5a2000;fill-opacity:1;stroke:none;stroke-width:0.298697px;stroke-linecap:butt;stroke-linejoin:miter;stroke-opacity:1"
       d="m 187.78364,135.37608 c 0.0403,0.0217 1.32844,0.56026 1.37348,0.55633 0.0451,-0.004 1.45173,-0.12104 1.45173,-0.12104 l 0.17107,-0.17695 6.42338,-0.12406 3.69155,-0.009 1.44936,-0.25213 3.05549,-0.0809 1.02899,-0.0967 c 0,0 0.67917,5.9e-4 0.72884,0.005 0.0497,0.004 1.49621,-0.28912 1.49621,-0.28912 l -7.07672,-0.0436 -2.59526,0.26523 -6.10329,0.0673 -3.46001,0.16002 z"
       id="path1018" />
    <path
       style="fill:#5a2000;fill-opacity:1;stroke:none;stroke-width:0.298697px;stroke-linecap:butt;stroke-linejoin:miter;stroke-opacity:1"
       d="m 216.21425,135.76662 6.87147,-0.0685 0.0881,-0.75934 9.5399,0.17058 5.41005,-0.23956 6.54773,-0.13864 2.78343,-0.0683 -0.44335,0.52401 -5.39451,0.22652 c 0,0 -4.98169,-0.008 -5.04256,-0.004 -0.0608,0.004 -3.24393,0.0632 -3.3657,0.0714 -0.12176,0.008 -7.58873,0.14348 -7.62991,0.14348 -0.0412,0 -1.97995,-0.19624 -1.97995,-0.19624 l 0.003,0.88386 -5.66655,-0.22624 -1.62972,-0.0953 z"
       id="path1020" />
    <path
       style="fill:#5a2000;fill-opacity:1;stroke:none;stroke-width:0.298697px;stroke-linecap:butt;stroke-linejoin:miter;stroke-opacity:1"
       d="m 253.57117,133.19225 0.007,1.18335 0.62585,0.23404 1.04397,-0.21695 0.91249,-0.24456 0.79152,-0.0697 1.05318,-0.15383 -0.45888,-0.24719 c 0,0 -1.07421,0.003 -1.1452,-0.001 -0.071,-0.004 -0.86253,0.24193 -0.86253,0.24193 0,0 -0.70343,-0.0158 -0.75471,-0.0145 -0.0513,0.001 -0.43521,-0.005 -0.48254,-0.006 -0.0473,-0.001 -0.11439,-0.47466 -0.11439,-0.47466 l -0.26822,-0.22878 -0.054,-0.001 z"
       id="path1022" />
    <path
       style="fill:#5a2000;fill-opacity:1;stroke:none;stroke-width:0.298697px;stroke-linecap:butt;stroke-linejoin:miter;stroke-opacity:1"
       d="m 256.87565,135.12508 7.49088,-0.12617 8.08894,-0.26437 5.94851,-0.38493 1.91056,-0.0222 c 0,0 0.75471,0.79148 0.82616,0.83038 0.0715,0.0389 0.84939,0.13196 0.84939,0.13196 l 0.30285,0.28809 -0.0511,0.26041 -0.37402,0.0539 -0.64428,-0.0747 c 0,0 -0.48819,-0.37364 -0.54583,-0.39314 -0.0577,-0.0195 -0.91316,-0.49844 -0.91316,-0.49844 l -4.8405,0.21352 -4.05792,0.28572 -4.03662,0.008 -5.85034,0.0701 c 0,0 -2.79955,-0.0487 -2.84489,-0.0487 -0.0454,0 -0.93025,-0.0557 -0.93025,-0.0557 z"
       id="path1024" />
    <path
       style="fill:#5a2000;fill-opacity:1;stroke:none;stroke-width:0.298697px;stroke-linecap:butt;stroke-linejoin:miter;stroke-opacity:1"
       d="m 278.75451,133.91565 0.23848,0.26516 0.65999,-0.15371 c 0,0 1.30954,0.67245 1.35909,0.69549 0.0496,0.0231 5.23766,-0.66243 5.23766,-0.66243 l 1.16344,-0.10045 1.30428,0.19018 1.057,-1.33904 -0.85137,-0.20775 -1.01642,0.72693 -5.27403,0.673 c 0,0 -1.01391,0.24235 -1.07585,0.22465 -0.062,-0.0177 -1.03334,-0.51067 -1.08171,-0.56618 -0.0483,-0.0555 -0.70826,-0.34725 -0.70826,-0.34725 0,0 -0.39021,0.18441 -0.43132,0.19122 -0.0411,0.007 -0.58197,0.10541 -0.58197,0.10541 z"
       id="path1026" />
    <path
       style="fill:#5a2000;fill-opacity:1;stroke:none;stroke-width:0.298697px;stroke-linecap:butt;stroke-linejoin:miter;stroke-opacity:1"
       d="m 276.9411,131.84782 6.10752,-0.0674 1.36144,0.81033 0.60665,-0.20525 -0.35182,-0.25943 -1.10358,-0.85479 -4.167,-0.0177 -2.33125,0.40495 z"
       id="path1028" />
    <path
       style="fill:#5a2000;fill-opacity:1;stroke:none;stroke-width:0.298697px;stroke-linecap:butt;stroke-linejoin:miter;stroke-opacity:1"
       d="m 284.35481,130.99647 0.0191,0.24519 0.1563,0.20504 0.20136,0.008 0.0691,-0.36828 0.65373,-0.005 1.30222,0.41896 c 0,0 1.58836,-0.23833 1.63211,-0.24601 0.0438,-0.008 1.43812,-0.21287 1.43812,-0.21287 l 0.11177,0.70576 0.24209,0.336 1.25422,-1.72846 -0.75946,0.0111 -1.37257,0.32788 -2.0774,0.0341 -1.18221,-0.11968 -0.76285,-0.1034 -0.48422,0.0118 -0.30042,0.19257 z"
       id="path1030" />
    <path
       style="fill:#5a2000;fill-opacity:1;stroke:none;stroke-width:0.298697px;stroke-linecap:butt;stroke-linejoin:miter;stroke-opacity:1"
       d="m 292.80837,128.77961 -0.36929,-0.29932 -3.98801,0.0316 4.11898,-0.5206 0.59394,0.41906 z"
       id="path1032" />
    <path
       style="fill:#5a2000;fill-opacity:1;stroke:none;stroke-width:0.298697px;stroke-linecap:butt;stroke-linejoin:miter;stroke-opacity:1"
       d="m 292.09897,126.46674 c -0.13993,0.0131 -6.74186,-0.31045 -6.74186,-0.31045 l 0.6683,0.35742 0.93747,0.13204 2.36987,0.13305 1.92597,0.15556 1.76473,0.24301 c -0.13571,-0.20529 -0.79709,-0.70709 -0.50788,-0.61587 z"
       id="path1034"
       sodipodi:nodetypes="ccccccccc" />
    <path
       style="fill:#5a2000;fill-opacity:1;stroke:none;stroke-width:0.298697px;stroke-linecap:butt;stroke-linejoin:miter;stroke-opacity:1"
       d="m 299.51657,134.34181 -2.05113,0.0947 2.58166,0.69028 z"
       id="path1036" />
    <path
       style="fill:#5a2000;fill-opacity:1;stroke:none;stroke-width:0.298697px;stroke-linecap:butt;stroke-linejoin:miter;stroke-opacity:1"
       d="m 300.89957,136.25033 -2.88784,-0.0898 -0.11421,0.16645 0.1016,0.20116 3.38756,0.23477 z"
       id="path1038" />
    <path
       style="fill:#5a2000;fill-opacity:1;stroke:none;stroke-width:0.298697px;stroke-linecap:butt;stroke-linejoin:miter;stroke-opacity:1"
       d="m 305.23727,133.12663 -1.74468,-0.0761 -0.1337,0.22532 0.23907,0.26853 1.55949,0.17733 z"
       id="path1040" />
    <path
       style="fill:#5a2000;fill-opacity:1;stroke:none;stroke-width:0.298697px;stroke-linecap:butt;stroke-linejoin:miter;stroke-opacity:1"
       d="m 305.36885,130.01677 c -0.0294,0.002 -1.75749,0.19779 -1.75749,0.19779 l -2.79428,-0.0264 0.45978,0.38912 1.21791,0.0508 1.94896,0.19751 0.78413,-0.0422 z"
       id="path1042" />
    <path
       style="fill:#5a2000;fill-opacity:1;stroke:none;stroke-width:0.298697px;stroke-linecap:butt;stroke-linejoin:miter;stroke-opacity:1"
       d="m 305.83015,128.2469 c -0.10725,0 -2.24053,0.0195 -2.27169,-2e-4 -0.0312,-0.0197 -0.36381,-0.3334 -0.36381,-0.3334 l 2.76397,-0.23724 z"
       id="path1044" />
    <path
       style="fill:#5a2000;fill-opacity:1;stroke:none;stroke-width:0.298697px;stroke-linecap:butt;stroke-linejoin:miter;stroke-opacity:1"
       d="m 54.108152,127.48614 0.0358,1.36126 -0.51914,0.1637 -0.28499,-0.14715 -0.2087,-0.0516 -0.28284,-0.19074 -0.38827,-0.003 0.0638,0.48838 0.63047,0.37666 1.33769,-0.21732 0.14522,-1.17505 2.04096,-0.20651 2.20882,-0.17091 2.54779,-0.0142 3.7058,-0.0107 c 0,0 3.1386,0.0541 3.1676,0.0513 0.029,-0.003 1.12832,-0.20228 1.16508,-0.20476 0.0368,-0.002 1.65893,-0.0743 1.65893,-0.0743 l -3.78858,-0.11079 c 0,0 -3.62407,-0.01 -3.69544,-0.01 -0.0714,0 -4.2773,-0.003 -4.2773,-0.003 l -1.15021,0.01 -1.42241,-0.007 -0.17118,0.17746 z"
       id="path1046" />
    <path
       style="fill:#e7ab74;fill-opacity:1;stroke:#5a2000;stroke-width:0.524954;stroke-linecap:butt;stroke-linejoin:miter;stroke-miterlimit:4;stroke-dasharray:none;stroke-opacity:1"
       d="m 287.33473,41.692968 1.82149,0.948429 1.32247,0.07886 1.414,-0.576145 0.8042,-0.924503 -0.62408,-0.963777 -0.85335,-0.339689 -1.05782,0.04068 -1.14294,0.122923 -1.23501,0.303757 -0.70346,0.620902 z"
       id="path934" />
    <path
       style="fill:#5a2000;fill-opacity:1;stroke:none;stroke-width:0.298697px;stroke-linecap:butt;stroke-linejoin:miter;stroke-opacity:1"
       d="m 288.52792,42.568303 0.39065,1.504203 0.28623,0.158467 0.0549,-1.468335 z"
       id="path936" />
    <path
       style="fill:#5a2000;fill-opacity:1;stroke:none;stroke-width:0.298697px;stroke-linecap:butt;stroke-linejoin:miter;stroke-opacity:1"
       d="m 290.06313,42.79577 0.31625,0.949525 0.0514,1.338563 0.25213,-0.33319 -0.0607,-1.910306 -0.53975,-0.09769 -0.025,0.01873 0.027,0.0054 z"
       id="path938" />
    <path
       style="fill:#5a2000;fill-opacity:1;stroke:none;stroke-width:0.298697px;stroke-linecap:butt;stroke-linejoin:miter;stroke-opacity:1"
       d="m 292.27537,41.751004 0.16972,0.653681 0.001,1.21795 1.05039,1.617086 1.80139,1.430028 0.57344,1.182775 0.13472,2.340137 -0.15999,2.778686 0.0294,2.53729 0.23527,1.243001 0.0602,1.307851 -0.25882,1.078673 -0.32396,1.119759 0.10149,0.336065 0.55163,-1.015666 0.47535,-1.67139 -0.0586,-1.697122 -0.16214,-0.314365 0.0422,-5.447085 -0.23056,-2.866295 -0.17728,-0.276316 0.0493,-0.43849 0.34123,-0.04311 0.56844,0.376284 0.65397,0.659944 0.23865,1.073201 6e-4,0.841654 -0.0579,2.111727 -0.1077,1.633195 -0.0461,1.679028 0.14294,1.366625 0.12883,-1.603932 0.22212,-1.094468 0.12427,-1.67685 0.18095,-0.176677 -0.0131,-2.955871 -0.22049,-0.770428 -0.43183,-1.167106 -0.78393,-0.891077 -1.60464,-0.258857 -2.24939,-1.985455 0.0278,-2.409879 -0.7631,-0.955426 z"
       id="path940"
       sodipodi:nodetypes="cccccccccccccccccccccccccccccccccccccccccccc" />
    <path
       style="fill:#5a2000;fill-opacity:1;stroke:none;stroke-width:0.298697px;stroke-linecap:butt;stroke-linejoin:miter;stroke-opacity:1"
       d="m 295.87775,61.020773 -0.0726,2.566444 c 0,0 -0.138,1.761624 -0.17116,1.823152 -0.0332,0.06153 -0.0465,2.194421 -0.0465,2.194421 l 0.63321,-2.011436 0.16038,-3.957779 0.55566,-0.06231 0.19718,-0.352437 0.0376,-0.647288 -0.0724,-0.339921 -0.54111,-8.95e-4 0.12814,0.337775 0.0682,0.248827 -0.13713,0.09181 -0.25085,0.0366 -0.20594,0.09029 -0.26455,-0.09907 z"
       id="path942" />
    <path
       style="fill:#5a2000;fill-opacity:1;stroke:none;stroke-width:0.298697px;stroke-linecap:butt;stroke-linejoin:miter;stroke-opacity:1"
       d="m 302.4192,38.260525 -0.051,0.505873 -0.35056,0.245718 -0.41512,0.09338 -0.3614,-0.0027 0.0207,3.948935 0.3437,0.354404 0.0597,-1.336965 0.13047,-0.08695 0.0481,-1.110338 0.2049,0.07182 -0.009,-1.384716 0.32462,-0.28015 0.18008,-0.286753 z"
       id="path952" />
    <path
       style="fill:#5a2000;fill-opacity:1;stroke:none;stroke-width:0.298697px;stroke-linecap:butt;stroke-linejoin:miter;stroke-opacity:1"
       d="m 291.21888,2.194023 0.16656,1.4782357 0.23648,0.3630607 c 0,0 0.55109,-0.3150881 0.55096,-0.3565939 -1.3e-4,-0.041505 -0.0145,-1.6413871 -0.0145,-1.6413871 z"
       id="path964" />
    <path
       style="fill:#5a2000;fill-opacity:1;stroke:none;stroke-width:0.298697px;stroke-linecap:butt;stroke-linejoin:miter;stroke-opacity:1"
       d="m 294.5388,1.9827203 c 0.0128,0.041732 0.30262,2.9597044 0.30262,2.9597044 l 0.3336,0.3245757 0.24227,-0.02039 -0.10951,-3.3397914 z"
       id="path966" />
    <path
       style="fill:#5a2000;fill-opacity:1;stroke:none;stroke-width:0.298697px;stroke-linecap:butt;stroke-linejoin:miter;stroke-opacity:1"
       d="m 297.12668,1.9596581 0.0673,4.7298041 0.42674,-0.4833696 0.14431,-1.0191923 -0.0569,-1.4715065 0.26787,-0.2768247 -0.0465,-1.5468647 z"
       id="path968" />
    <path
       style="fill:#5a2000;fill-opacity:1;stroke:none;stroke-width:0.298697px;stroke-linecap:butt;stroke-linejoin:miter;stroke-opacity:1"
       d="m 300.91077,2.5231508 0.0397,2.7839473 0.39978,-0.2107273 0.26732,-0.4275987 0.0613,-1.1494359 0.15831,-0.8360913 z"
       id="path970" />
    <path
       style="fill:#e7ab74;fill-opacity:1;stroke:#5a2000;stroke-width:0.524954;stroke-linecap:butt;stroke-linejoin:miter;stroke-miterlimit:4;stroke-dasharray:none;stroke-opacity:1"
       d="m 287.57968,144.30131 c 0.36258,-0.60477 1.14853,-0.84143 1.79999,-1.11131 0.69588,-0.28828 1.45516,-0.40162 2.19898,-0.5204 1.17328,-0.18735 2.36389,-0.32529 3.55176,-0.30015 1.02263,0.0216 2.04155,0.18427 3.04401,0.38753 1.20143,0.24361 2.39015,0.57089 3.54096,0.99327 0.81088,0.29762 1.60695,0.64913 2.35538,1.08037 0.23592,0.13593 0.59389,0.20926 0.66698,0.47155 0.2236,0.80246 -0.42976,1.68331 -1.00055,2.29007 -0.65207,0.69316 -1.62657,1.03889 -2.54155,1.30057 -1.3688,0.39146 -2.83258,0.39033 -4.25591,0.35888 -1.46659,-0.0324 -2.94033,-0.21213 -4.36468,-0.56309 -1.11551,-0.27486 -2.19809,-0.69636 -3.23186,-1.1976 -0.66446,-0.32217 -1.44798,-0.63971 -1.89085,-1.15424 -0.47766,-0.55495 -0.22222,-1.4524 0.12734,-2.03545 z"
       id="path974"
       sodipodi:nodetypes="aaaaaaaaaaaaasa" />
    <path
       style="fill:#5a2000;fill-opacity:1;stroke:none;stroke-width:0.298697px;stroke-linecap:butt;stroke-linejoin:miter;stroke-opacity:1"
       d="m 291.21908,144.82057 c 0.0784,-2.4e-4 0.67554,0.0267 0.68678,-0.0134 0.0113,-0.04 0.10047,-0.33057 0.10047,-0.33057 l -0.47641,-0.3611 -0.37995,0.0326 -0.58928,0.43817 -0.39859,0.42552 0.2487,0.49434 1.55094,0.92947 2.74204,0.70578 3.89158,-0.13045 -4.00478,-0.25816 -1.36252,-0.21947 -1.69763,-0.7962 -0.44476,-0.5519 z"
       id="path976" />
    <path
       style="fill:#5a2000;fill-opacity:1;stroke:none;stroke-width:0.298697px;stroke-linecap:butt;stroke-linejoin:miter;stroke-opacity:1"
       d="m 293.53578,145.28148 c 0,0 1.05365,0.65252 1.08557,0.65242 0.0319,-1e-4 1.25884,-0.0545 1.25884,-0.0545 0,0 -0.1697,-0.35784 -0.20781,-0.35021 -0.038,0.008 -0.69996,0.0386 -0.69996,0.0386 l -1.40089,-0.75446 z"
       id="path978" />
    <path
       style="fill:#5a2000;fill-opacity:1;stroke:none;stroke-width:0.298697px;stroke-linecap:butt;stroke-linejoin:miter;stroke-opacity:1"
       d="m 296.81381,145.62234 c 0,0 0.95162,-0.0677 1.00096,-0.10427 0.0493,-0.0365 0.42448,-0.82938 0.42448,-0.82938 l 0.31863,0.24823 0.0278,0.6107 -0.18442,0.21601 -0.47001,0.0895 -0.43927,0.1088 -0.52318,-0.0289 -0.16924,-0.28165 z"
       id="path980" />
    <path
       style="fill:#5a2000;fill-opacity:1;stroke:none;stroke-width:0.298697px;stroke-linecap:butt;stroke-linejoin:miter;stroke-opacity:1"
       d="m 300.52563,143.21089 -0.0551,-1.45239 0.32076,-0.73988 0.37364,0.57751 0.11233,1.89516 -0.75414,-0.24537 z"
       id="path983" />
    <path
       style="fill:#5a2000;fill-opacity:1;stroke:none;stroke-width:0.298697px;stroke-linecap:butt;stroke-linejoin:miter;stroke-opacity:1"
       d="m 293.29935,142.37023 0.76554,-1.83599 0.15717,1.74294 z"
       id="path985" />
    <path
       style="fill:#5a2000;fill-opacity:1;stroke:none;stroke-width:0.298697px;stroke-linecap:butt;stroke-linejoin:miter;stroke-opacity:1"
       d="m 290.39111,142.75162 0.63843,-1.72965 0.46236,1.56742 z"
       id="path987" />
    <path
       style="fill:#5a2000;fill-opacity:1;stroke:none;stroke-width:0.264583px;stroke-linecap:butt;stroke-linejoin:miter;stroke-opacity:1"
       d="m 193.28177,10.713146 0.41107,0.352755 1.29992,-0.02496 1.36069,-0.323411 1.83341,-0.08415 0.84132,0.07227 1.5367,0.367047 2.13286,-0.326395 6.68036,-0.132408 0.29974,0.363772 0.34222,0.08321 0.57865,-0.06206 0.59756,-0.271109 1.24433,-0.129451 0.0866,-0.200279 -2.77727,-0.02256 -0.80995,-0.3807049 -8.23069,-0.018441 -1.54264,0.2013679 -0.87424,0.173211 -3.45793,0.123959 -1.30207,0.01606 z"
       id="path1035" />
    <path
       style="fill:#5a2000;fill-opacity:1;stroke:none;stroke-width:0.264583px;stroke-linecap:butt;stroke-linejoin:miter;stroke-opacity:1"
       d="m 212.31244,11.965775 0.44887,-0.0273 0.43306,-0.415494 1.55044,0.790686 0.6249,-0.198277 7.70533,0.104288 2.88616,0.381836 0.87005,0.0035 3.14227,0.08237 1.51067,-1.081529 -0.30007,-0.06819 -2.03847,0.590133 -1.26217,0.156061 -1.63542,-0.17869 -1.64338,-0.318766 -2.38561,-0.266493 -3.86364,0.01598 -2.09273,0.06375 -1.40692,0.131824 -0.59498,-0.538862 -0.47446,-0.07655 -0.58407,0.03466 -0.3773,0.17476 -0.25519,0.299981 z"
       id="path1043" />
    <path
       style="fill:#5a2000;fill-opacity:1;stroke:none;stroke-width:0.264583px;stroke-linecap:butt;stroke-linejoin:miter;stroke-opacity:1"
       d="m 232.37358,10.358425 0.89619,0.52779 3.97354,0.309431 4.05102,-0.220575 -0.20836,-0.22827 -2.26846,0.03917 -1.03744,-0.375509 z"
       id="path1045" />
    <path
       style="fill:#5a2000;fill-opacity:1;stroke:none;stroke-width:0.264583px;stroke-linecap:butt;stroke-linejoin:miter;stroke-opacity:1"
       d="m 244.70762,20.756043 -0.34057,1.075076 0.10181,0.149133 0.30955,-0.102375 0.49469,-0.483951 1.7609,-0.0888 0.45034,0.315459 0.87196,0.220595 0.9812,0.154286 1.47075,0.06148 3.92723,-0.0083 1.64729,-0.05777 1.42478,-0.163056 0.86627,-0.449043 0.31817,-0.153452 -0.0406,-0.134424 -0.87459,0.02226 -1.64242,0.05886 -0.66211,0.298239 -2.85449,0.132425 -1.68572,0.02857 -1.31049,0.0051 -1.08448,-0.327028 -1.44026,-0.281361 -0.77149,-0.311983 -1.02943,-0.07177 z"
       id="path1047" />
    <path
       style="fill:#5a2000;fill-opacity:1;stroke:none;stroke-width:0.264583px;stroke-linecap:butt;stroke-linejoin:miter;stroke-opacity:1"
       d="m 260.34577,19.89803 0.0271,1.021447 1.23502,0.411743 0.9218,-0.252816 6.77843,-0.169357 0.0507,0.293231 0.21858,0.0557 -0.39571,0.235043 v 0.112065 l 0.35766,0.05066 0.29125,-0.158612 0.4971,-0.545617 2.18821,-0.218679 2.04047,0.04954 2.80884,0.149707 0.0212,-0.230852 -1.61314,-0.400773 -0.1487,0.140202 -1.30773,-0.104972 0.0101,-0.245846 h -0.24053 l -3.40445,0.180804 -3.00135,-0.122752 -2.35993,-0.0055 -0.87519,0.161101 -0.82987,0.07491 -0.66584,-0.104402 -1.44047,0.04452 -0.2809,0.04284 -0.66781,-0.601969 -0.16763,0.03776 z"
       id="path1049" />
    <path
       style="fill:#5a2000;fill-opacity:1;stroke:none;stroke-width:0.264583px;stroke-linecap:butt;stroke-linejoin:miter;stroke-opacity:1"
       d="m 283.6315,20.904773 3.66792,0.02166 0.53682,-0.78185 -3.6398,0.106892 z"
       id="path1051" />
    <path
       style="fill:#5a2000;fill-opacity:1;stroke:none;stroke-width:0.264583px;stroke-linecap:butt;stroke-linejoin:miter;stroke-opacity:1"
       d="m 290.93623,16.347754 c -0.10171,0 -5.01574,-0.434786 -5.01574,-0.434786 l -0.2391,-0.331141 2.80683,-0.433609 3.6135,-0.188938 z"
       id="path1053" />
    <path
       style="fill:#5a2000;fill-opacity:1;stroke:none;stroke-width:0.264583px;stroke-linecap:butt;stroke-linejoin:miter;stroke-opacity:1"
       d="m 290.00688,10.208539 -3.04313,1.434881 0.41703,0.22547 5.23465,-0.07817 z"
       id="path1055" />
    <path
       style="fill:#5a2000;fill-opacity:1;stroke:none;stroke-width:0.264583px;stroke-linecap:butt;stroke-linejoin:miter;stroke-opacity:1"
       d="m 271.14357,10.901293 0.26291,-0.395273 1.71112,-0.32134 2.53637,-0.128002 0.65749,-0.064087 0.4154,-0.2247098 4.62843,-0.1168728 0.77224,-0.454015 0.87628,-0.2570548 0.37356,0.1707147 -0.10149,0.210983 -0.84349,0.3793688 2.55955,-0.058447 0.82854,0.01392 0.56108,0.4405199 0.48315,0.09587 0.0522,0.175495 -0.28924,0.103457 -4.53853,-0.02979 -2.19702,-0.02721 -0.95923,0.03873 -0.98649,0.38451 -1.38227,0.129214 c 0,0 -1.91878,0.02646 -2.02681,0.03263 -0.10806,0.0062 -1.49699,-0.0035 -1.49699,-0.0035 z"
       id="path1057" />
    <path
       style="fill:#5a2000;fill-opacity:1;stroke:none;stroke-width:0.264583px;stroke-linecap:butt;stroke-linejoin:miter;stroke-opacity:1"
       d="m 16.556346,64.992374 0.580852,-0.70489 -0.102166,-0.106273 -0.186595,0.02953 -0.102255,0.286909 -0.326177,0.209741 -0.184796,-0.128871 -0.909984,0.46536 -0.0098,0.148069 0.108497,0.117017 0.338538,-0.06138 0.08992,0.04232 -0.22445,0.838631 -0.09024,1.222775 -0.0313,2.009126 0.197623,0.844635 -0.06274,0.406 -0.336926,-0.600702 -0.495401,-0.123333 0.164173,0.695722 0.554761,1.15579 0.01677,0.92287 -0.04398,1.443291 0.135724,0.230873 0.327767,-1.04784 0.06145,-2.350201 0.560101,-2.170068 0.227193,-0.88139 -0.128563,-0.102881 -0.140635,0.05729 -0.524113,2.016911 -0.105707,-1.54796 0.284676,-1.936655 0.277727,-1.077124 z"
       id="path1059" />
    <path
       style="fill:#5a2000;fill-opacity:1;stroke:none;stroke-width:0.264583px;stroke-linecap:butt;stroke-linejoin:miter;stroke-opacity:1"
       d="m 18.498473,64.57951 -0.39326,1.098402 0.450898,0.841319 0.102159,2.143741 -0.04789,1.828398 -0.04059,1.481847 -0.0055,1.129316 0.07019,1.341485 0.127,0.05728 0.142687,-0.04933 0.09046,-2.670186 0.301806,-2.183474 -0.150058,-1.173744 -0.132142,-1.357273 -0.03003,-1.212527 -0.02465,-0.332333 -0.325351,-0.976728 z"
       id="path1061" />
    <path
       style="fill:#5a2000;fill-opacity:1;stroke:none;stroke-width:0.264583px;stroke-linecap:butt;stroke-linejoin:miter;stroke-opacity:1"
       d="m 16.131564,74.391696 c 0.07029,-0.06415 0.651646,-1.093848 0.651646,-1.093848 l 0.135512,0.134175 -0.06697,3.900853 -0.01257,1.597313 0.371638,1.084887 0.39178,1.060458 -0.02646,1.138166 -0.132352,1.121148 -0.224982,0.06112 -0.154808,-0.329115 -0.181624,-1.74725 0.005,-0.675365 -0.472934,-1.3121 -0.09489,-0.518917 0.101136,-1.891318 0.182874,-1.378884 0.06601,-0.756285 -0.07098,-0.388501 -0.316871,0.113691 z"
       id="path1063" />
    <path
       style="fill:#5a2000;fill-opacity:1;stroke:none;stroke-width:0.264583px;stroke-linecap:butt;stroke-linejoin:miter;stroke-opacity:1"
       d="m 23.228152,86.468883 -0.118411,0.828942 0.08016,1.005824 0.472827,0.677715 0.426479,1.794999 0.150068,1.335212 -0.05666,1.422585 0.111001,2.284584 0.30647,1.266402 0.632175,-2.514002 -0.05375,-2.310932 -0.323538,-2.33925 -0.285794,-0.925573 -0.630208,-0.983075 -0.313513,-0.508775 z"
       id="path1065" />
    <path
       style="fill:#5a2000;fill-opacity:1;stroke:none;stroke-width:0.264583px;stroke-linecap:butt;stroke-linejoin:miter;stroke-opacity:1"
       d="m 22.615588,94.780144 0.0053,2.469798 0.364666,1.230373 1.298936,1.244526 -0.0062,1.779139 0.314432,0.89767 0.216634,1.49246 -0.131457,1.53129 -0.187468,1.85069 0.15399,0.87788 0.251067,0.0766 0.446608,-1.97434 0.263684,-1.16539 -0.214418,-1.83005 0.100138,-0.77903 -0.408169,-1.35238 -0.04895,-1.0436 0.749045,-1.075861 0.402581,-0.848712 0.07645,-2.875288 -0.285667,-0.186949 -0.250807,1.524807 -0.356456,1.328041 -0.552209,1.227646 -0.645697,-0.549222 -0.544372,-0.627185 -0.367784,-0.677714 -0.115234,-1.621515 -0.19966,-0.800293 z"
       id="path1067" />
    <path
       style="fill:#5a2000;fill-opacity:1;stroke:none;stroke-width:0.264583px;stroke-linecap:butt;stroke-linejoin:miter;stroke-opacity:1"
       d="m 12.989703,97.271757 -0.246709,0.458835 -0.205383,1.573419 0.0335,2.321169 0.08939,1.28299 0.144719,3.97067 -0.003,3.22015 0.446592,-0.77567 0.02327,-1.30581 -0.105491,-0.88776 0.329311,-1.08686 -0.06875,-0.9317 0.02924,-1.53749 -0.306246,-1.63846 -0.124794,-2.466608 0.06904,-0.980631 z"
       id="path1069" />
    <path
       style="fill:#5a2000;fill-opacity:1;stroke:none;stroke-width:0.264583px;stroke-linecap:butt;stroke-linejoin:miter;stroke-opacity:1"
       d="m 291.25259,74.295256 -0.88427,3.046939 0.0998,5.160184 -2.2e-4,2.443483 0.15301,0.18995 0.21103,-0.132829 -0.0145,-1.154695 0.17733,-0.137332 -0.006,-2.128205 0.1843,-0.04373 0.0277,-0.278818 -0.11046,-0.10777 0.20669,-2.444744 -0.18037,-0.300784 0.008,-0.301736 0.0621,-0.226044 0.33629,-2.574528 -0.18786,-0.30217 0.0183,-0.252479 0.17335,-0.248023 0.0332,-0.180763 -0.22366,-0.09599 z"
       id="path1071" />
    <path
       style="fill:#5a2000;fill-opacity:1;stroke:none;stroke-width:0.264583px;stroke-linecap:butt;stroke-linejoin:miter;stroke-opacity:1"
       d="m 303.79151,66.590044 -0.5167,1.814565 0.0729,4.454176 -0.48006,4.516488 0.20122,0.0595 -0.24241,0.692036 0.0268,0.930738 0.24886,0.145894 0.0487,0.627248 -0.16679,0.443539 -0.25889,0.6497 -0.17227,1.503569 0.14628,0.574051 0.32462,-0.955072 0.009,-0.380513 0.58095,-1.345176 0.006,-3.297777 0.20984,-4.170231 -0.14131,-0.908804 0.15663,-0.171727 0.2866,-2.109952 -0.18738,-1.623332 z"
       id="path1073" />
    <path
       style="fill:#5a2000;fill-opacity:1;stroke:none;stroke-width:0.264583px;stroke-linecap:butt;stroke-linejoin:miter;stroke-opacity:1"
       d="m 303.62398,80.822878 -0.53856,1.930514 0.047,1.841362 0.0768,2.248721 -0.14351,1.133334 -0.072,0.862891 -0.16293,2.757242 -0.15954,-0.197533 -0.23821,-0.104457 -0.11363,0.116308 0.1666,0.455567 0.23575,0.419894 0.56369,1.984441 0.17198,0.103016 0.1932,-0.146153 -0.0127,-1.197457 -0.13906,-0.160107 -0.16669,-0.829855 0.17989,-3.595907 0.12808,-1.952109 -0.0377,-2.404957 0.10441,-1.336985 0.12242,-1.527066 z"
       id="path1075" />
    <path
       style="fill:#5a2000;fill-opacity:1;stroke:none;stroke-width:0.264583px;stroke-linecap:butt;stroke-linejoin:miter;stroke-opacity:1"
       d="m 301.82187,92.316151 0.0966,1.019987 0.44577,1.311873 0.27032,1.276173 -0.0894,1.745998 -0.51964,1.984216 0.12028,0.286044 -0.20341,1.695838 0.11284,0.66714 0.29676,0.26333 0.0839,1.40528 0.10734,0.11529 0.23607,-0.0227 0.0684,-0.22547 -0.19388,-2.25374 0.0574,-2.633488 0.5384,-1.869535 -0.11692,-1.273382 -0.0946,-0.912082 -0.3714,-0.625248 -0.22886,-0.772887 -0.23006,-1.125297 -0.22045,-0.11381 z"
       id="path1077" />
    <path
       style="fill:#5a2000;fill-opacity:1;stroke:none;stroke-width:0.264583px;stroke-linecap:butt;stroke-linejoin:miter;stroke-opacity:1"
       d="m 70.950631,135.32716 0.670026,0.42664 1.489877,0.0456 0.267348,-0.18489 1.971236,-0.0183 0.82065,-0.11832 0.808312,-0.0139 0.06627,-0.1037 1.323359,-2.6e-4 0.817702,0.21267 1.465461,0.0536 0.437843,-0.20829 1.215298,-0.15075 2.285047,-0.0149 1.780471,0.008 1.387819,-0.0423 0.06724,0.21386 0.996426,0.0279 1.124826,0.49817 0.784159,0.28576 0.778801,-0.063 0.100515,-0.20981 -0.199446,-0.19255 -1.010213,0.001 -0.553337,-0.26053 -0.696423,-0.27948 1.787406,0.0351 1.43114,0.003 1.302268,1e-4 1.36298,-0.1037 0.788257,-0.20069 0.715748,-0.24086 0.385207,-0.19976 0.07976,-0.28292 -0.241218,-0.0526 -0.36745,0.20849 -0.750959,0.15666 -0.63042,0.17293 -1.329973,-0.0281 -2.942371,0.001 -2.745906,-0.002 -2.279769,0.008 -3.480957,-0.0284 -1.462563,-0.0147 -0.09966,0.21763 -1.771648,-0.0355 0.02254,-0.12176 -0.20868,-0.0476 -0.194027,0.12842 -1.925042,0.17144 -1.170501,0.1254 -1.735584,0.088 -1.89143,0.11525 z"
       id="path1079" />
    <path
       style="fill:#5a2000;fill-opacity:1;stroke:none;stroke-width:0.264583px;stroke-linecap:butt;stroke-linejoin:miter;stroke-opacity:1"
       d="m 98.720536,134.2712 0.454956,0.60045 0.06264,0.2882 -0.0677,0.25963 -0.436465,0.40793 -0.01632,0.17479 0.11607,0.15456 0.13208,-0.14675 0.43199,-0.52246 0.439793,-0.24941 0.59439,-0.0963 0.60163,-0.007 0.85015,0.032 0.60014,0.0689 0.53611,-0.0278 0.40321,0.0362 0.32715,0.0798 0.75047,0.0303 0.35131,-0.16704 0.37599,0.0139 0.48008,-0.0365 0.34246,-0.10279 0.48084,-0.0765 0.43223,-0.15977 0.15086,-0.13283 0.0166,-0.17902 -0.41059,-0.0525 -0.52408,0.11679 -0.38607,0.11045 h -0.65491 l -0.34136,-0.16695 -0.51071,0.007 -1.02788,0.0139 -0.53561,0.0139 -0.40504,0.0835 -1.207,-0.036 -0.58822,-0.0824 -0.690958,0.0429 -0.240371,-0.0621 -0.252886,-0.19675 -0.0897,-0.12375 z"
       id="path1081" />
    <path
       style="fill:#5a2000;fill-opacity:1;stroke:none;stroke-width:0.264583px;stroke-linecap:butt;stroke-linejoin:miter;stroke-opacity:1"
       d="m 103.5295,124.96542 0.31393,0.0778 0.18129,-0.13526 0.11984,0.005 0.006,0.10895 1.39848,0.0423 1.04813,-0.0596 c 0,0 0.3929,-0.007 0.42929,-0.003 0.0364,0.003 0.3364,0.0822 0.3364,0.0822 l 0.63072,0.31149 0.46734,0.10567 0.4359,0.0275 0.15083,-0.08 -0.17708,-0.11989 -0.53884,-0.13731 -0.46718,-0.35328 -0.50716,-0.20328 -0.55168,-0.17588 -0.45944,-0.007 -0.587,-0.009 -0.42687,0.0348 -0.4511,0.0867 -0.42768,0.0488 -0.27866,-0.0383 -0.33574,0.0993 -0.25514,0.12 z"
       id="path1083" />
    <path
       style="fill:#5a2000;fill-opacity:1;stroke:none;stroke-width:0.264583px;stroke-linecap:butt;stroke-linejoin:miter;stroke-opacity:1"
       d="m 116.99017,125.23595 -0.70421,0.33178 -0.56274,0.17005 -0.48414,0.18806 -0.22552,0.1324 0.12876,0.12273 c 0,0 0.57703,0.04 0.62423,0.04 0.0472,0 0.8721,-0.18057 0.91601,-0.18405 0.0439,-0.003 0.62264,-0.18387 0.67198,-0.19431 0.0493,-0.0105 1.07468,-0.18411 1.12895,-0.18411 0.0543,0 1.40377,0.0213 1.40377,0.0213 l 2.81144,0.0736 2.32343,-0.0208 4.02211,-0.0352 1.47599,-0.20129 c 0,0 0.9895,-0.0229 1.02966,-0.0229 0.0401,0 1.11566,0.0783 1.1548,0.0888 0.0392,0.0104 0.69634,0.18408 0.69634,0.18408 l 0.31307,-0.0987 1.14981,-1.02878 -0.11827,-0.0976 -0.27595,0.0487 -0.59548,0.24584 -0.47137,0.31399 -0.59509,0.009 -0.70656,-0.18114 -2.11454,-0.0472 -1.70985,0.0846 -1.59419,0.13769 -2.90519,-0.0471 -1.79213,-0.0674 -1.48149,-0.0345 -0.42675,0.0281 -0.60418,-0.0434 -0.87212,-0.1279 -1.13922,-0.0701 -1.03423,-0.16517 c 0,0 -0.58177,-0.11642 -0.64249,-0.11642 -0.0607,0 -0.37354,-0.0465 -0.37354,-0.0465 l -0.38164,-0.15342 -0.24593,0.0538 -0.15678,0.18287 0.21706,0.18856 0.39054,0.0211 0.64254,-0.0366 0.58777,0.31308 z"
       id="path1085" />
    <path
       style="fill:#5a2000;fill-opacity:1;stroke:none;stroke-width:0.264583px;stroke-linecap:butt;stroke-linejoin:miter;stroke-opacity:1"
       d="m 128.28274,136.03518 0.7585,0.0189 0.95985,-0.58437 2.10612,-0.29314 0.85608,0.16228 1.00123,0.44657 4.63246,-0.0152 0.65514,-0.28751 2.11255,-0.23435 2.55151,-0.53071 -6.13,0.0807 -3.15153,-0.17554 -2.25014,-0.11806 -2.00436,0.18013 -1.28152,0.53194 -0.83041,0.47047 z"
       id="path1087" />
  </g>
</svg>
