<?xml version="1.0" encoding="UTF-8" standalone="no"?>
<!-- Created with Inkscape (http://www.inkscape.org/) -->

<svg
   xmlns:dc="http://purl.org/dc/elements/1.1/"
   xmlns:cc="http://creativecommons.org/ns#"
   xmlns:rdf="http://www.w3.org/1999/02/22-rdf-syntax-ns#"
   xmlns:svg="http://www.w3.org/2000/svg"
   xmlns="http://www.w3.org/2000/svg"
   xmlns:sodipodi="http://sodipodi.sourceforge.net/DTD/sodipodi-0.dtd"
   xmlns:inkscape="http://www.inkscape.org/namespaces/inkscape"
   width="25.830923mm"
   height="29.129875mm"
   viewBox="0 0 25.830923 29.129875"
   version="1.1"
   id="svg12141"
   inkscape:version="0.92.5 (2060ec1f9f, 2020-04-08)"
   sodipodi:docname="chimney.svg"
   inkscape:export-filename="/home/eduda/Projects/MusicQuiz/assets/chimney.png"
   inkscape:export-xdpi="96"
   inkscape:export-ydpi="96">
  <defs
     id="defs12135">
    <clipPath
       clipPathUnits="userSpaceOnUse"
       id="clipPath12097">
      <path
         style="fill:none;stroke:#000000;stroke-width:0.26458335px;stroke-linecap:butt;stroke-linejoin:miter;stroke-opacity:1"
         d="M 40.27332,78.365918 58.794154,55.94248 69.311342,54.884147 68.583738,43.573209 29.689987,45.226855 30.219153,74.000293 Z"
         id="path12099"
         inkscape:connector-curvature="0" />
    </clipPath>
  </defs>
  <sodipodi:namedview
     id="base"
     pagecolor="#ffffff"
     bordercolor="#666666"
     borderopacity="1.0"
     inkscape:pageopacity="0.0"
     inkscape:pageshadow="2"
     inkscape:zoom="1.979899"
     inkscape:cx="40.57741"
     inkscape:cy="-25.869445"
     inkscape:document-units="mm"
     inkscape:current-layer="layer1"
     showgrid="false"
     fit-margin-top="0"
     fit-margin-left="0"
     fit-margin-right="0"
     fit-margin-bottom="0"
     inkscape:window-width="1848"
     inkscape:window-height="1016"
     inkscape:window-x="72"
     inkscape:window-y="27"
     inkscape:window-maximized="1" />
  <metadata
     id="metadata12138">
    <rdf:RDF>
      <cc:Work
         rdf:about="">
        <dc:format>image/svg+xml</dc:format>
        <dc:type
           rdf:resource="http://purl.org/dc/dcmitype/StillImage" />
        <dc:title></dc:title>
      </cc:Work>
    </rdf:RDF>
  </metadata>
  <g
     inkscape:label="Vrstva 1"
     inkscape:groupmode="layer"
     id="layer1"
     transform="translate(-0.1151036,-0.23677747)">
    <g
       style="display:inline;opacity:1"
       id="g2371"
       transform="translate(-40.62648,-48.999265)"
       clip-path="url(#clipPath12097)">
      <path
         sodipodi:nodetypes="cccccc"
         inkscape:connector-curvature="0"
         id="path2296"
         d="M 41.23257,94.829613 41.29872,52.693161 48.935309,49.951029 65.92828,49.73184 66.081611,76.841679 Z"
         style="fill:#45465b;fill-opacity:1;stroke:#000000;stroke-width:0.97895837;stroke-linecap:butt;stroke-linejoin:miter;stroke-miterlimit:4;stroke-dasharray:none;stroke-opacity:1" />
      <path
         inkscape:connector-curvature="0"
         id="path2298"
         d="m 49.648058,49.860677 c 0,0.485071 0,0.97014 0,1.455208 0,0.0441 0,0.0882 0,0.132292 0,0.0441 -0.03118,0.10111 0,0.132292 0.03118,0.03118 0.101111,-0.03118 0.132292,0 0.0053,0.0053 0,0.480584 0,0.529166 0,0.440973 0,0.881947 0,1.322917 0,0.112006 -0.02371,0.458047 0,0.529167 0.01971,0.05916 0.104402,0.07651 0.132291,0.132291 0.01738,0.03478 0,0.459989 0,0.529167 0,0.440973 0,0.881946 0,1.322917 0,0.97014 0,1.940279 0,2.910416 0,0.617363 0,1.234724 0,1.852084 0,0.135064 0.02143,0.861772 0,0.926042 -0.01971,0.05916 -0.112569,0.07313 -0.132291,0.132291 -0.05578,0.167339 0.04278,0.358045 0,0.529167 -0.02392,0.09566 -0.101111,0.17104 -0.132292,0.264583 -0.01394,0.04184 0,0.0882 0,0.132292 0,0.0882 0,0.17639 0,0.264583 0,0.264584 0,0.529167 0,0.79375 0,0.837848 0,1.675697 0,2.513542 0,0.485071 0,0.97014 0,1.455208 0,0.0882 0,0.17639 0,0.264584 0,0.0882 -0.03944,0.1857 0,0.264583 0.01971,0.03944 0.11257,-0.03944 0.132292,0 0.03944,0.07888 0,0.17639 0,0.264583 0,0.09458 -0.02257,0.726033 0,0.79375 0.01971,0.05916 0.104402,0.07651 0.132291,0.132292 0.02011,0.04022 0,0.437817 0,0.529167 0,0.485071 0,0.97014 0,1.455208 0,1.014235 0,2.028473 0,3.042709 0,0.749651 0,1.499306 0,2.248958 0,0.264583 0,0.529167 0,0.79375 0,0.0441 0,0.08819 0,0.132292 0,0.0441 -0.01971,0.09285 0,0.132291 0.02789,0.05578 0.104402,0.07651 0.132292,0.132292 0.01971,0.03944 0,0.08819 0,0.132292 0,0.0441 0,0.08819 0,0.132291 0,0.264584 0,0.529167 0,0.79375 0,0.08819 0,0.17639 0,0.264584 0,0.0441 0.0441,0.132291 0,0.132291 -0.0441,0 0,-0.176389 0,-0.132291 0,0.08819 0,0.176389 0,0.264583 0,0.352777 0,0.705556 0,1.058333 0,0.0441 0,0.08819 0,0.132292 0,0.0441 -0.03118,0.101111 0,0.132292 0.03118,0.03118 0.08819,0 0.132292,0"
         style="fill:none;stroke:#000000;stroke-width:0.26458335px;stroke-linecap:butt;stroke-linejoin:miter;stroke-opacity:1" />
      <path
         sodipodi:nodetypes="ccccccccccccccccsccccsccccc"
         inkscape:connector-curvature="0"
         id="path2300"
         d="m 45.11798,52.58631 c -0.314149,-0.08593 -0.2328,0.0069 -0.09686,0.195114 0.28792,0.431882 -0.0795,-0.09937 0.187087,0.233859 0.03512,0.0439 0.05843,0.09642 0.09355,0.140317 0.02755,0.03444 0.06236,0.06236 0.09354,0.09355 0.04677,0.04677 0.08866,0.09899 0.140316,0.140317 0.02722,0.02178 0.06889,0.02212 0.09354,0.04677 0.106037,0.10604 -0.0279,0.102981 0.140316,0.187089 0.02789,0.01394 0.06396,-0.0099 0.09355,0 0.0209,0.007 0.02843,0.03454 0.04677,0.04677 0.02901,0.01934 0.06236,0.03118 0.09355,0.04677 0.03118,0.01558 0.06047,0.03575 0.09354,0.04677 0.04363,0.01455 0.190632,-0.01442 0.23386,0 0.02093,0.007 0.02585,0.0398 0.04677,0.04677 0.05916,0.01971 0.127926,-0.01971 0.18709,0 0.0209,0.007 0.02585,0.0398 0.04677,0.04677 0.02958,0.0099 0.06236,0 0.09355,0 h 0.09354 0.374177 0.935445 1.262848 0.327406 c 0.01558,0 0.03575,0.01103 0.04677,0 0.01103,-0.01103 -0.01103,-0.03575 0,-0.04677 0.01103,-0.01103 0.03575,0.01103 0.04677,0 0.01103,-0.01103 0.01103,-0.03575 0,-0.04677 -0.01103,-0.01103 -0.03118,0 -0.04677,0"
         style="fill:none;stroke:#000000;stroke-width:0.26458335px;stroke-linecap:butt;stroke-linejoin:miter;stroke-opacity:1" />
      <path
         inkscape:connector-curvature="0"
         id="path2302"
         d="m 47.453268,52.313711 h 0.187089"
         style="fill:none;stroke:#000000;stroke-width:0.26458335px;stroke-linecap:butt;stroke-linejoin:miter;stroke-opacity:1" />
      <path
         inkscape:connector-curvature="0"
         id="path2304"
         d="m 48.388713,51.658902 0.280633,0.09354"
         style="fill:none;stroke:#000000;stroke-width:0.26458335px;stroke-linecap:butt;stroke-linejoin:miter;stroke-opacity:1" />
      <path
         inkscape:connector-curvature="0"
         id="path2306"
         d="m 49.932194,57.084474 c 0.489069,0 -0.01802,-0.02789 0.280633,0.04677 0.07337,0.01834 0.160494,-0.01834 0.23386,0 0.03382,0.0085 0.06047,0.03575 0.09355,0.04677 0.04209,0.01402 0.09822,-0.01402 0.140317,0 0.0209,0.007 0.02705,0.03691 0.04677,0.04677 0.01048,0.0052 0.175974,0 0.187089,0 0.09354,0 0.18709,0 0.280633,0 0.07795,0 0.155909,0 0.23386,0 0.01558,0 0.03198,0.0049 0.04677,0 0.06615,-0.02204 0.120944,-0.0715 0.18709,-0.09355 0.01479,-0.0049 0.03198,0.0049 0.04677,0 0.03307,-0.01103 0.05973,-0.03832 0.09355,-0.04677 0.03025,-0.0076 0.06236,0 0.09354,0 0.07795,0 0.157422,0.01529 0.23386,0 0.03419,-0.0068 0.05936,-0.03994 0.09355,-0.04677 0.04586,-0.0092 0.09445,0.0092 0.140316,0 0.03419,-0.0068 0.05972,-0.03832 0.09354,-0.04677 0.03025,-0.0076 0.06236,0 0.09354,0 0.03118,-0.01558 0.06047,-0.03575 0.09355,-0.04677 0.04437,-0.01479 0.09494,0.01135 0.140317,0 0.03382,-0.0085 0.06047,-0.03575 0.09354,-0.04677 0.01479,-0.0049 0.03198,0.0049 0.04677,0 0.03307,-0.01103 0.06047,-0.03575 0.09354,-0.04677 0.02958,-0.0099 0.06396,0.0099 0.09354,0 0.09974,-0.03325 0.110948,-0.06417 0.18709,-0.140317 0.01558,-0.01558 0.02843,-0.03454 0.04677,-0.04677 0.05801,-0.03868 0.129074,-0.05487 0.187087,-0.09355 0.01834,-0.01222 0.02843,-0.03454 0.04677,-0.04677 0.05802,-0.03868 0.129074,-0.05487 0.187089,-0.09355 0.01921,-0.01281 0.127506,-0.1211 0.140317,-0.140316 0.01934,-0.02901 0.02743,-0.06454 0.04677,-0.09354 0.05705,-0.08558 0.05963,-0.0047 0.09355,-0.140316 0.0076,-0.03025 -0.0099,-0.06396 0,-0.09354 0.04866,-0.145992 0.03118,0.01558 0.09354,-0.04677 0.02466,-0.02466 0.02743,-0.06454 0.04677,-0.09354 0.02445,-0.03669 0.07382,-0.0541 0.09354,-0.09355 0.007,-0.01394 -0.007,-0.03283 0,-0.04677 0.02861,-0.05722 0.09474,-0.05936 0.140317,-0.09355 0.03528,-0.02646 0.05827,-0.06708 0.09355,-0.09354 0.08174,-0.0613 0.13953,-0.04638 0.23386,-0.09354 0.100557,-0.05028 0.177297,-0.142803 0.280633,-0.187089 0.05908,-0.02532 0.128002,-0.02146 0.187089,-0.04677 0.0021,-7.94e-4 0.275683,-0.184261 0.280633,-0.187087 0.06054,-0.03459 0.12655,-0.05895 0.187087,-0.09355 0.04881,-0.02789 0.09355,-0.06236 0.140316,-0.09354 0.04677,-0.03118 0.09642,-0.05843 0.140317,-0.09355 0.07445,-0.05955 0.163168,-0.163168 0.233862,-0.23386 0.03118,-0.03118 0.05827,-0.06708 0.09354,-0.09354 0.02789,-0.02093 0.06454,-0.02743 0.09354,-0.04677 0.116343,-0.07756 0.0054,-0.01074 0.04677,-0.09354 0.0099,-0.01971 0.03118,-0.03118 0.04677,-0.04677 0.03653,-0.03653 0.113409,-0.09996 0.140317,-0.140316 0.05374,-0.08062 0.04677,-0.0707 0.04677,-0.140317 0,-0.01558 0,-0.03118 0,-0.04677 0,-0.01558 -0.007,-0.03283 0,-0.04677 0.03323,-0.06646 0.06032,-0.02708 0.09355,-0.09355 0.007,-0.01394 0,-0.03118 0,-0.04677 0.01558,-0.03118 0.02743,-0.06454 0.04677,-0.09355 0.05705,-0.08558 0.05963,-0.0047 0.09355,-0.140316 0.01135,-0.04537 -0.01479,-0.09594 0,-0.140317 0.01103,-0.03307 0.03832,-0.05972 0.04677,-0.09354 0.0076,-0.03025 -0.0099,-0.06396 0,-0.09354 0.007,-0.02093 0.0398,-0.02585 0.04677,-0.04677 0.0099,-0.02958 -0.0076,-0.06329 0,-0.09354 0.0085,-0.03382 0.03575,-0.06047 0.04677,-0.09355 0.0099,-0.02958 -0.0099,-0.06396 0,-0.09354 0.01103,-0.03307 0.03575,-0.06047 0.04677,-0.09354 0.01479,-0.04437 -0.01135,-0.09494 0,-0.140316 0.0085,-0.03382 0.03575,-0.06047 0.04677,-0.09355 0.01336,-0.04007 -0.01032,-0.145826 0,-0.187087 0.0085,-0.03382 0.03575,-0.06047 0.04677,-0.09355 0.0049,-0.01479 -0.0049,-0.03198 0,-0.04677 0.01103,-0.03307 0.03832,-0.05972 0.04677,-0.09355 0.0076,-0.03025 -0.0099,-0.06396 0,-0.09354 0.007,-0.02093 0.0398,-0.02585 0.04677,-0.04677 0.01445,-0.04333 -0.01495,-0.189043 0,-0.23386 0.01103,-0.03307 0.03832,-0.05973 0.04677,-0.09354 0.01135,-0.04538 -0.01479,-0.09595 0,-0.140316 0.01103,-0.03307 0.03575,-0.06047 0.04677,-0.09355 0.0088,-0.02638 0,-0.109583 0,-0.140317 0,-0.07795 0,-0.155906 0,-0.23386 0,-0.327406 0,-0.654809 0,-0.982215 0,-0.109135 0,-0.218271 0,-0.327406 0,-0.01558 0,-0.03118 0,-0.04677 0,-0.01558 -0.01558,-0.04677 0,-0.04677 0.01558,0 0,0.03118 0,0.04677"
         style="fill:none;stroke:#000000;stroke-width:0.26458335px;stroke-linecap:butt;stroke-linejoin:miter;stroke-opacity:1" />
      <path
         inkscape:connector-curvature="0"
         id="path2314"
         d="m 55.778716,53.436243 -0.18709,0.233863"
         style="fill:none;stroke:#000000;stroke-width:0.26458335px;stroke-linecap:butt;stroke-linejoin:miter;stroke-opacity:1" />
      <path
         inkscape:connector-curvature="0"
         id="path2316"
         d="m 54.141689,54.465231 -0.04677,0.327406"
         style="fill:none;stroke:#000000;stroke-width:0.26458335px;stroke-linecap:butt;stroke-linejoin:miter;stroke-opacity:1" />
      <path
         inkscape:connector-curvature="0"
         id="path2318"
         d="m 52.785297,55.821626 -0.374179,0.140316"
         style="fill:none;stroke:#000000;stroke-width:0.26458335px;stroke-linecap:butt;stroke-linejoin:miter;stroke-opacity:1" />
      <path
         inkscape:connector-curvature="0"
         id="path2320"
         d="m 59.847894,55.213587 c -0.0375,0.197138 -0.162756,0.01122 -0.233863,0.04677 -0.03944,0.01971 -0.05171,0.0796 -0.09354,0.09354 -0.02958,0.0099 -0.06236,0 -0.09354,0 -0.01558,0 -0.03283,-0.007 -0.04677,0 -0.04603,0.02302 -0.141063,0.164076 -0.18709,0.18709 -0.02789,0.01394 -0.0715,-0.02204 -0.09354,0 -0.01103,0.01103 0.01103,0.03575 0,0.04677 -0.124725,0 0.01558,-0.01558 -0.04677,0.04677 -0.02204,0.02204 -0.07149,-0.02204 -0.09354,0 -0.01103,0.01103 0.007,0.03283 0,0.04677 -0.0099,0.01971 -0.03118,0.03118 -0.04677,0.04677 -0.01558,0.01558 -0.02705,0.03691 -0.04677,0.04677 -0.01394,0.007 -0.03283,-0.007 -0.04677,0 -0.0089,0.0045 -0.182613,0.178136 -0.18709,0.187089 -0.007,0.01394 0.01103,0.03575 0,0.04677 -0.01103,0.01103 -0.03283,-0.007 -0.04677,0 -0.03328,0.01664 -0.06026,0.0769 -0.09355,0.09355 -0.06451,0.03225 -0.04184,-0.05664 -0.09354,0.04677 -0.01394,0.02789 0.02204,0.0715 0,0.09355 -0.01103,0.01103 -0.03283,-0.007 -0.04677,0 -0.0089,0.0045 -0.18261,0.178134 -0.187087,0.187087 0,0.124727 0.01558,-0.01558 -0.04677,0.04677 -0.01103,0.01103 0.007,0.03283 0,0.04677 -0.0099,0.01971 -0.03118,0.03118 -0.04677,0.04677 -0.02463,0.02463 -0.127825,0.115337 -0.140316,0.140316 -0.007,0.01394 0.007,0.03283 0,0.04677 -0.0099,0.01971 -0.0398,0.02585 -0.04677,0.04677 -0.0099,0.02958 0.0099,0.06396 0,0.09354 -0.01394,0.04183 -0.0796,0.05171 -0.09355,0.09354 -0.0099,0.02958 0.0099,0.06396 0,0.09355 -0.01394,0.04183 -0.0796,0.05171 -0.09354,0.09354 -0.01971,0.05916 0.01971,0.127926 0,0.187089 -0.007,0.0209 -0.03691,0.02705 -0.04677,0.04677 -0.007,0.01394 0.0049,0.03198 0,0.04677 -0.01103,0.03307 -0.03832,0.05972 -0.04677,0.09354 -0.0076,0.03025 0.0099,0.06396 0,0.09355 -0.007,0.02093 -0.03691,0.02705 -0.04677,0.04677 -0.007,0.01394 0,0.03118 0,0.04677 0,0.03118 0.0076,0.06329 0,0.09354 -0.0085,0.03382 -0.03994,0.05936 -0.04677,0.09355 -0.01222,0.06115 0,0.124725 0,0.187087 0,0.140316 0,0.280633 0,0.420949 0,0.124728 0,0.249452 0,0.374179 0,0.03118 0,0.06236 0,0.09354 0,0.01558 -0.0049,0.03198 0,0.04677 0.112932,0.338788 -0.01349,-0.07374 0.09355,0.140316 0.007,0.01394 -0.01103,0.03575 0,0.04677 0.02204,0.02204 0.0715,-0.02204 0.09354,0 0.01103,0.01103 -0.01103,0.03575 0,0.04677 0.01103,0.01103 0.03283,-0.007 0.04677,0 0.03944,0.01971 0.0541,0.07382 0.09354,0.09354 0.01394,0.007 0.03198,-0.0049 0.04677,0 0.03307,0.01103 0.06047,0.03575 0.09354,0.04677 0.02958,0.0099 0.06565,-0.01394 0.09354,0 0.01971,0.0099 0.02705,0.03691 0.04677,0.04677 0.01394,0.007 0.03283,-0.007 0.04677,0 0.01971,0.0099 0.02705,0.03691 0.04677,0.04677 0.01394,0.007 0.03575,-0.01103 0.04677,0 0.01103,0.01103 -0.01394,0.0398 0,0.04677 0.02789,0.01394 0.06396,-0.0099 0.09354,0 0.02093,0.007 0.02705,0.03691 0.04677,0.04677 0.01394,0.007 0.03283,-0.007 0.04677,0 0.01971,0.0099 0.02585,0.0398 0.04677,0.04677 0.02958,0.0099 0.06236,0 0.09355,0 0.03118,0 0.06236,0 0.09354,0 0.140317,0 0.280633,0 0.42095,0 0.01593,0 0.161776,-0.0084 0.187089,0 0.03307,0.01103 0.06047,0.03575 0.09354,0.04677 0.02638,0.0088 0.109582,0 0.140316,0 0.109135,0 0.218271,0 0.327406,0 0.09354,0 0.18709,0 0.280633,0 0.03118,0 0.06236,0 0.09354,0 0.01558,0 0.03198,0.0049 0.04677,0 0.03307,-0.01103 0.06047,-0.03575 0.09354,-0.04677 0.0497,-0.01656 0.137387,0.01656 0.187089,0 0.02093,-0.007 0.02705,-0.03691 0.04677,-0.04677 0.06451,-0.03226 0.04184,0.05664 0.09354,-0.04677 0.007,-0.01394 -0.01103,-0.03575 0,-0.04677 0.01103,-0.01103 0.03283,0.007 0.04677,0 0.01934,-0.0097 0.127098,-0.120492 0.140316,-0.140317 0.01934,-0.02901 0.02212,-0.06889 0.04677,-0.09354 0.02466,-0.02466 0.06454,-0.02743 0.09355,-0.04677 0.04036,-0.02691 0.103783,-0.103783 0.140316,-0.140317 0.01558,-0.01558 0.02705,-0.03691 0.04677,-0.04677 0.01394,-0.007 0.03575,0.01103 0.04677,0 0.01103,-0.01103 -0.007,-0.03283 0,-0.04677 0.155122,-0.155123 -0.02204,0.0441 0.04677,-0.09354 0.01971,-0.03944 0.07382,-0.0541 0.09354,-0.09355 0.007,-0.01394 -0.01103,-0.03575 0,-0.04677 0.02204,-0.02204 0.0715,0.02204 0.09354,0 0.01103,-0.01103 -0.01103,-0.03575 0,-0.04677 0.01103,-0.01103 0.03575,0.01103 0.04677,0 0.01103,-0.01103 -0.007,-0.03283 0,-0.04677 0.0099,-0.01971 0.03691,-0.02705 0.04677,-0.04677 0.007,-0.01394 -0.01103,-0.03575 0,-0.04677 0.01103,-0.01103 0.03575,0.01103 0.04677,0 0.01103,-0.01103 -0.01103,-0.03575 0,-0.04677 0.01103,-0.01103 0.03283,0.007 0.04677,0 0.155123,-0.155122 -0.0441,0.02204 0.09354,-0.04677 0.01971,-0.0099 0.02913,-0.03354 0.04677,-0.04677 0.04497,-0.03373 0.09211,-0.06462 0.140316,-0.09354 0.02989,-0.01794 0.06236,-0.03118 0.09354,-0.04677 0.04677,-0.01558 0.09804,-0.0214 0.140316,-0.04677 0.07563,-0.04537 0.116533,-0.13417 0.18709,-0.187086 0.05578,-0.04184 0.129074,-0.05487 0.187089,-0.09355 0.01982,-0.0132 0.130641,-0.120964 0.140317,-0.140316 0.007,-0.01394 -0.01103,-0.03575 0,-0.04677 0.01103,-0.01103 0.03575,0.01103 0.04677,0 0.01103,-0.01103 -0.007,-0.03283 0,-0.04677 0.0099,-0.01971 0.03691,-0.02705 0.04677,-0.04677 0.007,-0.01394 0,-0.03118 0,-0.04677 0,-0.01558 0,-0.03118 0,-0.04677 0,-0.09354 0,-0.187089 0,-0.280633 0,-0.09354 0,-0.187089 0,-0.280633 0,-0.04677 0.01479,-0.09595 0,-0.140316 -0.007,-0.02093 -0.03454,-0.02843 -0.04677,-0.04677 -0.01934,-0.02901 -0.03575,-0.06047 -0.04677,-0.09354 -0.0099,-0.02958 0.01394,-0.06565 0,-0.09354 -0.01971,-0.03944 -0.07382,-0.0541 -0.09355,-0.09355 -0.007,-0.01394 0.007,-0.03283 0,-0.04677 -0.01971,-0.03944 -0.07382,-0.0541 -0.09354,-0.09355 -0.007,-0.01394 0.01103,-0.03575 0,-0.04677 -0.01103,-0.01103 -0.03575,0.01103 -0.04677,0 -0.01103,-0.01103 0.007,-0.03283 0,-0.04677 -0.155122,-0.155126 0.02204,0.0441 -0.04677,-0.09354 -0.02302,-0.04603 -0.164076,-0.141065 -0.18709,-0.187089 -0.0576,-0.115197 0.135768,0.04222 -0.04677,-0.140317 -0.01103,-0.01103 -0.03283,0.007 -0.04677,0 -0.01241,-0.0062 -0.13411,-0.127897 -0.140317,-0.140316 -0.03226,-0.06452 0.05664,-0.04184 -0.04677,-0.09354 -0.0828,-0.0414 -0.01598,0.06957 -0.09354,-0.04677 -0.01934,-0.02901 -0.02743,-0.06454 -0.04677,-0.09354 -0.01222,-0.01834 -0.03691,-0.02705 -0.04677,-0.04677 -0.007,-0.01394 0.01103,-0.03575 0,-0.04677 -0.01445,-0.01445 -0.219522,0.01434 -0.23386,0 -0.01103,-0.01103 0.01103,-0.03575 0,-0.04677 -0.02204,-0.02204 -0.06565,0.01394 -0.09354,0 -0.01971,-0.0099 -0.03118,-0.03118 -0.04677,-0.04677 -0.03118,0 -0.06396,0.0099 -0.09354,0 -0.02093,-0.007 -0.02585,-0.0398 -0.04677,-0.04677 -0.02394,-0.008 -0.247195,0 -0.280633,0 -0.03118,0 -0.06396,0.0099 -0.09354,0 -0.02093,-0.007 -0.02705,-0.03691 -0.04677,-0.04677 -0.01394,-0.007 -0.03118,0 -0.04677,0 -0.01558,0 -0.03118,0 -0.04677,0 -0.07795,0 -0.155908,0 -0.233863,0 -0.01558,0 -0.03283,0.007 -0.04677,0 -0.01971,-0.0099 -0.02705,-0.03691 -0.04677,-0.04677 -0.0123,-0.0061 -0.162632,0 -0.18709,0 -0.124724,0 -0.249451,0 -0.374176,0 z"
         style="fill:none;stroke:#000000;stroke-width:0.26458335px;stroke-linecap:butt;stroke-linejoin:miter;stroke-opacity:1" />
      <path
         inkscape:connector-curvature="0"
         id="path2322"
         d="m 59.707578,56.476435 -0.140317,0.327406"
         style="fill:none;stroke:#000000;stroke-width:0.26458335px;stroke-linecap:butt;stroke-linejoin:miter;stroke-opacity:1" />
      <path
         inkscape:connector-curvature="0"
         id="path2324"
         d="m 58.678589,57.739284 c 0,0.06236 0,0.124724 0,0.187089"
         style="fill:none;stroke:#000000;stroke-width:0.26458335px;stroke-linecap:butt;stroke-linejoin:miter;stroke-opacity:1" />
      <path
         inkscape:connector-curvature="0"
         id="path2326"
         d="m 59.98821,58.815042 0.374177,-0.46772"
         style="fill:none;stroke:#000000;stroke-width:0.26458335px;stroke-linecap:butt;stroke-linejoin:miter;stroke-opacity:1" />
      <path
         inkscape:connector-curvature="0"
         id="path2328"
         d="m 46.751685,60.405297 c -0.06236,-0.06236 -0.118218,-0.131993 -0.187086,-0.18709 -0.01217,-0.0097 -0.03198,0.0049 -0.04677,0 -0.03307,-0.01103 -0.06118,-0.03382 -0.09354,-0.04677 -0.07404,-0.02961 -0.258416,-0.08369 -0.327406,-0.09355 -0.0463,-0.0066 -0.09401,0.0066 -0.140316,0 -0.06363,-0.0091 -0.123452,-0.03768 -0.18709,-0.04677 -0.0463,-0.0066 -0.09445,0.0092 -0.140316,0 -0.03419,-0.0068 -0.05936,-0.03994 -0.09354,-0.04677 -0.07644,-0.01529 -0.158234,0.01892 -0.23386,0 -0.03382,-0.0085 -0.05972,-0.03832 -0.09355,-0.04677 -0.03649,-0.0091 -0.226041,0 -0.280633,0 -0.109135,0 -0.218271,0 -0.327403,0 -0.04677,0 -0.09494,-0.01135 -0.140317,0 -0.03382,0.0085 -0.05972,0.03832 -0.09355,0.04677 -0.03025,0.0076 -0.06236,0 -0.09354,0 -0.03118,0.01558 -0.06047,0.03575 -0.09354,0.04677 -0.01479,0.0049 -0.03198,-0.0049 -0.04677,0 -0.03307,0.01103 -0.06047,0.03575 -0.09354,0.04677 -0.0864,0.0288 -0.02217,-0.07137 -0.140317,0.04677 -0.01103,0.01103 0.007,0.03283 0,0.04677 -0.0099,0.01971 -0.03118,0.03118 -0.04677,0.04677 -0.02106,0.02106 -0.133199,0.118967 -0.140316,0.140319 -0.0099,0.02958 0,0.06236 0,0.09354 0,0.01558 0.007,0.03283 0,0.04677 -0.0099,0.01971 -0.0398,0.02585 -0.04677,0.04677 -0.0099,0.02958 0,0.06236 0,0.09355 0,0.01558 0.007,0.03283 0,0.04677 -0.01971,0.03944 -0.07382,0.0541 -0.09354,0.09355 -0.007,0.01394 0.0049,0.03198 0,0.04677 -0.02204,0.06615 -0.07149,0.120944 -0.09354,0.18709 -0.0049,0.01479 0,0.03118 0,0.04677 0,0.04896 0.0095,0.242596 0,0.280633 -0.0085,0.03382 -0.03575,0.06047 -0.04677,0.09354 -0.0049,0.01479 0,0.03118 0,0.04677 0,0.03118 0,0.06236 0,0.09354 0,0.07795 0,0.155905 0,0.23386 0,0.03118 0,0.06236 0,0.09355 0,0.01558 0.007,0.03283 0,0.04677 -0.0099,0.01971 -0.0398,0.02585 -0.04677,0.04677 -0.0099,0.02958 0,0.06236 0,0.09354 0,0.02612 0.0071,0.21245 0,0.233863 -0.007,0.0209 -0.03691,0.02705 -0.04677,0.04677 -0.0085,0.01704 0,0.206913 0,0.233863 0,0.155906 0,0.311814 0,0.46772 0,0.155908 0,0.311814 0,0.467722 0,0.05363 -0.01212,0.138639 0,0.18709 0.0084,0.03382 0.03831,0.05972 0.04677,0.09354 0.0076,0.03025 0,0.06236 0,0.09354 0.01558,0.03118 0.03575,0.06047 0.04677,0.09355 0.01336,0.04007 -0.01032,0.145825 0,0.187087 0.0085,0.03382 0.03575,0.06047 0.04677,0.09355 0.0049,0.01479 -0.0049,0.03198 0,0.04677 0.04528,0.135858 0.04895,0.06526 0.140316,0.18709 0.100582,0.03767 0.01111,0.133604 0.04677,0.187089 0.01934,0.02901 0.0689,0.02212 0.09355,0.04677 0.02466,0.02466 0.02585,0.06566 0.04677,0.09355 0.02646,0.03528 0.06909,0.05685 0.09355,0.09354 0.0087,0.01296 -0.01103,0.03575 0,0.04677 0.02466,0.02466 0.06889,0.02212 0.09354,0.04677 0.02466,0.02466 0.02743,0.06454 0.04677,0.09355 0.02838,0.04258 0.119586,0.09886 0.140316,0.140316 0.007,0.01394 0,0.03118 0,0.04677 0.01558,0.03118 0.02743,0.06454 0.04677,0.09355 0.02838,0.04258 0.119589,0.09886 0.140316,0.140316 0.007,0.01394 -0.007,0.03283 0,0.04677 0.0099,0.01971 0.03118,0.03118 0.04677,0.04677 0.01558,0.01558 0.02705,0.03691 0.04677,0.04677 0.01394,0.007 0.03283,-0.007 0.04677,0 0.05613,0.02806 0.08419,0.112252 0.140316,0.140316 0.02789,0.01394 0.06566,-0.01394 0.09355,0 0.01971,0.0099 0.02705,0.03691 0.04677,0.04677 0.0294,0.01469 0.157691,-0.01471 0.187089,0 0.01971,0.0099 0.02705,0.03691 0.04677,0.04677 0.01394,0.007 0.03118,0 0.04677,0 0.03118,0 0.06236,0 0.09355,0 0.109135,0 0.218268,0 0.327403,0 0.233863,0 0.467723,0 0.701582,0 0.129707,0 -0.07466,-0.007 0.140317,0.04677 0.04538,0.01135 0.09355,0 0.140316,0 0.09355,0 0.18709,0 0.280633,0 0.140317,0 0.280633,0 0.42095,0 0.03829,0 0.203557,0.01011 0.233862,0 0.03307,-0.01103 0.05972,-0.03832 0.09354,-0.04677 0.04176,-0.01045 0.179721,0 0.23386,0 0.01558,0 0.03575,0.01103 0.04677,0 0.01103,-0.01103 -0.01103,-0.03575 0,-0.04677 0.01103,-0.01103 0.03283,0.007 0.04677,0 0.02167,-0.01082 0.159578,-0.159581 0.187087,-0.187089 0.01558,-0.01558 0.02705,-0.03691 0.04677,-0.04677 0.01394,-0.007 0.03283,0.007 0.04677,0 0.01971,-0.0099 0.02705,-0.03691 0.04677,-0.04677 0.01394,-0.007 0.03283,0.007 0.04677,0 0.01971,-0.0099 0.03118,-0.03118 0.04677,-0.04677 0.01558,-0.01558 0.03691,-0.02705 0.04677,-0.04677 0.007,-0.01394 -0.01103,-0.03575 0,-0.04677 0.09677,-0.09677 -0.0038,0.147884 0.09355,-0.04677 0.007,-0.01394 -0.007,-0.03283 0,-0.04677 0.155122,-0.155123 -0.02204,0.0441 0.04677,-0.09354 0.02302,-0.04603 0.164076,-0.141065 0.18709,-0.187089 0.01394,-0.02789 -0.02204,-0.0715 0,-0.09354 0.01103,-0.01103 0.03575,0.01103 0.04677,0 0.0164,-0.0164 -0.01614,-0.201554 0,-0.233862 0.0099,-0.01971 0.03691,-0.02705 0.04677,-0.04677 0.0069,-0.01386 0,-0.235394 0,-0.280633 0,-0.05607 0.0087,-0.34822 0,-0.374179 -0.007,-0.0209 -0.0398,-0.02585 -0.04677,-0.04677 -0.0099,-0.02958 0.0076,-0.06329 0,-0.09355 -0.0085,-0.03382 -0.03575,-0.06047 -0.04677,-0.09354 -0.0049,-0.01479 0.0049,-0.03198 0,-0.04677 -0.01103,-0.03307 -0.03832,-0.05972 -0.04677,-0.09354 -0.01135,-0.04538 0.01479,-0.09594 0,-0.140317 -0.01103,-0.03307 -0.03832,-0.05972 -0.04677,-0.09354 -0.0076,-0.03025 0.0099,-0.06396 0,-0.09355 -0.007,-0.0209 -0.0398,-0.02585 -0.04677,-0.04677 -0.01291,-0.03874 0.01487,-0.204118 0,-0.233862 -0.107029,-0.214056 0.01939,0.198474 -0.09354,-0.140317 -0.0049,-0.01479 0.0049,-0.03198 0,-0.04677 -0.01103,-0.03307 -0.03118,-0.06236 -0.04677,-0.09355 -0.01558,-0.03118 -0.02744,-0.06454 -0.04677,-0.09354 -0.01222,-0.01834 -0.03691,-0.02705 -0.04677,-0.04677 -0.01394,-0.02789 0.0099,-0.06396 0,-0.09354 -0.01103,-0.03307 -0.03575,-0.06047 -0.04677,-0.09354 -0.0049,-0.01479 0.007,-0.03283 0,-0.04677 -0.0099,-0.01971 -0.03691,-0.02705 -0.04677,-0.04677 -0.007,-0.01394 0.0049,-0.03198 0,-0.04677 -0.112929,-0.338791 0.01349,0.07374 -0.09354,-0.140316 -0.007,-0.01394 0.007,-0.03283 0,-0.04677 -0.0099,-0.01971 -0.03691,-0.02705 -0.04677,-0.04677 -0.01394,-0.02789 0.01394,-0.06565 0,-0.09354 -0.01971,-0.03944 -0.06908,-0.05685 -0.09354,-0.09354 -0.01558,-0.03118 -0.03118,-0.06236 -0.04677,-0.09355 0,-0.01558 0.007,-0.03283 0,-0.04677 -0.0099,-0.01971 -0.03691,-0.02705 -0.04677,-0.04677 -0.007,-0.01394 0,-0.03118 0,-0.04677 -0.01558,-0.01558 -0.03691,-0.02705 -0.04677,-0.04677 -0.02495,-0.0499 0.02495,-0.04365 0,-0.09355 -0.02806,-0.05613 -0.112252,-0.08419 -0.140317,-0.140317 -0.007,-0.01394 0.007,-0.03283 0,-0.04677 -0.0099,-0.01971 -0.03691,-0.02705 -0.04677,-0.04677 -0.007,-0.01394 0.007,-0.03283 0,-0.04677 -0.0099,-0.01971 -0.03691,-0.02705 -0.04677,-0.04677 -0.01871,-0.03742 0.01871,-0.102899 0,-0.140316 -0.01971,-0.03944 -0.07382,-0.0541 -0.09355,-0.09355 -0.007,-0.01394 0.01103,-0.03575 0,-0.04677 -0.01103,-0.01103 -0.03575,0.01103 -0.04677,0 -0.01103,-0.01103 0.007,-0.03283 0,-0.04677 -0.0099,-0.01971 -0.03691,-0.02705 -0.04677,-0.04677 -0.007,-0.01394 0.01103,-0.03575 0,-0.04677 -0.01103,-0.01103 -0.03575,0.01103 -0.04677,0 -0.01103,-0.01103 0.007,-0.03283 0,-0.04677 -0.01082,-0.02167 -0.159578,-0.159581 -0.187087,-0.18709 -0.01558,-0.01558 -0.03691,-0.02705 -0.04677,-0.04677 -0.0093,-0.01855 0.0096,-0.130757 0,-0.140317 -0.01103,-0.01103 -0.03575,0.01103 -0.04677,0 -0.01103,-0.01103 0.01103,-0.03575 0,-0.04677 -0.01103,-0.01103 -0.03118,0 -0.04677,0 -0.116496,0 -0.03283,-0.007 -0.233863,0.09354 z"
         style="fill:none;stroke:#000000;stroke-width:0.26458335px;stroke-linecap:butt;stroke-linejoin:miter;stroke-opacity:1" />
      <path
         inkscape:connector-curvature="0"
         id="path2330"
         d="m 45.863016,61.387512 0.701583,0.608039"
         style="fill:none;stroke:#000000;stroke-width:0.26458335px;stroke-linecap:butt;stroke-linejoin:miter;stroke-opacity:1" />
      <path
         inkscape:connector-curvature="0"
         id="path2332"
         d="m 45.348521,62.556817 c 0.100517,0.201033 0.09355,0.117364 0.09355,0.23386"
         style="fill:none;stroke:#000000;stroke-width:0.26458335px;stroke-linecap:butt;stroke-linejoin:miter;stroke-opacity:1" />
      <path
         inkscape:connector-curvature="0"
         id="path2334"
         d="m 46.751685,63.351943 0.140317,0.654812"
         style="fill:none;stroke:#000000;stroke-width:0.26458335px;stroke-linecap:butt;stroke-linejoin:miter;stroke-opacity:1" />
      <path
         inkscape:connector-curvature="0"
         id="path2336"
         d="m 49.932194,71.256439 c -0.07795,0.03118 -0.155908,0.06236 -0.23386,0.09355 -0.03118,0 -0.06396,-0.0099 -0.09355,0 -0.0209,0.007 -0.02705,0.03691 -0.04677,0.04677 -0.01394,0.007 -0.03118,0 -0.04677,0 -0.03118,0 -0.06329,-0.0076 -0.09354,0 -0.03382,0.0085 -0.05936,0.03994 -0.09355,0.04677 -0.04586,0.0092 -0.09445,-0.0092 -0.140316,0 -0.08465,-0.02819 -0.08699,0.07577 -0.140317,0.09355 -0.02958,0.0099 -0.06396,-0.0099 -0.09354,0 -0.02093,0.007 -0.02705,0.03691 -0.04677,0.04677 -0.01394,0.007 -0.03118,0 -0.04677,0 -0.01558,0.01558 -0.02705,0.03691 -0.04677,0.04677 -0.03742,0.01871 -0.102899,-0.01871 -0.140316,0 -0.04146,0.02072 -0.09774,0.111932 -0.140317,0.140316 -0.02901,0.01934 -0.06454,0.02743 -0.09355,0.04677 -0.01834,0.01222 -0.02705,0.03691 -0.04677,0.04677 -0.01394,0.007 -0.0338,-0.0087 -0.04677,0 -0.03669,0.02445 -0.06236,0.06236 -0.09354,0.09355 -0.03118,0.03118 -0.06909,0.05685 -0.09355,0.09354 -0.0087,0.01296 0.01394,0.0398 0,0.04677 -0.02789,0.01394 -0.06329,-0.0076 -0.09354,0 -0.129889,0.03247 -0.177364,0.165016 -0.280633,0.23386 -0.08354,0.05569 -0.03554,-0.138477 -0.09354,0.09354 0,0.310248 0.02204,-0.06615 -0.04677,0.140316 -0.0093,0.02781 0,0.225386 0,0.280633 0,0.01558 0.0049,0.03198 0,0.04677 -0.01103,0.03307 -0.03575,0.06047 -0.04677,0.09354 -0.01479,0.04437 0.01135,0.09494 0,0.140316 -0.0084,0.03382 -0.03575,0.06047 -0.04677,0.09355 -0.0049,0.01479 0,0.03118 0,0.04677 0,0.03118 0,0.06236 0,0.09355 0,0.09354 0,0.187087 0,0.280633 0,0.03118 0.0099,0.06396 0,0.09354 -0.007,0.02093 -0.0398,0.02585 -0.04677,0.04677 -0.0089,0.02661 0,0.189807 0,0.23386 0,0.171498 0,0.342995 0,0.514493 0,0.01135 -0.0016,0.138814 0,0.140317 0.01103,0.01103 0.03575,-0.01103 0.04677,0 0.02466,0.02466 0.02744,0.06454 0.04677,0.09355 0.01222,0.01833 0.03691,0.02705 0.04677,0.04677 0.007,0.01394 -0.007,0.03283 0,0.04677 0.0099,0.01971 0.03691,0.02705 0.04677,0.04677 0.01394,0.02789 -0.01394,0.06565 0,0.09354 0.0099,0.01971 0.03691,0.02705 0.04677,0.04677 0.007,0.01394 -0.007,0.03283 0,0.04677 0.05171,0.103418 0.02903,0.01453 0.09355,0.04677 0.01934,0.0097 0.1271,0.120491 0.140316,0.140316 0.01934,0.02901 0.02212,0.06889 0.04677,0.09354 0.01103,0.01103 0.03198,-0.0049 0.04677,0 0.03307,0.01103 0.06889,0.02212 0.09354,0.04677 0.01103,0.01103 -0.01103,0.03575 0,0.04677 0.02466,0.02466 0.06454,0.02744 0.09355,0.04677 0.03669,0.02447 0.0541,0.07382 0.09354,0.09355 0.03742,0.01871 0.102899,-0.01871 0.140316,0 0.04146,0.02072 0.09774,0.111931 0.140317,0.140316 0.02901,0.01934 0.06236,0.03118 0.09354,0.04677 0.03118,0.01558 0.06047,0.03575 0.09355,0.04677 0.03765,0.01254 0.1572,-0.01495 0.18709,0 0.01971,0.0099 0.02705,0.03691 0.04677,0.04677 0.01394,0.007 0.03283,-0.007 0.04677,0 0.01971,0.0099 0.02705,0.03691 0.04677,0.04677 0.01394,0.007 0.03575,-0.01103 0.04677,0 0.01103,0.01103 -0.01103,0.03575 0,0.04677 0.01124,0.01125 0.175834,-0.01125 0.187089,0 0.01103,0.01103 -0.01103,0.03575 0,0.04677 0.01281,0.01281 0.161716,-0.0127 0.18709,0 0.01971,0.0099 0.02705,0.03691 0.04677,0.04677 0.01209,0.0061 0.247481,0 0.280633,0"
         style="fill:none;stroke:#000000;stroke-width:0.26458335px;stroke-linecap:butt;stroke-linejoin:miter;stroke-opacity:1" />
      <path
         inkscape:connector-curvature="0"
         id="path2338"
         d="m 48.996752,72.612833 -0.18709,0.140317"
         style="fill:none;stroke:#000000;stroke-width:0.26458335px;stroke-linecap:butt;stroke-linejoin:miter;stroke-opacity:1" />
      <path
         inkscape:connector-curvature="0"
         id="path2340"
         d="m 48.949979,74.343404 0.327406,0.140317"
         style="fill:none;stroke:#000000;stroke-width:0.26458335px;stroke-linecap:butt;stroke-linejoin:miter;stroke-opacity:1" />
      <path
         inkscape:connector-curvature="0"
         id="path2342"
         d="m 41.606749,77.29005 c 0.06236,0.03118 0.120046,0.07439 0.187086,0.09354 0.08995,0.02569 0.188363,-0.01537 0.280633,0 0.04863,0.0081 0.09169,0.03867 0.140317,0.04677 0.440296,0.07338 -0.228992,-0.112199 0.327406,0.04677 0.04741,0.01355 0.09169,0.03867 0.140316,0.04677 0.04614,0.0077 0.09354,0 0.140317,0 0.01558,0 0.03198,-0.0049 0.04677,0 0.03307,0.01103 0.06047,0.03575 0.09354,0.04677 0.01479,0.0049 0.03283,-0.007 0.04677,0 0.01971,0.0099 0.02585,0.0398 0.04677,0.04677 0.02958,0.0099 0.0633,-0.0076 0.09355,0 0.106516,0.02663 0.102375,0.07254 0.187089,0.140317 0.04389,0.03512 0.09004,0.0684 0.140317,0.09354 0.152162,0.07608 0.14659,0.0063 0.280633,0.140317 0.02466,0.02466 0.02585,0.06565 0.04677,0.09354 0.0727,0.09694 0.203679,0.184439 0.280633,0.280633 0.03512,0.0439 0.05982,0.09535 0.09355,0.140317 0.01323,0.01765 0.03118,0.03118 0.04677,0.04677 0.06236,0.06236 0.124727,0.124724 0.187089,0.187089 0.01558,0.01558 0.03691,0.02705 0.04677,0.04677 0.01394,0.02789 -0.0099,0.06396 0,0.09355 0.01103,0.03307 0.03575,0.06047 0.04677,0.09354 0.0049,0.01479 -0.0049,0.03198 0,0.04677 0.01103,0.03307 0.03832,0.05972 0.04677,0.09354 0.0057,0.02278 -0.01236,0.162356 0,0.187089 0.0099,0.01971 0.03691,0.02705 0.04677,0.04677 0.01,0.01998 0,0.215371 0,0.233863 0,0.03969 0.0086,0.254847 0,0.280633 -0.007,0.0209 -0.0398,0.02585 -0.04677,0.04677 -0.01971,0.05916 0.01971,0.127926 0,0.18709 -0.01394,0.04183 -0.07382,0.0541 -0.09354,0.09354 -0.007,0.01394 0.007,0.03283 0,0.04677 -0.0099,0.01971 -0.03118,0.03118 -0.04677,0.04677 -0.01558,0.01558 -0.02843,0.03454 -0.04677,0.04677 -0.02901,0.01934 -0.06454,0.02743 -0.09354,0.04677 -0.01834,0.01222 -0.02843,0.03454 -0.04677,0.04677 -0.05801,0.03867 -0.129075,0.05487 -0.187087,0.09354 -0.01834,0.01222 -0.02843,0.03454 -0.04677,0.04677 -0.02901,0.01934 -0.06454,0.02743 -0.09354,0.04677 -0.01834,0.01222 -0.02843,0.03454 -0.04677,0.04677 -0.02901,0.01934 -0.06889,0.02212 -0.09354,0.04677 -0.01103,0.01103 0.01103,0.03575 0,0.04677 -0.02466,0.02466 -0.06454,0.02743 -0.09355,0.04677 -0.01834,0.01222 -0.03118,0.03118 -0.04677,0.04677 -0.03118,0.01558 -0.06454,0.02744 -0.09355,0.04677 -0.04036,0.02691 -0.103783,0.103785 -0.140316,0.140316 -0.01558,0.01558 -0.02705,0.03691 -0.04677,0.04677 -0.01394,0.007 -0.03283,-0.007 -0.04677,0 -0.03328,0.01664 -0.06026,0.0769 -0.09355,0.09354 -0.01394,0.007 -0.03118,0 -0.04677,0 -0.01558,0.01558 -0.02705,0.03691 -0.04677,0.04677 -0.01394,0.007 -0.03575,-0.01103 -0.04677,0 -0.01103,0.01103 0.01103,0.03575 0,0.04677 -0.01103,0.01103 -0.03283,-0.007 -0.04677,0 -0.01971,0.0099 -0.02585,0.0398 -0.04677,0.04677 -0.02958,0.0099 -0.06236,0 -0.09354,0 -0.01558,0 -0.03283,-0.007 -0.04677,0 -0.03944,0.01971 -0.05685,0.06909 -0.09354,0.09355 -0.04273,0.02848 -0.113506,0.03992 -0.140316,0.09354 -0.007,0.01394 0.01103,0.03575 0,0.04677 -0.01103,0.01103 -0.03283,-0.007 -0.04677,0 -0.03944,0.01971 -0.05171,0.0796 -0.09354,0.09354 -0.02958,0.0099 -0.06396,-0.0099 -0.09355,0 -0.0209,0.007 -0.02585,0.0398 -0.04677,0.04677 -0.02958,0.0099 -0.06236,0 -0.09355,0 -0.310245,0 0.06615,-0.02204 -0.140317,0.04677 -0.02958,0.0099 -0.06329,-0.0076 -0.09354,0 -0.03382,0.0085 -0.06047,0.03575 -0.09354,0.04677 -0.02789,0.0093 -0.235318,0 -0.280633,0 -0.01558,0 -0.03575,-0.01103 -0.04677,0 -0.01103,0.01103 0,0.03118 0,0.04677"
         style="fill:none;stroke:#000000;stroke-width:0.26458335px;stroke-linecap:butt;stroke-linejoin:miter;stroke-opacity:1" />
      <path
         inkscape:connector-curvature="0"
         id="path2344"
         d="m 42.495418,78.365809 0.374179,0.327406"
         style="fill:none;stroke:#000000;stroke-width:0.26458335px;stroke-linecap:butt;stroke-linejoin:miter;stroke-opacity:1" />
      <path
         inkscape:connector-curvature="0"
         id="path2346"
         d="m 42.682507,80.470556 c 0.06236,-0.03118 0.124728,-0.06236 0.18709,-0.09354"
         style="fill:none;stroke:#000000;stroke-width:0.26458335px;stroke-linecap:butt;stroke-linejoin:miter;stroke-opacity:1" />
    </g>
  </g>
</svg>
