<?xml version="1.0" encoding="UTF-8" standalone="no"?>
<svg
   width="284.11539"
   height="78.819183"
   viewBox="0 0 75.172196 20.854241"
   version="1.1"
   id="svg8"
   inkscape:version="1.1.2 (0a00cf5339, 2022-02-04)"
   sodipodi:docname="plate-medium.svg"
   inkscape:export-filename="/home/eduda/Projects/MusicQuiz/assets/images/plate-medium.png"
   inkscape:export-xdpi="90"
   inkscape:export-ydpi="90"
   xmlns:inkscape="http://www.inkscape.org/namespaces/inkscape"
   xmlns:sodipodi="http://sodipodi.sourceforge.net/DTD/sodipodi-0.dtd"
   xmlns="http://www.w3.org/2000/svg"
   xmlns:svg="http://www.w3.org/2000/svg"
   xmlns:rdf="http://www.w3.org/1999/02/22-rdf-syntax-ns#"
   xmlns:cc="http://creativecommons.org/ns#"
   xmlns:dc="http://purl.org/dc/elements/1.1/">
  <defs
     id="defs2" />
  <sodipodi:namedview
     id="base"
     pagecolor="#ffffff"
     bordercolor="#666666"
     borderopacity="1.0"
     inkscape:pageopacity="0.0"
     inkscape:pageshadow="2"
     inkscape:zoom="1.979899"
     inkscape:cx="156.32111"
     inkscape:cy="110.35917"
     inkscape:document-units="mm"
     inkscape:current-layer="layer1"
     inkscape:document-rotation="0"
     showgrid="false"
     inkscape:snap-grids="false"
     inkscape:snap-to-guides="true"
     inkscape:snap-others="false"
     inkscape:snap-nodes="false"
     inkscape:snap-global="false"
     inkscape:window-width="1846"
     inkscape:window-height="1016"
     inkscape:window-x="0"
     inkscape:window-y="0"
     inkscape:window-maximized="1"
     units="px"
     inkscape:pagecheckerboard="0"
     lock-margins="true"
     fit-margin-top="5"
     fit-margin-left="5"
     fit-margin-right="5"
     fit-margin-bottom="5" />
  <metadata
     id="metadata5">
    <rdf:RDF>
      <cc:Work
         rdf:about="">
        <dc:format>image/svg+xml</dc:format>
        <dc:type
           rdf:resource="http://purl.org/dc/dcmitype/StillImage" />
      </cc:Work>
    </rdf:RDF>
  </metadata>
  <g
     inkscape:groupmode="layer"
     id="layer1"
     inkscape:label="Image"
     transform="translate(-88.107793,-44.723116)">
    <path
       sodipodi:nodetypes="ccccccc"
       inkscape:connector-curvature="0"
       id="path989"
       d="m 89.76321,48.602423 c 0,0 27.21393,-0.311637 44.04235,-0.481596 4.99245,0.0222 1.91969,-0.843371 27.81145,-1.730448 l -0.37798,17.386906 c -29.00631,-0.869991 -10.21509,-1.219446 -37.36347,-0.811767 -11.56012,0.17897 -34.11235,0.944939 -34.11235,0.944939 z"
       style="fill:#c58047;fill-opacity:1;stroke:#5a2000;stroke-width:0.665;stroke-linecap:butt;stroke-linejoin:miter;stroke-miterlimit:4;stroke-dasharray:none;stroke-opacity:1" />
    <path
       inkscape:connector-curvature="0"
       id="path1001"
       d="m 89.955363,52.367273 c 0.150338,0 7.333207,0.250565 7.333207,0.250565 l -7.299798,0.35079 z"
       style="fill:#5a2000;fill-opacity:1;stroke:none;stroke-width:0.264583px;stroke-linecap:butt;stroke-linejoin:miter;stroke-opacity:1" />
    <path
       inkscape:connector-curvature="0"
       id="path1025"
       d="m 89.904952,55.169758 c 0.649647,0.106307 4.299479,0.07087 4.299479,0.07087 0,0 -3.260043,0.377976 -3.389974,0.366165 -0.129929,-0.01183 -0.944938,-0.106307 -0.944938,-0.106307 z"
       style="fill:#5a2000;fill-opacity:1;stroke:none;stroke-width:0.264583px;stroke-linecap:butt;stroke-linejoin:miter;stroke-opacity:1" />
    <path
       inkscape:connector-curvature="0"
       id="path1027"
       d="m 90.011258,56.835215 2.114304,0.2008 -2.102493,0.08268 z"
       style="fill:#5a2000;fill-opacity:1;stroke:none;stroke-width:0.264583px;stroke-linecap:butt;stroke-linejoin:miter;stroke-opacity:1" />
    <path
       inkscape:connector-curvature="0"
       id="path1031"
       d="m 90.02218,58.080159 c 0.150339,-0.0167 3.340868,0.283974 3.340868,0.283974 l -2.889851,0.01669 -0.53454,0.03341 z"
       style="fill:#5a2000;fill-opacity:1;stroke:none;stroke-width:0.264583px;stroke-linecap:butt;stroke-linejoin:miter;stroke-opacity:1" />
    <path
       inkscape:connector-curvature="0"
       id="path1033"
       d="m 89.972066,59.93434 4.476766,0.05011 -1.469983,0.267269 -1.219417,-0.08352 -1.720548,0.05011 z"
       style="fill:#5a2000;fill-opacity:1;stroke:none;stroke-width:0.264583px;stroke-linecap:butt;stroke-linejoin:miter;stroke-opacity:1" />
    <path
       inkscape:connector-curvature="0"
       id="path1048"
       d="m 89.938657,61.788524 c 0.08352,0 3.758477,0.06681 3.758477,0.06681 l -1.904293,0.217157 -1.419871,-0.01669 h -0.46772 z"
       style="fill:#5a2000;fill-opacity:1;stroke:none;stroke-width:0.264583px;stroke-linecap:butt;stroke-linejoin:miter;stroke-opacity:1" />
    <path
       inkscape:connector-curvature="0"
       id="path1050"
       d="m 96.566784,63.426176 c 0,0 2.326915,-0.507908 2.49228,-0.543341 0.165364,-0.03544 3.886066,-0.318918 3.886066,-0.318918 l -1.50009,0.413412 -1.86626,0.4016 z"
       style="fill:#5a2000;fill-opacity:1;stroke:none;stroke-width:0.264583px;stroke-linecap:butt;stroke-linejoin:miter;stroke-opacity:1" />
    <path
       inkscape:connector-curvature="0"
       id="path1052"
       d="m 105.49647,62.540293 c 0,0 4.25223,-0.401598 4.37035,-0.425223 0.11812,-0.02363 5.45703,-0.07087 5.45703,-0.07087 l 5.48066,0.0945 2.59858,-0.543343 1.25205,0.0945 -1.18118,0.04725 -2.69308,0.685081 c 0,0 -4.51209,0 -4.65383,-0.02363 -0.14174,-0.02363 -5.10268,-0.02363 -5.10268,-0.02363 l -1.46466,0.0945 z"
       style="fill:#5a2000;fill-opacity:1;stroke:none;stroke-width:0.264583px;stroke-linecap:butt;stroke-linejoin:miter;stroke-opacity:1" />
    <path
       inkscape:connector-curvature="0"
       id="path1054"
       d="m 98.52469,49.377195 5.87993,0.200451 5.54585,-0.03341 -4.17609,-0.434311 -3.00678,0.200451 -3.842005,-0.200451 z"
       style="fill:#5a2000;fill-opacity:1;stroke:none;stroke-width:0.264583px;stroke-linecap:butt;stroke-linejoin:miter;stroke-opacity:1" />
    <path
       inkscape:connector-curvature="0"
       id="path1056"
       d="m 117.53423,48.541977 0.96886,0.634765 4.91108,0.300677 -3.97564,-0.534537 -0.93544,-0.100227 -0.33409,-0.400905 z"
       style="fill:#5a2000;fill-opacity:1;stroke:none;stroke-width:0.264583px;stroke-linecap:butt;stroke-linejoin:miter;stroke-opacity:1" />
    <path
       inkscape:connector-curvature="0"
       id="path1058"
       d="m 129.56136,48.44175 1.5034,1.135896 -0.7684,-1.169305 z"
       style="fill:#5a2000;fill-opacity:1;stroke:none;stroke-width:0.264583px;stroke-linecap:butt;stroke-linejoin:miter;stroke-opacity:1" />
    <path
       inkscape:connector-curvature="0"
       id="path1060"
       d="m 134.75642,61.788524 2.47224,-0.41761 3.59143,0.818515 7.34991,-0.217157 -5.04471,-0.100227 -2.12145,-0.267269 -2.52236,-0.250565 -1.28623,-0.367496 z"
       style="fill:#5a2000;fill-opacity:1;stroke:none;stroke-width:0.264583px;stroke-linecap:butt;stroke-linejoin:miter;stroke-opacity:1" />
    <path
       inkscape:connector-curvature="0"
       id="path1064"
       d="m 142.15644,49.644464 c 0,0 4.04245,-0.467722 4.47676,-0.434313 0.43432,0.03341 12.19417,0.233862 12.19417,0.233862 l -11.65963,-0.734991 -3.4745,0.434311 -2.83974,-0.100224 z"
       style="fill:#5a2000;fill-opacity:1;stroke:none;stroke-width:0.264583px;stroke-linecap:butt;stroke-linejoin:miter;stroke-opacity:1" />
    <path
       inkscape:connector-curvature="0"
       id="path1072"
       d="m 160.97522,62.107893 -5.31198,0.167042 5.44562,0.634765 z"
       style="fill:#5a2000;fill-opacity:1;stroke:none;stroke-width:0.264583px;stroke-linecap:butt;stroke-linejoin:miter;stroke-opacity:1" />
    <path
       inkscape:connector-curvature="0"
       id="path1074"
       d="m 161.14227,60.437457 -3.4411,-0.334087 -1.57021,0.200454 2.3052,0.46772 2.83974,0.167044 z"
       style="fill:#5a2000;fill-opacity:1;stroke:none;stroke-width:0.264583px;stroke-linecap:butt;stroke-linejoin:miter;stroke-opacity:1" />
    <path
       inkscape:connector-curvature="0"
       id="path1076"
       d="m 161.19238,57.881693 -3.79189,0.03341 3.75848,0.417608 z"
       style="fill:#5a2000;fill-opacity:1;stroke:none;stroke-width:0.264583px;stroke-linecap:butt;stroke-linejoin:miter;stroke-opacity:1" />
    <path
       inkscape:connector-curvature="0"
       id="path1078"
       d="m 161.17568,54.457302 c -0.0668,0 -5.81312,0.0167 -5.81312,0.0167 l 1.77067,0.417611 2.62258,-0.03341 1.5368,0.150339 z"
       style="fill:#5a2000;fill-opacity:1;stroke:none;stroke-width:0.264583px;stroke-linecap:butt;stroke-linejoin:miter;stroke-opacity:1" />
    <path
       inkscape:connector-curvature="0"
       id="path1080"
       d="m 161.34272,47.441476 -6.04697,0.167044 1.65373,0.334087 h 2.27179 l 1.52009,0.167045 0.73499,0.06682 -0.10022,-0.684877 z"
       style="fill:#5a2000;fill-opacity:1;stroke:none;stroke-width:0.264583px;stroke-linecap:butt;stroke-linejoin:miter;stroke-opacity:1" />
    <path
       inkscape:connector-curvature="0"
       id="path1082"
       d="m 161.20908,50.41485 -4.29301,0.100227 4.35983,0.451016 z"
       style="fill:#5a2000;fill-opacity:1;stroke:none;stroke-width:0.264583px;stroke-linecap:butt;stroke-linejoin:miter;stroke-opacity:1" />
    <ellipse
       ry="0.95214766"
       rx="1.018965"
       cy="50.873955"
       cx="94.491821"
       id="path1252"
       style="fill:#464646;fill-opacity:1;fill-rule:nonzero;stroke:none;stroke-width:0.365;stroke-linecap:round;stroke-linejoin:round;stroke-miterlimit:4;stroke-dasharray:none;stroke-dashoffset:0;stroke-opacity:1" />
    <ellipse
       ry="0.33826298"
       rx="0.32573473"
       cy="50.861427"
       cx="94.491821"
       id="path1254"
       style="fill:#3a3a3a;fill-opacity:1;fill-rule:nonzero;stroke:none;stroke-width:0.365;stroke-linecap:round;stroke-linejoin:round;stroke-miterlimit:4;stroke-dasharray:none;stroke-dashoffset:0;stroke-opacity:1" />
    <ellipse
       ry="0.95214766"
       rx="1.018965"
       cy="62.067825"
       cx="94.452705"
       id="path1252-5"
       style="fill:#464646;fill-opacity:1;fill-rule:nonzero;stroke:none;stroke-width:0.365;stroke-linecap:round;stroke-linejoin:round;stroke-miterlimit:4;stroke-dasharray:none;stroke-dashoffset:0;stroke-opacity:1" />
    <ellipse
       ry="0.33826298"
       rx="0.32573473"
       cy="62.055298"
       cx="94.452705"
       id="path1254-0"
       style="fill:#3a3a3a;fill-opacity:1;fill-rule:nonzero;stroke:none;stroke-width:0.365;stroke-linecap:round;stroke-linejoin:round;stroke-miterlimit:4;stroke-dasharray:none;stroke-dashoffset:0;stroke-opacity:1" />
    <ellipse
       ry="0.95214766"
       rx="1.018965"
       cy="61.136333"
       cx="156.85983"
       id="path1252-3"
       style="fill:#464646;fill-opacity:1;fill-rule:nonzero;stroke:none;stroke-width:0.365;stroke-linecap:round;stroke-linejoin:round;stroke-miterlimit:4;stroke-dasharray:none;stroke-dashoffset:0;stroke-opacity:1" />
    <ellipse
       ry="0.33826298"
       rx="0.32573473"
       cy="61.123806"
       cx="156.85983"
       id="path1254-6"
       style="fill:#3a3a3a;fill-opacity:1;fill-rule:nonzero;stroke:none;stroke-width:0.365;stroke-linecap:round;stroke-linejoin:round;stroke-miterlimit:4;stroke-dasharray:none;stroke-dashoffset:0;stroke-opacity:1" />
    <ellipse
       ry="0.95214766"
       rx="1.018965"
       cy="48.852104"
       cx="156.88345"
       id="path1252-1"
       style="fill:#464646;fill-opacity:1;fill-rule:nonzero;stroke:none;stroke-width:0.365;stroke-linecap:round;stroke-linejoin:round;stroke-miterlimit:4;stroke-dasharray:none;stroke-dashoffset:0;stroke-opacity:1" />
    <ellipse
       ry="0.33826298"
       rx="0.32573473"
       cy="48.839577"
       cx="156.88345"
       id="path1254-06"
       style="fill:#3a3a3a;fill-opacity:1;fill-rule:nonzero;stroke:none;stroke-width:0.365;stroke-linecap:round;stroke-linejoin:round;stroke-miterlimit:4;stroke-dasharray:none;stroke-dashoffset:0;stroke-opacity:1" />
  </g>
</svg>
