<?xml version="1.0" encoding="UTF-8" standalone="no"?>
<svg
   width="473.71313"
   height="79.23188"
   viewBox="0 0 125.3366 20.963434"
   version="1.1"
   id="svg8"
   inkscape:version="1.1.2 (0a00cf5339, 2022-02-04)"
   sodipodi:docname="plate.svg"
   inkscape:export-filename="/home/eduda/Projects/MusicQuiz/assets/images/plate.png"
   inkscape:export-xdpi="90"
   inkscape:export-ydpi="90"
   xmlns:inkscape="http://www.inkscape.org/namespaces/inkscape"
   xmlns:sodipodi="http://sodipodi.sourceforge.net/DTD/sodipodi-0.dtd"
   xmlns="http://www.w3.org/2000/svg"
   xmlns:svg="http://www.w3.org/2000/svg"
   xmlns:rdf="http://www.w3.org/1999/02/22-rdf-syntax-ns#"
   xmlns:cc="http://creativecommons.org/ns#"
   xmlns:dc="http://purl.org/dc/elements/1.1/">
  <defs
     id="defs2" />
  <sodipodi:namedview
     id="base"
     pagecolor="#ffffff"
     bordercolor="#666666"
     borderopacity="1.0"
     inkscape:pageopacity="0.0"
     inkscape:pageshadow="2"
     inkscape:zoom="0.7"
     inkscape:cx="-157.85714"
     inkscape:cy="42.142857"
     inkscape:document-units="mm"
     inkscape:current-layer="layer1"
     inkscape:document-rotation="0"
     showgrid="false"
     inkscape:snap-grids="false"
     inkscape:snap-to-guides="true"
     inkscape:snap-others="false"
     inkscape:snap-nodes="false"
     inkscape:snap-global="false"
     inkscape:window-width="1846"
     inkscape:window-height="1016"
     inkscape:window-x="0"
     inkscape:window-y="0"
     inkscape:window-maximized="1"
     units="px"
     inkscape:pagecheckerboard="0"
     lock-margins="true"
     fit-margin-top="5"
     fit-margin-left="5"
     fit-margin-right="5"
     fit-margin-bottom="5" />
  <metadata
     id="metadata5">
    <rdf:RDF>
      <cc:Work
         rdf:about="">
        <dc:format>image/svg+xml</dc:format>
        <dc:type
           rdf:resource="http://purl.org/dc/dcmitype/StillImage" />
      </cc:Work>
    </rdf:RDF>
  </metadata>
  <g
     inkscape:groupmode="layer"
     id="layer1"
     inkscape:label="Image"
     transform="translate(-88.107793,-44.613924)">
    <g
       id="g1322"
       transform="translate(58.166993,16.09647)">
      <path
         sodipodi:nodetypes="czzcczzcc"
         inkscape:connector-curvature="0"
         id="path989"
         d="m 31.596217,32.505953 c 0,0 27.489292,-0.208018 44.317709,-0.377977 16.828417,-0.16996 46.900684,-1.128078 61.988094,-1.511904 15.08741,-0.383826 15.71219,-0.421867 15.71219,-0.421867 l -0.37798,17.386906 c 0,0 -30.1693,-0.860556 -46.89522,-0.901052 -16.725915,-0.0405 -29.072323,0.01002 -40.632441,0.188989 -11.560118,0.17897 -34.112352,0.944939 -34.112352,0.944939 z"
         style="fill:#c58047;fill-opacity:1;stroke:#5a2000;stroke-width:0.665;stroke-linecap:butt;stroke-linejoin:miter;stroke-miterlimit:4;stroke-dasharray:none;stroke-opacity:1" />
      <path
         inkscape:connector-curvature="0"
         id="path1001"
         d="m 31.78837,36.270803 c 0.150338,0 7.333207,0.250565 7.333207,0.250565 l -7.299798,0.35079 z"
         style="fill:#5a2000;fill-opacity:1;stroke:none;stroke-width:0.264583px;stroke-linecap:butt;stroke-linejoin:miter;stroke-opacity:1" />
      <path
         inkscape:connector-curvature="0"
         id="path1025"
         d="m 31.737959,39.073288 c 0.649647,0.106307 4.299479,0.07087 4.299479,0.07087 0,0 -3.260043,0.377976 -3.389974,0.366165 -0.129929,-0.01183 -0.944938,-0.106307 -0.944938,-0.106307 z"
         style="fill:#5a2000;fill-opacity:1;stroke:none;stroke-width:0.264583px;stroke-linecap:butt;stroke-linejoin:miter;stroke-opacity:1" />
      <path
         inkscape:connector-curvature="0"
         id="path1027"
         d="m 31.844265,40.738745 2.114304,0.2008 -2.102493,0.08268 z"
         style="fill:#5a2000;fill-opacity:1;stroke:none;stroke-width:0.264583px;stroke-linecap:butt;stroke-linejoin:miter;stroke-opacity:1" />
      <path
         inkscape:connector-curvature="0"
         id="path1031"
         d="m 31.855187,41.983689 c 0.150339,-0.0167 3.340868,0.283974 3.340868,0.283974 l -2.889851,0.01669 -0.53454,0.03341 z"
         style="fill:#5a2000;fill-opacity:1;stroke:none;stroke-width:0.264583px;stroke-linecap:butt;stroke-linejoin:miter;stroke-opacity:1" />
      <path
         inkscape:connector-curvature="0"
         id="path1033"
         d="m 31.805073,43.83787 4.476766,0.05011 -1.469983,0.267269 -1.219417,-0.08352 -1.720548,0.05011 z"
         style="fill:#5a2000;fill-opacity:1;stroke:none;stroke-width:0.264583px;stroke-linecap:butt;stroke-linejoin:miter;stroke-opacity:1" />
      <path
         inkscape:connector-curvature="0"
         id="path1048"
         d="m 31.771664,45.692054 c 0.08352,0 3.758477,0.06681 3.758477,0.06681 l -1.904293,0.217157 -1.419871,-0.01669 h -0.46772 z"
         style="fill:#5a2000;fill-opacity:1;stroke:none;stroke-width:0.264583px;stroke-linecap:butt;stroke-linejoin:miter;stroke-opacity:1" />
      <path
         inkscape:connector-curvature="0"
         id="path1050"
         d="m 38.399791,47.329706 c 0,0 2.326915,-0.507908 2.49228,-0.543341 0.165364,-0.03544 3.886067,-0.318918 3.886067,-0.318918 l -1.500092,0.413412 -1.866259,0.4016 z"
         style="fill:#5a2000;fill-opacity:1;stroke:none;stroke-width:0.264583px;stroke-linecap:butt;stroke-linejoin:miter;stroke-opacity:1" />
      <path
         inkscape:connector-curvature="0"
         id="path1052"
         d="m 47.329478,46.443823 c 0,0 4.25223,-0.401598 4.370348,-0.425223 0.118118,-0.02363 5.457031,-0.07087 5.457031,-0.07087 l 5.480656,0.0945 2.598587,-0.543343 1.252045,0.0945 -1.181176,0.04725 -2.69308,0.685081 c 0,0 -4.512091,0 -4.653831,-0.02363 -0.141742,-0.02363 -5.10268,-0.02363 -5.10268,-0.02363 l -1.464656,0.0945 z"
         style="fill:#5a2000;fill-opacity:1;stroke:none;stroke-width:0.264583px;stroke-linecap:butt;stroke-linejoin:miter;stroke-opacity:1" />
      <path
         inkscape:connector-curvature="0"
         id="path1054"
         d="m 40.357697,33.280725 5.879931,0.200451 5.545844,-0.03341 -4.176088,-0.434311 -3.006781,0.200451 -3.842001,-0.200451 z"
         style="fill:#5a2000;fill-opacity:1;stroke:none;stroke-width:0.264583px;stroke-linecap:butt;stroke-linejoin:miter;stroke-opacity:1" />
      <path
         inkscape:connector-curvature="0"
         id="path1056"
         d="m 59.367242,32.445507 0.968854,0.634765 4.911077,0.300677 -3.975635,-0.534537 -0.935442,-0.100227 -0.334087,-0.400905 z"
         style="fill:#5a2000;fill-opacity:1;stroke:none;stroke-width:0.264583px;stroke-linecap:butt;stroke-linejoin:miter;stroke-opacity:1" />
      <path
         inkscape:connector-curvature="0"
         id="path1058"
         d="m 71.394372,32.34528 1.503392,1.135896 -0.768401,-1.169305 z"
         style="fill:#5a2000;fill-opacity:1;stroke:none;stroke-width:0.264583px;stroke-linecap:butt;stroke-linejoin:miter;stroke-opacity:1" />
      <path
         inkscape:connector-curvature="0"
         id="path1060"
         d="m 76.589423,45.692054 2.472243,-0.41761 3.591436,0.818515 7.34991,-0.217157 -5.044712,-0.100227 -2.12145,-0.267269 -2.522358,-0.250565 -1.286235,-0.367496 z"
         style="fill:#5a2000;fill-opacity:1;stroke:none;stroke-width:0.264583px;stroke-linecap:butt;stroke-linejoin:miter;stroke-opacity:1" />
      <path
         inkscape:connector-curvature="0"
         id="path1062"
         d="m 97.293204,46.680059 c 0.141743,-0.04725 3.330916,-1.039435 3.330916,-1.039435 l 6.37834,0.02362 -6.42559,0.307108 -2.173356,0.755951 z"
         style="fill:#5a2000;fill-opacity:1;stroke:none;stroke-width:0.264583px;stroke-linecap:butt;stroke-linejoin:miter;stroke-opacity:1" />
      <path
         inkscape:connector-curvature="0"
         id="path1064"
         d="m 83.989449,33.547994 c 0,0 4.042452,-0.467722 4.476763,-0.434313 0.434313,0.03341 12.194168,0.233862 12.194168,0.233862 l -11.659628,-0.734991 -3.474503,0.434311 -2.839741,-0.100224 z"
         style="fill:#5a2000;fill-opacity:1;stroke:none;stroke-width:0.264583px;stroke-linecap:butt;stroke-linejoin:miter;stroke-opacity:1" />
      <path
         inkscape:connector-curvature="0"
         id="path1066"
         d="m 106.27304,32.311871 5.07812,0.300681 7.51696,-0.634767 -4.9779,0.935445 -3.67495,0.434313 z"
         style="fill:#5a2000;fill-opacity:1;stroke:none;stroke-width:0.264583px;stroke-linecap:butt;stroke-linejoin:miter;stroke-opacity:1" />
      <path
         inkscape:connector-curvature="0"
         id="path1068"
         d="m 112.98819,46.610793 13.43029,-1.336349 -12.09395,1.603618 z"
         style="fill:#5a2000;fill-opacity:1;stroke:none;stroke-width:0.264583px;stroke-linecap:butt;stroke-linejoin:miter;stroke-opacity:1" />
      <path
         inkscape:connector-curvature="0"
         id="path1070"
         d="m 130.29525,44.861048 -0.21262,1.157552 0.63784,-0.188989 8.3391,0.330729 2.92931,-0.732327 -2.74032,0.14174 -0.44885,0.283483 -4.86644,-0.472469 -2.78758,-0.07087 z"
         style="fill:#5a2000;fill-opacity:1;stroke:none;stroke-width:0.264583px;stroke-linecap:butt;stroke-linejoin:miter;stroke-opacity:1" />
      <path
         inkscape:connector-curvature="0"
         id="path1072"
         d="m 152.99539,45.801574 -5.31198,0.167042 5.44562,0.634765 z"
         style="fill:#5a2000;fill-opacity:1;stroke:none;stroke-width:0.264583px;stroke-linecap:butt;stroke-linejoin:miter;stroke-opacity:1" />
      <path
         inkscape:connector-curvature="0"
         id="path1074"
         d="m 153.16244,44.131138 -3.4411,-0.334087 -1.57021,0.200454 2.3052,0.46772 2.83974,0.167044 z"
         style="fill:#5a2000;fill-opacity:1;stroke:none;stroke-width:0.264583px;stroke-linecap:butt;stroke-linejoin:miter;stroke-opacity:1" />
      <path
         inkscape:connector-curvature="0"
         id="path1076"
         d="m 153.21255,41.575374 -3.79189,0.03341 3.75848,0.417608 z"
         style="fill:#5a2000;fill-opacity:1;stroke:none;stroke-width:0.264583px;stroke-linecap:butt;stroke-linejoin:miter;stroke-opacity:1" />
      <path
         inkscape:connector-curvature="0"
         id="path1078"
         d="m 153.19585,38.150983 c -0.0668,0 -5.81312,0.0167 -5.81312,0.0167 l 1.77067,0.417611 2.62258,-0.03341 1.5368,0.150339 z"
         style="fill:#5a2000;fill-opacity:1;stroke:none;stroke-width:0.264583px;stroke-linecap:butt;stroke-linejoin:miter;stroke-opacity:1" />
      <path
         inkscape:connector-curvature="0"
         id="path1080"
         d="m 153.36289,31.135157 -6.04697,0.167044 1.65373,0.334087 h 2.27179 l 1.52009,0.167045 0.73499,0.06682 -0.10022,-0.684877 z"
         style="fill:#5a2000;fill-opacity:1;stroke:none;stroke-width:0.264583px;stroke-linecap:butt;stroke-linejoin:miter;stroke-opacity:1" />
      <path
         inkscape:connector-curvature="0"
         id="path1082"
         d="m 153.22925,34.108531 -4.29301,0.100227 4.35983,0.451016 z"
         style="fill:#5a2000;fill-opacity:1;stroke:none;stroke-width:0.264583px;stroke-linecap:butt;stroke-linejoin:miter;stroke-opacity:1" />
      <ellipse
         ry="0.95214766"
         rx="1.018965"
         cy="34.777485"
         cx="36.324829"
         id="path1252"
         style="fill:#464646;fill-opacity:1;fill-rule:nonzero;stroke:none;stroke-width:0.365;stroke-linecap:round;stroke-linejoin:round;stroke-miterlimit:4;stroke-dasharray:none;stroke-dashoffset:0;stroke-opacity:1" />
      <ellipse
         ry="0.33826298"
         rx="0.32573473"
         cy="34.764957"
         cx="36.324829"
         id="path1254"
         style="fill:#3a3a3a;fill-opacity:1;fill-rule:nonzero;stroke:none;stroke-width:0.365;stroke-linecap:round;stroke-linejoin:round;stroke-miterlimit:4;stroke-dasharray:none;stroke-dashoffset:0;stroke-opacity:1" />
      <ellipse
         ry="0.95214766"
         rx="1.018965"
         cy="45.971355"
         cx="36.285713"
         id="path1252-5"
         style="fill:#464646;fill-opacity:1;fill-rule:nonzero;stroke:none;stroke-width:0.365;stroke-linecap:round;stroke-linejoin:round;stroke-miterlimit:4;stroke-dasharray:none;stroke-dashoffset:0;stroke-opacity:1" />
      <ellipse
         ry="0.33826298"
         rx="0.32573473"
         cy="45.958828"
         cx="36.285713"
         id="path1254-0"
         style="fill:#3a3a3a;fill-opacity:1;fill-rule:nonzero;stroke:none;stroke-width:0.365;stroke-linecap:round;stroke-linejoin:round;stroke-miterlimit:4;stroke-dasharray:none;stroke-dashoffset:0;stroke-opacity:1" />
      <ellipse
         ry="0.95214766"
         rx="1.018965"
         cy="44.830017"
         cx="148.88"
         id="path1252-3"
         style="fill:#464646;fill-opacity:1;fill-rule:nonzero;stroke:none;stroke-width:0.365;stroke-linecap:round;stroke-linejoin:round;stroke-miterlimit:4;stroke-dasharray:none;stroke-dashoffset:0;stroke-opacity:1" />
      <ellipse
         ry="0.33826298"
         rx="0.32573473"
         cy="44.81749"
         cx="148.88"
         id="path1254-6"
         style="fill:#3a3a3a;fill-opacity:1;fill-rule:nonzero;stroke:none;stroke-width:0.365;stroke-linecap:round;stroke-linejoin:round;stroke-miterlimit:4;stroke-dasharray:none;stroke-dashoffset:0;stroke-opacity:1" />
      <ellipse
         ry="0.95214766"
         rx="1.018965"
         cy="32.545788"
         cx="148.90363"
         id="path1252-1"
         style="fill:#464646;fill-opacity:1;fill-rule:nonzero;stroke:none;stroke-width:0.365;stroke-linecap:round;stroke-linejoin:round;stroke-miterlimit:4;stroke-dasharray:none;stroke-dashoffset:0;stroke-opacity:1" />
      <ellipse
         ry="0.33826298"
         rx="0.32573473"
         cy="32.53326"
         cx="148.90363"
         id="path1254-06"
         style="fill:#3a3a3a;fill-opacity:1;fill-rule:nonzero;stroke:none;stroke-width:0.365;stroke-linecap:round;stroke-linejoin:round;stroke-miterlimit:4;stroke-dasharray:none;stroke-dashoffset:0;stroke-opacity:1" />
    </g>
  </g>
</svg>
