<?xml version="1.0" encoding="UTF-8" standalone="no"?>
<!-- Created with Inkscape (http://www.inkscape.org/) -->

<svg
   xmlns:dc="http://purl.org/dc/elements/1.1/"
   xmlns:cc="http://creativecommons.org/ns#"
   xmlns:rdf="http://www.w3.org/1999/02/22-rdf-syntax-ns#"
   xmlns:svg="http://www.w3.org/2000/svg"
   xmlns="http://www.w3.org/2000/svg"
   xmlns:sodipodi="http://sodipodi.sourceforge.net/DTD/sodipodi-0.dtd"
   xmlns:inkscape="http://www.inkscape.org/namespaces/inkscape"
   width="124.73285mm"
   height="156.29948mm"
   viewBox="0 0 124.73285 156.29948"
   version="1.1"
   id="svg8"
   inkscape:version="0.92.5 (2060ec1f9f, 2020-04-08)"
   sodipodi:docname="stopwatch-bg.svg"
   inkscape:export-filename="/home/eduda/Projects/MusicQuiz/assets/images/stopwatch-bg.png"
   inkscape:export-xdpi="32"
   inkscape:export-ydpi="32">
  <defs
     id="defs2" />
  <sodipodi:namedview
     id="base"
     pagecolor="#ffffff"
     bordercolor="#666666"
     borderopacity="1.0"
     inkscape:pageopacity="0.0"
     inkscape:pageshadow="2"
     inkscape:zoom="0.7"
     inkscape:cx="-43.210731"
     inkscape:cy="339.10464"
     inkscape:document-units="mm"
     inkscape:current-layer="layer1"
     showgrid="false"
     inkscape:window-width="1848"
     inkscape:window-height="1016"
     inkscape:window-x="72"
     inkscape:window-y="27"
     inkscape:window-maximized="1"
     fit-margin-top="10"
     fit-margin-left="10"
     fit-margin-right="10"
     fit-margin-bottom="10" />
  <metadata
     id="metadata5">
    <rdf:RDF>
      <cc:Work
         rdf:about="">
        <dc:format>image/svg+xml</dc:format>
        <dc:type
           rdf:resource="http://purl.org/dc/dcmitype/StillImage" />
        <dc:title></dc:title>
      </cc:Work>
    </rdf:RDF>
  </metadata>
  <g
     inkscape:label="Vrstva 1"
     inkscape:groupmode="layer"
     id="layer1"
     transform="translate(-47.84011,2.4853481)">
    <rect
       style="fill:#5990e7;fill-opacity:0.99607843;fill-rule:nonzero;stroke:#000000;stroke-width:0.59499997;stroke-linecap:round;stroke-linejoin:round;stroke-miterlimit:4;stroke-dasharray:none;stroke-dashoffset:0;stroke-opacity:1"
       id="rect872"
       width="6.1646867"
       height="12.26099"
       x="107.12419"
       y="27.291634"
       ry="0.1984375" />
    <g
       id="g974"
       transform="translate(-9.7157145,29.666918)">
      <g
         transform="translate(5.3453906,-202.85757)"
         id="g919">
        <circle
           style="fill:#5a90e7;fill-opacity:0.99607843;fill-rule:nonzero;stroke:#000000;stroke-width:0.76499999;stroke-linecap:round;stroke-linejoin:round;stroke-miterlimit:4;stroke-dasharray:none;stroke-dashoffset:0;stroke-opacity:0.99607843"
           id="path834-6"
           cx="114.57686"
           cy="264.63837"
           r="51.983925" />
        <circle
           style="fill:#ffffff;fill-opacity:0.99607843;fill-rule:nonzero;stroke:#000000;stroke-width:0.76499999;stroke-linecap:round;stroke-linejoin:round;stroke-miterlimit:4;stroke-dasharray:none;stroke-dashoffset:0;stroke-opacity:0.99607843"
           id="path834-3-7"
           cy="264.63837"
           cx="114.57686"
           r="45.836727" />
        <path
           style="fill:none;stroke:#ffffff;stroke-width:1.16499996;stroke-linecap:round;stroke-linejoin:miter;stroke-miterlimit:4;stroke-dasharray:none;stroke-opacity:1"
           d="m 133.4316,218.58538 c 0,0 9.76125,3.23823 17.85938,12.18973 8.09812,8.9515 11.15029,19.0878 11.15029,19.0878"
           id="path851-5"
           inkscape:connector-curvature="0"
           sodipodi:nodetypes="czc" />
      </g>
      <path
         inkscape:connector-curvature="0"
         id="path853"
         d="m 75.318555,35.829897 a 51.599905,51.599905 0 0 0 -7.148246,26.094934 51.599905,51.599905 0 0 0 51.599541,51.600049 51.599905,51.599905 0 0 0 16.42222,-2.75083 54.446562,54.446562 0 0 1 -10.95092,1.17332 54.446562,54.446562 0 0 1 -54.446894,-54.44689 54.446562,54.446562 0 0 1 4.524299,-21.670583 z"
         style="fill:#000000;fill-opacity:0.31818183;fill-rule:nonzero;stroke:none;stroke-width:0.72524273;stroke-linecap:round;stroke-linejoin:round;stroke-miterlimit:4;stroke-dasharray:none;stroke-dashoffset:0;stroke-opacity:1" />
      <path
         inkscape:connector-curvature="0"
         id="path938"
         d="m 125.37007,15.873376 a 46.253447,46.253447 0 0 1 40.64713,45.873167 46.253447,46.253447 0 0 1 -0.0822,1.643827 42.82994,42.82994 0 0 0 0.29094,-4.785754 42.82994,42.82994 0 0 0 -40.85591,-42.73124 z"
         style="fill:#040900;fill-opacity:0.31818183;fill-rule:nonzero;stroke:none;stroke-width:0.76499999;stroke-linecap:round;stroke-linejoin:round;stroke-miterlimit:4;stroke-dasharray:none;stroke-dashoffset:0;stroke-opacity:1" />
    </g>
    <g
       id="g870"
       transform="translate(31.56405,4.0272225)">
      <path
         inkscape:connector-curvature="0"
         id="path844"
         d="M 78.642743,3.7849294 A 13.441777,13.441777 0 0 0 65.200669,17.227003 13.441777,13.441777 0 0 0 78.642743,30.668559 13.441777,13.441777 0 0 0 92.084301,17.227003 13.441777,13.441777 0 0 0 78.642743,3.7849294 Z m 0.0708,1.6536459 A 11.811756,11.811756 0 0 1 90.525223,17.250257 11.811756,11.811756 0 0 1 78.71354,29.06194 11.811756,11.811756 0 0 1 66.901858,17.250257 11.811756,11.811756 0 0 1 78.71354,5.4385753 Z"
         style="fill:#5990e7;fill-opacity:0.99607843;fill-rule:nonzero;stroke:#000000;stroke-width:0.59499997;stroke-linecap:round;stroke-linejoin:round;stroke-miterlimit:4;stroke-dasharray:none;stroke-dashoffset:0;stroke-opacity:1" />
      <path
         inkscape:connector-curvature="0"
         id="path853-7"
         d="m 67.079292,10.693043 a 13.149734,13.149734 0 0 0 -1.821661,6.65004 13.149734,13.149734 0 0 0 13.14964,13.14977 13.149734,13.149734 0 0 0 4.18504,-0.70102 13.875177,13.875177 0 0 1 -2.79073,0.29901 13.875177,13.875177 0 0 1 -13.875263,-13.87526 13.875177,13.875177 0 0 1 1.152974,-5.52254 z"
         style="fill:#000000;fill-opacity:0.31818183;fill-rule:nonzero;stroke:none;stroke-width:0.18482105;stroke-linecap:round;stroke-linejoin:round;stroke-miterlimit:4;stroke-dasharray:none;stroke-dashoffset:0;stroke-opacity:1" />
      <path
         inkscape:connector-curvature="0"
         id="path938-0"
         d="m 80.188784,5.2765937 a 11.787241,11.787241 0 0 1 10.35853,11.6903293 11.787241,11.787241 0 0 1 -0.0209,0.41891 10.914793,10.914793 0 0 0 0.0741,-1.2196 10.914793,10.914793 0 0 0 -10.41173,-10.8896393 z"
         style="fill:#040900;fill-opacity:0.31818183;fill-rule:nonzero;stroke:none;stroke-width:0.1949528;stroke-linecap:round;stroke-linejoin:round;stroke-miterlimit:4;stroke-dasharray:none;stroke-dashoffset:0;stroke-opacity:1" />
      <path
         sodipodi:nodetypes="czc"
         inkscape:connector-curvature="0"
         id="path851-5-2"
         d="m 83.510919,5.4993523 c 0,0 2.48756,0.82523 4.55129,3.10643 2.06372,2.2811997 2.84154,4.8643397 2.84154,4.8643397"
         style="fill:none;stroke:#ffffff;stroke-width:0.29688892;stroke-linecap:round;stroke-linejoin:miter;stroke-miterlimit:4;stroke-dasharray:none;stroke-opacity:1" />
    </g>
    <rect
       style="fill:#5990e7;fill-opacity:0.99607843;fill-rule:nonzero;stroke:#000000;stroke-width:0.59499997;stroke-linecap:round;stroke-linejoin:round;stroke-miterlimit:4;stroke-dasharray:none;stroke-dashoffset:0;stroke-opacity:1"
       id="rect874"
       width="12.662211"
       height="6.2129831"
       x="103.87543"
       y="21.549852"
       ry="1.1906242" />
    <path
       style="fill:none;stroke:#000000;stroke-width:0.565;stroke-linecap:butt;stroke-linejoin:miter;stroke-miterlimit:4;stroke-dasharray:none;stroke-opacity:1"
       d="m 107.15044,31.428409 -0.0501,4.176088"
       id="path876"
       inkscape:connector-curvature="0" />
    <rect
       style="fill:#5990e7;fill-opacity:0.99607843;fill-rule:nonzero;stroke:none;stroke-width:0.56499994;stroke-linecap:round;stroke-linejoin:round;stroke-miterlimit:4;stroke-dasharray:none;stroke-dashoffset:0;stroke-opacity:1"
       id="rect878"
       width="3.4844692"
       height="5.3271008"
       x="107.41611"
       y="31.530787"
       ry="0" />
    <path
       style="fill:#000000;fill-opacity:0.99607843;fill-rule:nonzero;stroke:none;stroke-width:0.56499988;stroke-linecap:round;stroke-linejoin:round;stroke-miterlimit:4;stroke-dasharray:none;stroke-dashoffset:0;stroke-opacity:1"
       d="m 111.25507,32.522784 a 0.77957592,1.3111049 0 0 0 -0.77979,1.311548 0.77957592,1.3111049 0 0 0 0.77979,1.311031 0.77957592,1.3111049 0 0 0 0.43615,-0.226343 0.86225826,1.1103051 0 0 1 -0.83767,-1.108458 0.86225826,1.1103051 0 0 1 0.79478,-1.106395 0.77957592,1.3111049 0 0 0 -0.39326,-0.181383 z"
       id="path880"
       inkscape:connector-curvature="0" />
    <path
       style="fill:none;stroke:#000000;stroke-width:0.26458332px;stroke-linecap:butt;stroke-linejoin:miter;stroke-opacity:1"
       d="m 106.67395,22.413969 v 4.19279"
       id="path901"
       inkscape:connector-curvature="0" />
    <path
       style="fill:none;stroke:#000000;stroke-width:0.26458332px;stroke-linecap:butt;stroke-linejoin:miter;stroke-opacity:1"
       d="m 108.46132,22.422321 v 4.19279"
       id="path901-7"
       inkscape:connector-curvature="0" />
    <path
       style="fill:none;stroke:#000000;stroke-width:0.26458332px;stroke-linecap:butt;stroke-linejoin:miter;stroke-opacity:1"
       d="m 110.26538,22.388913 v 4.19279"
       id="path901-5"
       inkscape:connector-curvature="0" />
    <path
       style="fill:none;stroke:#000000;stroke-width:0.26458332px;stroke-linecap:butt;stroke-linejoin:miter;stroke-opacity:1"
       d="m 112.6207,22.355504 v 4.19279"
       id="path901-3"
       inkscape:connector-curvature="0" />
    <rect
       style="fill:#5990e7;fill-opacity:0.99607843;fill-rule:nonzero;stroke:#000000;stroke-width:0.56499994;stroke-linecap:round;stroke-linejoin:round;stroke-miterlimit:4;stroke-dasharray:none;stroke-dashoffset:0;stroke-opacity:1"
       id="rect930"
       width="5.915215"
       height="4.7581196"
       x="59.195229"
       y="72.71347"
       transform="rotate(-25.10381)" />
    <rect
       style="fill:#dd573b;fill-opacity:0.99607843;fill-rule:nonzero;stroke:#000000;stroke-width:0.56499988;stroke-linecap:round;stroke-linejoin:round;stroke-miterlimit:4;stroke-dasharray:none;stroke-dashoffset:0;stroke-opacity:1"
       id="rect930-5"
       width="8.0913935"
       height="5.1663222"
       x="58.104767"
       y="67.631546"
       transform="rotate(-25.10381)"
       ry="0.83682334" />
    <rect
       style="fill:#5990e7;fill-opacity:0.99607843;fill-rule:nonzero;stroke:#000000;stroke-width:0.56499988;stroke-linecap:round;stroke-linejoin:round;stroke-miterlimit:4;stroke-dasharray:none;stroke-dashoffset:0;stroke-opacity:1"
       id="rect930-6"
       width="5.915215"
       height="4.7581196"
       x="135.23059"
       y="-17.361122"
       transform="rotate(23.680445)" />
    <rect
       style="fill:#60a317;fill-opacity:0.99607843;fill-rule:nonzero;stroke:#000000;stroke-width:0.565;stroke-linecap:round;stroke-linejoin:round;stroke-miterlimit:4;stroke-dasharray:none;stroke-dashoffset:0;stroke-opacity:1"
       id="rect930-5-2"
       width="8.0913935"
       height="5.1663222"
       x="134.14012"
       y="-22.443047"
       transform="rotate(23.680445)"
       ry="0.83682334" />
  </g>
</svg>
