<?xml version="1.0" encoding="UTF-8" standalone="no"?>
<!-- Created with Inkscape (http://www.inkscape.org/) -->

<svg
   width="62.973335mm"
   height="62.973335mm"
   viewBox="0 0 62.973335 62.973335"
   version="1.1"
   id="svg820"
   inkscape:version="1.1.2 (0a00cf5339, 2022-02-04)"
   sodipodi:docname="thumbs-up-2.svg"
   inkscape:export-filename="/home/eduda/Projects/MusicQuiz/assets/images/thumbs-up-2.png"
   inkscape:export-xdpi="32.267624"
   inkscape:export-ydpi="32.267624"
   xmlns:inkscape="http://www.inkscape.org/namespaces/inkscape"
   xmlns:sodipodi="http://sodipodi.sourceforge.net/DTD/sodipodi-0.dtd"
   xmlns="http://www.w3.org/2000/svg"
   xmlns:svg="http://www.w3.org/2000/svg"
   xmlns:rdf="http://www.w3.org/1999/02/22-rdf-syntax-ns#"
   xmlns:cc="http://creativecommons.org/ns#"
   xmlns:dc="http://purl.org/dc/elements/1.1/">
  <defs
     id="defs814" />
  <sodipodi:namedview
     id="base"
     pagecolor="#ffffff"
     bordercolor="#666666"
     borderopacity="1.0"
     inkscape:pageopacity="0.0"
     inkscape:pageshadow="2"
     inkscape:zoom="1.979899"
     inkscape:cx="78.53936"
     inkscape:cy="181.06984"
     inkscape:document-units="mm"
     inkscape:current-layer="layer1"
     showgrid="false"
     inkscape:window-width="1846"
     inkscape:window-height="1016"
     inkscape:window-x="0"
     inkscape:window-y="0"
     inkscape:window-maximized="1"
     fit-margin-top="2"
     fit-margin-left="2"
     fit-margin-right="2"
     fit-margin-bottom="2"
     inkscape:pagecheckerboard="0" />
  <metadata
     id="metadata817">
    <rdf:RDF>
      <cc:Work
         rdf:about="">
        <dc:format>image/svg+xml</dc:format>
        <dc:type
           rdf:resource="http://purl.org/dc/dcmitype/StillImage" />
      </cc:Work>
    </rdf:RDF>
  </metadata>
  <g
     inkscape:label="Vrstva 1"
     inkscape:groupmode="layer"
     id="layer1"
     transform="translate(-73.513332,-46.287136)">
    <circle
       style="fill:#7ddd4d;fill-opacity:1;fill-rule:nonzero;stroke:#4a9f1f;stroke-width:0.76499999;stroke-linecap:round;stroke-linejoin:round;stroke-miterlimit:4;stroke-dasharray:none;stroke-dashoffset:0;stroke-opacity:1"
       id="path1600"
       cy="77.773804"
       cx="105"
       r="29.104168" />
    <g
       id="g1598"
       transform="translate(-23.248514,-18.017472)">
      <path
         sodipodi:nodetypes="sczczczzzssscs"
         inkscape:connector-curvature="0"
         id="path1365"
         d="m 134.60935,112.97822 c 3.6152,-1.08616 7.77333,-5.14662 7.77333,-5.14662 0,0 -0.66989,-4.0759 -0.62686,-6.42096 0.043,-2.345053 0.88505,-7.649375 0.88505,-7.649375 0,0 -7.32339,-2.258299 -8.58425,-5.098557 -1.26085,-2.840257 -0.45151,-9.976057 -0.45151,-9.976057 0,0 0.54085,-6.236519 -1.28492,-7.313552 -1.82577,-1.077033 -4.30404,1.089171 -6.21877,3.866727 -1.91473,2.777555 2.4587,14.059577 0.97082,14.803812 -1.48788,0.744234 -5.76347,0.193203 -7.37229,2.480952 -1.60881,2.287748 -0.16786,4.884458 -1.03395,7.67559 -0.8661,2.79113 -3.37107,6.44486 -2.3146,8.70849 1.05648,2.26363 3.3692,4.00578 7.52809,4.71102 3.73822,-0.0135 7.29838,0.3895 10.72986,-0.64147 z"
         style="fill:#ffd12f;fill-opacity:1;stroke:#a98400;stroke-width:0.26458332px;stroke-linecap:butt;stroke-linejoin:miter;stroke-opacity:1" />
      <path
         sodipodi:nodetypes="czzszzzzzc"
         inkscape:connector-curvature="0"
         id="path1367"
         d="m 127.35393,91.401738 c -2.3627,-0.599131 -9.48277,-0.475216 -11.92691,0.306155 -2.44413,0.781371 -2.94028,1.186711 -3.30745,1.996502 -0.36717,0.80979 -0.0185,2.45021 0.36749,2.868601 0.60432,0.655091 0.13363,0.400904 2.20497,0.304155 2.07135,-0.09675 9.3191,-0.262244 11.72645,-0.84818 2.40735,-0.58594 2.43157,-0.611046 2.87315,-1.436039 0.44158,-0.824994 0.29003,-1.512988 -0.0668,-2.154056 -0.35683,-0.641069 0.49179,-0.438005 -1.8709,-1.037135 z"
         style="fill:#ffc600;fill-opacity:1;stroke:#a98400;stroke-width:0.28911087px;stroke-linecap:butt;stroke-linejoin:miter;stroke-opacity:1" />
      <path
         sodipodi:nodetypes="czzzzzzzzc"
         inkscape:connector-curvature="0"
         id="path1367-3"
         d="m 127.26949,97.013545 c -2.3627,-0.637387 -9.9839,-0.576643 -12.42804,0.25462 -2.44413,0.831263 -2.03825,0.835982 -2.40542,1.697479 -0.36717,0.861498 -0.57092,1.948956 -0.13364,2.610336 0.43728,0.66138 -0.0168,0.93095 2.2718,1.28036 2.28859,0.34939 9.3525,-0.29675 11.75985,-0.92012 2.40735,-0.62335 2.43157,-0.65006 2.87315,-1.52773 0.44158,-0.877675 0.29003,-1.609599 -0.0668,-2.291602 -0.35683,-0.682002 0.49179,-0.465971 -1.8709,-1.103358 z"
         style="fill:#ffc600;fill-opacity:1;stroke:#a98400;stroke-width:0.29819822px;stroke-linecap:butt;stroke-linejoin:miter;stroke-opacity:1" />
      <path
         sodipodi:nodetypes="zzczzzzz"
         inkscape:connector-curvature="0"
         id="path1396"
         d="m 126.55101,101.8808 c 0.80992,-0.19373 3.35878,0.14806 4.82846,-0.16578 1.46968,-0.31388 6.28084,-2.104744 6.28084,-2.104744 0,0 -4.05085,2.169974 -5.24517,2.739504 -1.19432,0.56953 -3.49613,0.5577 -4.30972,0.83522 -0.81359,0.27752 -1.41138,0.55523 -1.97111,0.3675 -0.55973,-0.18773 -1.15742,-0.63632 -1.03567,-1.1359 0.12175,-0.49958 0.64245,-0.34207 1.45237,-0.5358 z"
         style="fill:#a98400;fill-opacity:1;stroke:none;stroke-width:0.26458332px;stroke-linecap:butt;stroke-linejoin:miter;stroke-opacity:1" />
      <path
         sodipodi:nodetypes="czzzzzzzzc"
         inkscape:connector-curvature="0"
         id="path1367-6"
         d="m 127.23609,102.66038 c -2.3627,-0.58898 -9.9839,-0.53285 -12.42804,0.23529 -2.44413,0.76815 -2.03825,0.77251 -2.40542,1.56859 -0.36717,0.79609 -0.37047,2.15283 0.0668,2.76398 0.43728,0.61116 0.0834,0.4048 2.37202,0.72766 2.28859,0.32288 9.05183,-0.17058 11.45918,-0.74657 2.40735,-0.57601 2.43157,-0.6007 2.87315,-1.41174 0.44158,-0.81103 0.29003,-1.48738 -0.0668,-2.11758 -0.35683,-0.63022 0.49179,-0.4306 -1.8709,-1.01959 z"
         style="fill:#ffc600;fill-opacity:1;stroke:#a98400;stroke-width:0.28665376px;stroke-linecap:butt;stroke-linejoin:miter;stroke-opacity:1" />
      <path
         sodipodi:nodetypes="czzzzzzzzc"
         inkscape:connector-curvature="0"
         id="path1367-7"
         d="m 127.46996,107.94999 c -2.3627,-0.59548 -9.9839,-0.53873 -12.42804,0.23788 -2.44413,0.77663 -2.03825,0.78103 -2.40542,1.58589 -0.36717,0.80487 -0.37452,2.30321 0.0628,2.92112 0.43728,0.6179 0.98952,0.55859 3.27811,0.88502 2.28859,0.32642 8.08297,-0.36917 10.49032,-0.95151 2.40735,-0.58238 2.49839,-0.68663 2.93997,-1.5066 0.44158,-0.81998 0.29003,-1.50378 -0.0668,-2.14095 -0.35683,-0.63716 0.49179,-0.43533 -1.8709,-1.03082 z"
         style="fill:#ffc600;fill-opacity:1;stroke:#a98400;stroke-width:0.28822982px;stroke-linecap:butt;stroke-linejoin:miter;stroke-opacity:1" />
      <path
         sodipodi:nodetypes="zczzczcccccz"
         inkscape:connector-curvature="0"
         id="path1398"
         d="m 126.1968,91.286456 c -0.76944,0.04251 -1.72452,0.685083 -1.72452,0.685083 0,0 0.39176,0.660165 0.4961,0.992187 0.10434,0.332022 0.16386,0.573972 0.14174,0.968563 -0.0221,0.394591 -0.35435,1.346541 -0.35435,1.346541 0,0 1.00482,0.58538 1.67726,0.614212 0.67244,0.02883 2.17337,-0.59059 2.17337,-0.59059 l 0.68508,-0.944938 0.21261,-0.897694 -0.44885,-1.13393 -0.18898,-0.307105 c 0,0 -1.90002,-0.774843 -2.66946,-0.732329 z"
         style="fill:#ffd953;fill-opacity:1;stroke:none;stroke-width:0.26458332px;stroke-linecap:butt;stroke-linejoin:miter;stroke-opacity:1" />
      <path
         sodipodi:nodetypes="zczzczcccccz"
         inkscape:connector-curvature="0"
         id="path1398-5"
         d="m 126.46205,97.040326 c -0.76944,0.04251 -2.0252,0.802013 -2.0252,0.802013 0,0 0.39176,0.660165 0.4961,0.992187 0.10434,0.332022 0.16386,0.573972 0.14174,0.968563 -0.0221,0.394591 -0.35435,1.346541 -0.35435,1.346541 0,0 1.00482,0.58538 1.67726,0.61421 0.67244,0.0288 2.17337,-0.59059 2.17337,-0.59059 l 0.68508,-0.94494 0.21261,-0.89769 -0.41544,-1.200747 -0.20569,-0.624488 c 0,0 -1.61604,-0.507573 -2.38548,-0.465059 z"
         style="fill:#ffd953;fill-opacity:1;stroke:none;stroke-width:0.26458332px;stroke-linecap:butt;stroke-linejoin:miter;stroke-opacity:1" />
      <path
         sodipodi:nodetypes="zczzczcccccz"
         inkscape:connector-curvature="0"
         id="path1398-3"
         d="m 126.18351,102.53227 c -0.76944,0.0425 -1.72452,0.68508 -1.72452,0.68508 0,0 0.39176,0.66017 0.4961,0.99219 0.10434,0.33202 0.16386,0.57397 0.14174,0.96856 -0.0221,0.39459 -0.35435,1.34654 -0.35435,1.34654 0,0 1.03823,0.45175 1.71067,0.48059 0.67244,0.0288 2.13996,-0.45696 2.13996,-0.45696 l 0.51804,-0.96164 0.1792,-0.8643 -0.2484,-1.15063 -0.18898,-0.3071 c 0,0 -1.90002,-0.77484 -2.66946,-0.73233 z"
         style="fill:#ffd953;fill-opacity:1;stroke:none;stroke-width:0.26458332px;stroke-linecap:butt;stroke-linejoin:miter;stroke-opacity:1" />
      <path
         sodipodi:nodetypes="zczzczcccccz"
         inkscape:connector-curvature="0"
         id="path1398-56"
         d="m 126.3621,107.90907 c -0.76944,0.0425 -1.70782,0.56816 -1.70782,0.56816 0,0 0.39176,0.66016 0.4961,0.99218 0.10434,0.33202 0.16386,0.57397 0.14174,0.96857 -0.0221,0.39459 -0.35435,1.34654 -0.35435,1.34654 0,0 1.00482,0.58538 1.67726,0.61421 0.67244,0.0288 2.17337,-0.59059 2.17337,-0.59059 l 0.68508,-0.94494 0.21261,-0.89769 -0.44885,-1.13393 -0.22239,-0.42404 c 0,0 -1.88331,-0.54098 -2.65275,-0.49847 z"
         style="fill:#ffd953;fill-opacity:1;stroke:none;stroke-width:0.26458332px;stroke-linecap:butt;stroke-linejoin:miter;stroke-opacity:1" />
      <path
         inkscape:connector-curvature="0"
         id="path1427"
         d="m 133.56734,77.006044 -0.0472,-1.771764 -0.17718,-1.842635 -0.64964,-1.641832 -0.51972,-0.366165 -0.2008,1.500093 0.2008,2.846633 0.47247,2.409598 0.77958,0.708705 z"
         style="fill:#ffe27d;fill-opacity:1;stroke:none;stroke-width:0.26458332px;stroke-linecap:butt;stroke-linejoin:miter;stroke-opacity:1" />
      <path
         sodipodi:nodetypes="czc"
         inkscape:connector-curvature="0"
         id="path1429"
         d="m 120.43266,91.546316 c 0,0 -0.40866,1.675089 -0.41341,2.445033 -0.005,0.769944 0.33073,2.114304 0.33073,2.114304"
         style="fill:none;stroke:#a98400;stroke-width:0.16500001;stroke-linecap:butt;stroke-linejoin:miter;stroke-miterlimit:4;stroke-dasharray:none;stroke-opacity:1" />
      <path
         sodipodi:nodetypes="czc"
         inkscape:connector-curvature="0"
         id="path1429-2"
         d="m 119.94368,91.451605 c 0,0 -0.40866,1.675089 -0.41341,2.445033 -0.005,0.769944 0.33073,2.114304 0.33073,2.114304"
         style="fill:none;stroke:#a98400;stroke-width:0.16500001;stroke-linecap:butt;stroke-linejoin:miter;stroke-miterlimit:4;stroke-dasharray:none;stroke-opacity:1" />
      <path
         sodipodi:nodetypes="czc"
         inkscape:connector-curvature="0"
         id="path1429-9"
         d="m 120.95949,91.557911 c 0,0 -0.40866,1.675089 -0.41341,2.445033 -0.005,0.769944 0.33073,2.114304 0.33073,2.114304"
         style="fill:none;stroke:#a98400;stroke-width:0.16500001;stroke-linecap:butt;stroke-linejoin:miter;stroke-miterlimit:4;stroke-dasharray:none;stroke-opacity:1" />
      <path
         sodipodi:nodetypes="czc"
         inkscape:connector-curvature="0"
         id="path1429-1"
         d="m 113.53214,92.807538 c 0,0 -0.41306,1.268079 -0.41786,1.850945 -0.005,0.582865 0.33429,1.600575 0.33429,1.600575"
         style="fill:none;stroke:#a98400;stroke-width:0.14433138;stroke-linecap:butt;stroke-linejoin:miter;stroke-miterlimit:4;stroke-dasharray:none;stroke-opacity:1" />
      <path
         sodipodi:nodetypes="czc"
         inkscape:connector-curvature="0"
         id="path1429-1-2"
         d="m 113.07148,92.925656 c 0,0 -0.41306,1.268079 -0.41786,1.850945 -0.005,0.582865 0.33429,1.600575 0.33429,1.600575"
         style="fill:none;stroke:#a98400;stroke-width:0.14433138;stroke-linecap:butt;stroke-linejoin:miter;stroke-miterlimit:4;stroke-dasharray:none;stroke-opacity:1" />
      <path
         sodipodi:nodetypes="czc"
         inkscape:connector-curvature="0"
         id="path1429-7"
         d="m 120.81107,97.299604 c 0,0 -0.40866,1.675089 -0.41341,2.445033 -0.005,0.769943 0.33073,2.114303 0.33073,2.114303"
         style="fill:none;stroke:#a98400;stroke-width:0.16500001;stroke-linecap:butt;stroke-linejoin:miter;stroke-miterlimit:4;stroke-dasharray:none;stroke-opacity:1" />
      <path
         sodipodi:nodetypes="czc"
         inkscape:connector-curvature="0"
         id="path1429-2-0"
         d="m 120.32209,97.204893 c 0,0 -0.40866,1.675089 -0.41341,2.445033 -0.005,0.769944 0.33073,2.114304 0.33073,2.114304"
         style="fill:none;stroke:#a98400;stroke-width:0.16500001;stroke-linecap:butt;stroke-linejoin:miter;stroke-miterlimit:4;stroke-dasharray:none;stroke-opacity:1" />
      <path
         sodipodi:nodetypes="czc"
         inkscape:connector-curvature="0"
         id="path1429-9-9"
         d="m 121.3379,97.311199 c 0,0 -0.40866,1.675089 -0.41341,2.445033 -0.005,0.769948 0.33073,2.114308 0.33073,2.114308"
         style="fill:none;stroke:#a98400;stroke-width:0.16500001;stroke-linecap:butt;stroke-linejoin:miter;stroke-miterlimit:4;stroke-dasharray:none;stroke-opacity:1" />
      <path
         sodipodi:nodetypes="czc"
         inkscape:connector-curvature="0"
         id="path1429-3"
         d="m 120.84447,102.84545 c 0,0 -0.40866,1.67509 -0.41341,2.44503 -0.005,0.76995 0.33073,2.11431 0.33073,2.11431"
         style="fill:none;stroke:#a98400;stroke-width:0.16500001;stroke-linecap:butt;stroke-linejoin:miter;stroke-miterlimit:4;stroke-dasharray:none;stroke-opacity:1" />
      <path
         sodipodi:nodetypes="czc"
         inkscape:connector-curvature="0"
         id="path1429-2-6"
         d="m 120.35549,102.75074 c 0,0 -0.40866,1.67509 -0.41341,2.44503 -0.005,0.76995 0.33073,2.11431 0.33073,2.11431"
         style="fill:none;stroke:#a98400;stroke-width:0.16500001;stroke-linecap:butt;stroke-linejoin:miter;stroke-miterlimit:4;stroke-dasharray:none;stroke-opacity:1" />
      <path
         sodipodi:nodetypes="czc"
         inkscape:connector-curvature="0"
         id="path1429-9-0"
         d="m 121.3713,102.85705 c 0,0 -0.40866,1.67508 -0.41341,2.44503 -0.005,0.76994 0.33073,2.1143 0.33073,2.1143"
         style="fill:none;stroke:#a98400;stroke-width:0.16500001;stroke-linecap:butt;stroke-linejoin:miter;stroke-miterlimit:4;stroke-dasharray:none;stroke-opacity:1" />
      <path
         sodipodi:nodetypes="czc"
         inkscape:connector-curvature="0"
         id="path1429-6"
         d="m 120.91129,108.37458 c 0,0 -0.40866,1.67509 -0.41341,2.44503 -0.005,0.76995 0.33073,2.11431 0.33073,2.11431"
         style="fill:none;stroke:#a98400;stroke-width:0.16500001;stroke-linecap:butt;stroke-linejoin:miter;stroke-miterlimit:4;stroke-dasharray:none;stroke-opacity:1" />
      <path
         sodipodi:nodetypes="czc"
         inkscape:connector-curvature="0"
         id="path1429-2-2"
         d="m 120.42231,108.27987 c 0,0 -0.40866,1.67509 -0.41341,2.44503 -0.005,0.76995 0.33073,2.11431 0.33073,2.11431"
         style="fill:none;stroke:#a98400;stroke-width:0.16500001;stroke-linecap:butt;stroke-linejoin:miter;stroke-miterlimit:4;stroke-dasharray:none;stroke-opacity:1" />
      <path
         sodipodi:nodetypes="czc"
         inkscape:connector-curvature="0"
         id="path1429-9-6"
         d="m 121.43812,108.38618 c 0,0 -0.40866,1.67509 -0.41341,2.44503 -0.005,0.76994 0.33073,2.1143 0.33073,2.1143"
         style="fill:none;stroke:#a98400;stroke-width:0.16500001;stroke-linecap:butt;stroke-linejoin:miter;stroke-miterlimit:4;stroke-dasharray:none;stroke-opacity:1" />
      <path
         sodipodi:nodetypes="czc"
         inkscape:connector-curvature="0"
         id="path1429-1-1"
         d="m 113.93039,98.354233 c 0,0 -0.41306,1.268079 -0.41786,1.850947 -0.005,0.58286 0.33429,1.60057 0.33429,1.60057"
         style="fill:none;stroke:#a98400;stroke-width:0.14433138;stroke-linecap:butt;stroke-linejoin:miter;stroke-miterlimit:4;stroke-dasharray:none;stroke-opacity:1" />
      <path
         sodipodi:nodetypes="czc"
         inkscape:connector-curvature="0"
         id="path1429-1-2-8"
         d="m 113.46973,98.472351 c 0,0 -0.41306,1.268079 -0.41786,1.850949 -0.005,0.58286 0.33429,1.60057 0.33429,1.60057"
         style="fill:none;stroke:#a98400;stroke-width:0.14433138;stroke-linecap:butt;stroke-linejoin:miter;stroke-miterlimit:4;stroke-dasharray:none;stroke-opacity:1" />
      <path
         sodipodi:nodetypes="czc"
         inkscape:connector-curvature="0"
         id="path1429-1-7"
         d="m 113.67982,103.78315 c 0,0 -0.41306,1.26808 -0.41786,1.85094 -0.005,0.58287 0.33429,1.60058 0.33429,1.60058"
         style="fill:none;stroke:#a98400;stroke-width:0.14433138;stroke-linecap:butt;stroke-linejoin:miter;stroke-miterlimit:4;stroke-dasharray:none;stroke-opacity:1" />
      <path
         sodipodi:nodetypes="czc"
         inkscape:connector-curvature="0"
         id="path1429-1-2-9"
         d="m 113.21916,103.90127 c 0,0 -0.41306,1.26808 -0.41786,1.85094 -0.005,0.58287 0.33429,1.60058 0.33429,1.60058"
         style="fill:none;stroke:#a98400;stroke-width:0.14433138;stroke-linecap:butt;stroke-linejoin:miter;stroke-miterlimit:4;stroke-dasharray:none;stroke-opacity:1" />
      <path
         sodipodi:nodetypes="czc"
         inkscape:connector-curvature="0"
         id="path1429-1-20"
         d="m 113.91368,109.26217 c 0,0 -0.41306,1.26808 -0.41786,1.85095 -0.005,0.58286 0.33429,1.60057 0.33429,1.60057"
         style="fill:none;stroke:#a98400;stroke-width:0.14433138;stroke-linecap:butt;stroke-linejoin:miter;stroke-miterlimit:4;stroke-dasharray:none;stroke-opacity:1" />
      <path
         sodipodi:nodetypes="czc"
         inkscape:connector-curvature="0"
         id="path1429-1-2-2"
         d="m 113.45302,109.38029 c 0,0 -0.41306,1.26808 -0.41786,1.85095 -0.005,0.58286 0.33429,1.60057 0.33429,1.60057"
         style="fill:none;stroke:#a98400;stroke-width:0.14433138;stroke-linecap:butt;stroke-linejoin:miter;stroke-miterlimit:4;stroke-dasharray:none;stroke-opacity:1" />
    </g>
    <circle
       style="fill:#4a9f1f;fill-opacity:1;stroke:none;stroke-width:1.54038;stroke-linecap:round;stroke-linejoin:round"
       id="path877"
       cx="120.51241"
       cy="95.709709"
       r="10.398114" />
    <text
       xml:space="preserve"
       style="font-style:normal;font-variant:normal;font-weight:normal;font-stretch:normal;font-size:12.5644px;line-height:1.25;font-family:'Disco Inferno';-inkscape-font-specification:'Disco Inferno';letter-spacing:0px;word-spacing:0px;fill:#ffc600;fill-opacity:1;stroke:none;stroke-width:0.471165"
       x="112.10941"
       y="100.77095"
       id="text4645"><tspan
         sodipodi:role="line"
         id="tspan4643"
         style="font-style:normal;font-variant:normal;font-weight:normal;font-stretch:normal;font-size:12.5644px;font-family:'Komika Axis';-inkscape-font-specification:'Komika Axis';fill:#ffc600;fill-opacity:1;stroke-width:0.471165"
         x="112.10941"
         y="100.77095">+2</tspan></text>
  </g>
</svg>
