<?xml version="1.0" encoding="UTF-8" standalone="no"?>
<svg
   width="432.29669"
   height="128.69328"
   viewBox="0 0 114.3785 34.050097"
   version="1.1"
   id="svg8"
   inkscape:version="1.1.2 (0a00cf5339, 2022-02-04)"
   sodipodi:docname="title.svg"
   inkscape:export-filename="/home/eduda/Projects/MusicQuiz/assets/images/title.png"
   inkscape:export-xdpi="90"
   inkscape:export-ydpi="90"
   xmlns:inkscape="http://www.inkscape.org/namespaces/inkscape"
   xmlns:sodipodi="http://sodipodi.sourceforge.net/DTD/sodipodi-0.dtd"
   xmlns="http://www.w3.org/2000/svg"
   xmlns:svg="http://www.w3.org/2000/svg"
   xmlns:rdf="http://www.w3.org/1999/02/22-rdf-syntax-ns#"
   xmlns:cc="http://creativecommons.org/ns#"
   xmlns:dc="http://purl.org/dc/elements/1.1/">
  <defs
     id="defs2" />
  <sodipodi:namedview
     id="base"
     pagecolor="#ffffff"
     bordercolor="#666666"
     borderopacity="1.0"
     inkscape:pageopacity="0.0"
     inkscape:pageshadow="2"
     inkscape:zoom="1.4"
     inkscape:cx="191.78571"
     inkscape:cy="114.64286"
     inkscape:document-units="mm"
     inkscape:current-layer="layer1"
     inkscape:document-rotation="0"
     showgrid="false"
     inkscape:snap-grids="false"
     inkscape:snap-to-guides="true"
     inkscape:snap-others="false"
     inkscape:snap-nodes="false"
     inkscape:snap-global="false"
     inkscape:window-width="1846"
     inkscape:window-height="1016"
     inkscape:window-x="0"
     inkscape:window-y="0"
     inkscape:window-maximized="1"
     units="px"
     inkscape:pagecheckerboard="0"
     fit-margin-top="5"
     lock-margins="true"
     fit-margin-left="5"
     fit-margin-right="5"
     fit-margin-bottom="5" />
  <metadata
     id="metadata5">
    <rdf:RDF>
      <cc:Work
         rdf:about="">
        <dc:format>image/svg+xml</dc:format>
        <dc:type
           rdf:resource="http://purl.org/dc/dcmitype/StillImage" />
      </cc:Work>
    </rdf:RDF>
  </metadata>
  <g
     inkscape:groupmode="layer"
     id="layer1"
     inkscape:label="Image"
     transform="translate(-107.27547,8.2003684)">
    <path
       style="fill:#996030;fill-opacity:1;stroke:#531d00;stroke-width:0.765;stroke-linecap:butt;stroke-linejoin:miter;stroke-miterlimit:4;stroke-dasharray:none;stroke-opacity:1"
       d="m 109.10371,-5.4389445 0.1091,7.1627226 10.3586,0.4831168 -10.38315,0.6914147 -0.19932,8.9189834 10.3709,0.727899 -10.15571,0.717195 -0.15835,10.88158 110.90168,-0.09892 -0.031,-10.832857 -10.39804,-0.621593 10.09019,-1.438082 0.13939,-8.8565622 -9.97888,-0.3363373 9.75271,-0.7506036 -0.0136,-7.7003069 z"
       id="path1217"
       sodipodi:nodetypes="ccccccccccccccccc" />
    <path
       style="fill:none;stroke:#531d00;stroke-width:0.265;stroke-linecap:butt;stroke-linejoin:miter;stroke-miterlimit:4;stroke-dasharray:none;stroke-opacity:1"
       d="m 112.96505,21.774603 c 0,0 13.09739,-3.565305 16.25482,-3.307292 24.56342,3.108517 50.97666,0.557448 73.0546,1.343587 6.75064,0.08688 15.48558,-1.40929 15.48558,-1.40929"
       id="path8453"
       sodipodi:nodetypes="cccc" />
    <path
       style="fill:none;stroke:#531d00;stroke-width:0.264583px;stroke-linecap:butt;stroke-linejoin:miter;stroke-opacity:1"
       d="m 112.43315,-3.3198416 c 0,0 13.41425,2.49087529 27.63766,2.96622717 14.22341,0.47535188 44.7375,-1.32263177 57.5454,-2.30882917 12.8079,-0.9861974 19.35762,-2.2084291 19.35762,-2.2084291"
       id="path11456"
       sodipodi:nodetypes="czzc" />
    <path
       style="fill:none;stroke:#531d00;stroke-width:0.264583px;stroke-linecap:butt;stroke-linejoin:miter;stroke-opacity:1"
       d="m 109.20844,4.8583545 c 0,0 14.14478,-0.492093 15.73536,1.9283076 0.89157,1.3567014 -15.83676,2.2898005 -15.83676,2.2898005"
       id="path14663"
       sodipodi:nodetypes="csc" />
    <path
       style="fill:none;stroke:#531d00;stroke-width:0.264583px;stroke-linecap:butt;stroke-linejoin:miter;stroke-opacity:1"
       d="m 219.6396,7.8895145 c 0,0 -32.14849,-3.6314325 -48.27132,-4.9103681 C 164.0385,2.3977155 156.66616,2.4118824 149.34563,1.7237781 139.33681,0.78298386 119.44325,-2.2007975 119.44325,-2.2007975"
       id="path15966"
       sodipodi:nodetypes="cssc" />
    <path
       style="fill:none;stroke:#531d00;stroke-width:0.264583px;stroke-linecap:butt;stroke-linejoin:miter;stroke-opacity:1"
       d="m 153.17984,12.345315 c -0.28215,-1.912882 10.56113,-2.9125371 15.82959,-3.613659 8.1309,-1.0820546 22.26377,0.545304 23.96624,4.232484 2.11942,4.590226 -13.69875,1.968563 -20.58715,1.837097 -6.45384,-0.123172 -18.81563,0.208861 -19.20868,-2.455922 z"
       id="path17037"
       sodipodi:nodetypes="sssas" />
    <path
       style="fill:none;stroke:#531d00;stroke-width:0.264583px;stroke-linecap:butt;stroke-linejoin:miter;stroke-opacity:1"
       d="m 118.76528,12.601862 c 0,0 20.43759,4.156323 24.2628,4.652161 3.82521,0.495838 23.17807,2.796411 23.17807,2.796411"
       id="path19585"
       sodipodi:nodetypes="czc" />
  </g>
</svg>
